<?xml version="1.0" encoding="UTF-8" standalone="no"?>
<svg
   width="48.108891mm"
   height="47.647915mm"
   viewBox="0 0 48.108891 47.647915"
   version="1.1"
   id="svg8"
   inkscape:version="1.1.1 (3bf5ae0d25, 2021-09-20)"
   sodipodi:docname="logo-galaxy-lines-white.svg"
   xmlns:inkscape="http://www.inkscape.org/namespaces/inkscape"
   xmlns:sodipodi="http://sodipodi.sourceforge.net/DTD/sodipodi-0.dtd"
   xmlns="http://www.w3.org/2000/svg"
   xmlns:svg="http://www.w3.org/2000/svg"
   xmlns:rdf="http://www.w3.org/1999/02/22-rdf-syntax-ns#"
   xmlns:cc="http://creativecommons.org/ns#"
   xmlns:dc="http://purl.org/dc/elements/1.1/">
  <defs
     id="defs2" />
  <sodipodi:namedview
     id="base"
     pagecolor="#ffffff"
     bordercolor="#666666"
     borderopacity="1.0"
     inkscape:pageopacity="0.0"
     inkscape:pageshadow="2"
     inkscape:zoom="1.4"
     inkscape:cx="-57.142857"
     inkscape:cy="87.5"
     inkscape:document-units="mm"
     inkscape:current-layer="layer1"
     inkscape:document-rotation="0"
     showgrid="false"
     showguides="false"
     inkscape:guide-bbox="true"
     inkscape:window-width="1920"
     inkscape:window-height="1017"
     inkscape:window-x="-8"
     inkscape:window-y="-8"
     inkscape:window-maximized="1"
     fit-margin-top="0"
     fit-margin-left="0"
     fit-margin-right="0"
     fit-margin-bottom="0"
     inkscape:pagecheckerboard="0">
    <sodipodi:guide
       position="39.087455,24.954468"
       orientation="1,0"
       id="guide878" />
    <sodipodi:guide
       position="39.087455,24.954468"
       orientation="0,-1"
       id="guide880" />
  </sodipodi:namedview>
  <metadata
     id="metadata5">
    <rdf:RDF>
      <cc:Work
         rdf:about="">
        <dc:format>image/svg+xml</dc:format>
        <dc:type
           rdf:resource="http://purl.org/dc/dcmitype/StillImage" />
      </cc:Work>
    </rdf:RDF>
  </metadata>
  <g
     inkscape:label="Слой 1"
     inkscape:groupmode="layer"
     id="layer1"
     transform="translate(-73.643946,-154.2939)">
    <g
       inkscape:transform-center-y="-0.66799615"
       inkscape:transform-center-x="14.144245"
       id="g892"
       transform="rotate(-86.429742,104.51681,185.52999)"
       style="fill:#000000;fill-opacity:1;stroke:none" />
    <g
       style="fill:#000000;fill-opacity:1;stroke:none"
       transform="rotate(176.24477,104.51483,176.84408)"
       id="g952"
       inkscape:transform-center-x="-1.0885901"
       inkscape:transform-center-y="14.726751" />
    <g
       inkscape:transform-center-y="0.51545869"
       inkscape:transform-center-x="-14.179199"
       id="g964"
       transform="rotate(92.936258,104.51318,169.5823)"
       style="fill:#000000;fill-opacity:1;stroke:none" />
    <g
       style="fill:#000000;fill-opacity:1;stroke:none"
       transform="rotate(0.09843272,102.4183,-9039.5642)"
       id="g976"
       inkscape:transform-center-x="0.16658134"
       inkscape:transform-center-y="-14.354185" />
    <g
       id="g1315"
       transform="matrix(2.2341417,0,0,2.2341417,217.37771,-343.30661)"
       style="fill:#ffffff;fill-opacity:1;stroke:none;stroke-width:0.447599"
       inkscape:export-xdpi="267"
       inkscape:export-ydpi="267">
      <g
         transform="matrix(0.42126167,-0.09877932,0.09877932,0.42126167,-115.97414,168.37428)"
         id="g1251"
         style="fill:#ffffff;fill-opacity:1;stroke:none;stroke-width:1.03446">
        <path
           id="path1249"
           style="color:#000000;font-style:normal;font-variant:normal;font-weight:normal;font-stretch:normal;font-size:medium;line-height:normal;font-family:sans-serif;font-variant-ligatures:normal;font-variant-position:normal;font-variant-caps:normal;font-variant-numeric:normal;font-variant-alternates:normal;font-variant-east-asian:normal;font-feature-settings:normal;font-variation-settings:normal;text-indent:0;text-align:start;text-decoration:none;text-decoration-line:none;text-decoration-style:solid;text-decoration-color:#000000;letter-spacing:normal;word-spacing:normal;text-transform:none;writing-mode:lr-tb;direction:ltr;text-orientation:mixed;dominant-baseline:auto;baseline-shift:baseline;text-anchor:start;white-space:normal;shape-padding:0;shape-margin:0;inline-size:0;clip-rule:nonzero;display:inline;overflow:visible;visibility:visible;isolation:auto;mix-blend-mode:normal;color-interpolation:sRGB;color-interpolation-filters:linearRGB;solid-color:#000000;solid-opacity:1;vector-effect:none;fill:#ffffff;fill-opacity:1;fill-rule:nonzero;stroke:none;stroke-width:1.03446;stroke-linecap:square;stroke-linejoin:bevel;stroke-miterlimit:4;stroke-dasharray:none;stroke-dashoffset:31.3701;stroke-opacity:1;paint-order:stroke markers fill;color-rendering:auto;image-rendering:auto;shape-rendering:auto;text-rendering:auto;enable-background:accumulate;stop-color:#000000;stop-opacity:1"
           d="m 107.91959,171.44743 c -0.53593,-0.1082 -1.08958,-0.16518 -1.65658,-0.16518 -4.53599,0 -8.259788,3.63718 -8.25979,8.12097 3e-6,4.48379 3.72403,8.1219 8.26002,8.1219 4.53598,-10e-6 8.2598,-3.63718 8.2598,-8.12096 0,-3.92332 -2.85194,-7.19922 -6.60345,-7.95673 z"
           sodipodi:nodetypes="ssssss" />
      </g>
      <g
         transform="matrix(-0.07235462,-0.42659531,0.42659531,-0.07235462,-125.20264,294.21719)"
         style="fill:#ffffff;fill-opacity:1;stroke:none;stroke-width:1.03446"
         id="g1255">
        <path
           d="m 125.07041,179.36031 c 0.0596,-0.28341 0.0906,-0.57687 0.0907,-0.8774 0,-2.40433 -2.00832,-4.35423 -4.42434,-4.35423 -2.41601,0 -4.42354,1.95011 -4.42353,4.35444 0,2.40433 2.00852,4.35305 4.42453,4.35305 2.11401,0 3.91533,-1.49206 4.33267,-3.47586 z m -1.13047,-0.23416 c -0.30477,1.45715 -1.6231,2.55431 -3.20242,2.5543 -1.80494,0 -3.26725,-1.4325 -3.26725,-3.19857 0,-1.76607 1.46294,-3.19735 3.26788,-3.19735 1.80494,0 3.26745,1.43133 3.26745,3.1974 2e-5,0.22076 -0.0221,0.43605 -0.0657,0.64421 z"
           style="color:#000000;font-style:normal;font-variant:normal;font-weight:normal;font-stretch:normal;font-size:medium;line-height:normal;font-family:sans-serif;font-variant-ligatures:normal;font-variant-position:normal;font-variant-caps:normal;font-variant-numeric:normal;font-variant-alternates:normal;font-variant-east-asian:normal;font-feature-settings:normal;font-variation-settings:normal;text-indent:0;text-align:start;text-decoration:none;text-decoration-line:none;text-decoration-style:solid;text-decoration-color:#000000;letter-spacing:normal;word-spacing:normal;text-transform:none;writing-mode:lr-tb;direction:ltr;text-orientation:mixed;dominant-baseline:auto;baseline-shift:baseline;text-anchor:start;white-space:normal;shape-padding:0;shape-margin:0;inline-size:0;clip-rule:nonzero;display:inline;overflow:visible;visibility:visible;isolation:auto;mix-blend-mode:normal;color-interpolation:sRGB;color-interpolation-filters:linearRGB;solid-color:#000000;solid-opacity:1;vector-effect:none;fill:#ffffff;fill-opacity:1;fill-rule:nonzero;stroke:none;stroke-width:1.03446;stroke-linecap:square;stroke-linejoin:bevel;stroke-miterlimit:4;stroke-dasharray:none;stroke-dashoffset:31.3701;stroke-opacity:1;paint-order:stroke markers fill;color-rendering:auto;image-rendering:auto;shape-rendering:auto;text-rendering:auto;enable-background:accumulate;stop-color:#000000;stop-opacity:1"
           id="path1253" />
      </g>
      <g
         transform="matrix(-0.07235462,-0.42659531,0.42659531,-0.07235462,-125.20264,294.21719)"
         style="fill:#ffffff;fill-opacity:1;stroke:none;stroke-width:1.03446"
         id="g1259">
        <path
           d="m 123.58882,170.29752 c 0.0551,-0.26194 0.0842,-0.53287 0.0842,-0.81066 -10e-6,-2.2224 -1.85778,-4.02341 -4.08797,-4.02341 -2.2302,0 -4.08763,1.80138 -4.08763,4.02377 10e-6,2.22239 1.85776,4.0234 4.08796,4.02341 1.95143,0 3.61737,-1.37955 4.00344,-3.21311 z m -1.13068,-0.23296 c -0.27344,1.30685 -1.45584,2.2892 -2.87278,2.28921 -1.61938,-1e-5 -2.93226,-1.28289 -2.93226,-2.86678 0,-1.58389 1.3128,-2.86786 2.93217,-2.86786 1.61937,10e-6 2.93226,1.28289 2.93226,2.86678 -3e-5,0.19798 -0.0203,0.39196 -0.0594,0.57865 z"
           style="color:#000000;font-style:normal;font-variant:normal;font-weight:normal;font-stretch:normal;font-size:medium;line-height:normal;font-family:sans-serif;font-variant-ligatures:normal;font-variant-position:normal;font-variant-caps:normal;font-variant-numeric:normal;font-variant-alternates:normal;font-variant-east-asian:normal;font-feature-settings:normal;font-variation-settings:normal;text-indent:0;text-align:start;text-decoration:none;text-decoration-line:none;text-decoration-style:solid;text-decoration-color:#000000;letter-spacing:normal;word-spacing:normal;text-transform:none;writing-mode:lr-tb;direction:ltr;text-orientation:mixed;dominant-baseline:auto;baseline-shift:baseline;text-anchor:start;white-space:normal;shape-padding:0;shape-margin:0;inline-size:0;clip-rule:nonzero;display:inline;overflow:visible;visibility:visible;isolation:auto;mix-blend-mode:normal;color-interpolation:sRGB;color-interpolation-filters:linearRGB;solid-color:#000000;solid-opacity:1;vector-effect:none;fill:#ffffff;fill-opacity:1;fill-rule:nonzero;stroke:none;stroke-width:1.03446;stroke-linecap:square;stroke-linejoin:bevel;stroke-miterlimit:4;stroke-dasharray:none;stroke-dashoffset:31.3701;stroke-opacity:1;paint-order:stroke markers fill;color-rendering:auto;image-rendering:auto;shape-rendering:auto;text-rendering:auto;enable-background:accumulate;stop-color:#000000;stop-opacity:1"
           id="path1257" />
      </g>
      <g
         transform="matrix(-0.07235462,-0.42659531,0.42659531,-0.07235462,-125.20264,294.21719)"
         style="fill:#ffffff;fill-opacity:1;stroke:none;stroke-width:1.03446"
         id="g1263">
        <path
           d="m 116.34251,166.04732 c 0.0476,-0.22566 0.0723,-0.45942 0.0725,-0.69878 0,-1.91508 -1.6035,-3.4679 -3.51956,-3.46789 -1.91605,0 -3.52194,1.55171 -3.52194,3.46679 0,1.91509 1.60628,3.46594 3.52232,3.46594 1.67655,0 3.11358,-1.18647 3.44669,-2.76606 z"
           style="color:#000000;font-style:normal;font-variant:normal;font-weight:normal;font-stretch:normal;font-size:medium;line-height:normal;font-family:sans-serif;font-variant-ligatures:normal;font-variant-position:normal;font-variant-caps:normal;font-variant-numeric:normal;font-variant-alternates:normal;font-variant-east-asian:normal;font-feature-settings:normal;font-variation-settings:normal;text-indent:0;text-align:start;text-decoration:none;text-decoration-line:none;text-decoration-style:solid;text-decoration-color:#000000;letter-spacing:normal;word-spacing:normal;text-transform:none;writing-mode:lr-tb;direction:ltr;text-orientation:mixed;dominant-baseline:auto;baseline-shift:baseline;text-anchor:start;white-space:normal;shape-padding:0;shape-margin:0;inline-size:0;clip-rule:nonzero;display:inline;overflow:visible;visibility:visible;isolation:auto;mix-blend-mode:normal;color-interpolation:sRGB;color-interpolation-filters:linearRGB;solid-color:#000000;solid-opacity:1;vector-effect:none;fill:#ffffff;fill-opacity:1;fill-rule:nonzero;stroke:none;stroke-width:1.03445;stroke-linecap:square;stroke-linejoin:bevel;stroke-miterlimit:4;stroke-dasharray:none;stroke-dashoffset:31.3701;stroke-opacity:1;paint-order:stroke markers fill;color-rendering:auto;image-rendering:auto;shape-rendering:auto;text-rendering:auto;enable-background:accumulate;stop-color:#000000;stop-opacity:1"
           id="path1261"
           sodipodi:nodetypes="scsssss" />
      </g>
      <path
         id="path1265"
         style="fill:#ffffff;fill-opacity:1;stroke:none;stroke-width:0.447596;stroke-linecap:square;stroke-linejoin:bevel;stroke-dashoffset:31.3701;stroke-opacity:0.992157;paint-order:stroke markers fill"
         d="m -62.562766,236.42928 a 0.856751,0.83603305 80.373701 0 1 0.967529,0.70488 0.856751,0.83603305 80.373701 0 1 -0.680996,0.98449 0.856751,0.83603305 80.373701 0 1 -0.967526,-0.70488 0.856751,0.83603305 80.373701 0 1 0.680993,-0.98449" />
      <g
         transform="matrix(-0.41388773,0.12615744,-0.12615744,-0.41388773,11.090091,292.55628)"
         style="fill:#ffffff;fill-opacity:1;stroke:none;stroke-width:1.03446"
         id="g1269">
        <path
           d="m 111.72849,170.17325 c 0.41371,0.12738 0.85322,0.19588 1.30622,0.19588 2.41601,0 4.42318,-1.94837 4.42318,-4.3527 0,-2.40433 -2.0078,-4.35371 -4.42381,-4.35371 -2.41601,0 -4.42353,1.94951 -4.42353,4.35384 0,1.95352 1.32499,3.60548 3.11794,4.15669 z m 0.33521,-1.10393 c -1.33036,-0.40488 -2.29675,-1.61869 -2.29676,-3.05362 0,-1.76607 1.46337,-3.19771 3.26831,-3.19771 1.80494,1e-5 3.26802,1.43128 3.26802,3.19735 1e-5,1.76607 -1.46336,3.1977 -3.2683,3.19771 -0.33842,-1e-5 -0.66426,-0.0503 -0.97127,-0.14373 z"
           style="color:#000000;font-style:normal;font-variant:normal;font-weight:normal;font-stretch:normal;font-size:medium;line-height:normal;font-family:sans-serif;font-variant-ligatures:normal;font-variant-position:normal;font-variant-caps:normal;font-variant-numeric:normal;font-variant-alternates:normal;font-variant-east-asian:normal;font-feature-settings:normal;font-variation-settings:normal;text-indent:0;text-align:start;text-decoration:none;text-decoration-line:none;text-decoration-style:solid;text-decoration-color:#000000;letter-spacing:normal;word-spacing:normal;text-transform:none;writing-mode:lr-tb;direction:ltr;text-orientation:mixed;dominant-baseline:auto;baseline-shift:baseline;text-anchor:start;white-space:normal;shape-padding:0;shape-margin:0;inline-size:0;clip-rule:nonzero;display:inline;overflow:visible;visibility:visible;isolation:auto;mix-blend-mode:normal;color-interpolation:sRGB;color-interpolation-filters:linearRGB;solid-color:#000000;solid-opacity:1;vector-effect:none;fill:#ffffff;fill-opacity:1;fill-rule:nonzero;stroke:none;stroke-width:1.03446;stroke-linecap:square;stroke-linejoin:bevel;stroke-miterlimit:4;stroke-dasharray:none;stroke-dashoffset:31.3701;stroke-opacity:1;paint-order:stroke markers fill;color-rendering:auto;image-rendering:auto;shape-rendering:auto;text-rendering:auto;enable-background:accumulate;stop-color:#000000;stop-opacity:1"
           id="path1267" />
      </g>
      <g
         transform="matrix(-0.41388773,0.12615744,-0.12615744,-0.41388773,11.090091,292.55628)"
         style="fill:#ffffff;fill-opacity:1;stroke:none;stroke-width:1.03446"
         id="g1273">
        <path
           d="m 110.67591,160.86277 c 0.38212,0.11775 0.78792,0.18033 1.20607,0.18034 2.2302,-1e-5 4.08793,-1.80049 4.08793,-4.02289 0,-2.22239 -1.85716,-4.02391 -4.08735,-4.02391 -2.2302,-1e-5 -4.08827,1.80163 -4.08827,4.02402 0,1.8057 1.2255,3.33309 2.88162,3.84244 z m 0.0649,-1.20007 c -1.05239,-0.43537 -1.79122,-1.45565 -1.79122,-2.64357 0,-1.58389 1.31367,-2.86789 2.93304,-2.86789 1.61937,0 2.93121,1.2848 2.93121,2.86869 0,1.58389 -1.31218,2.8671 -2.93155,2.8671 -0.40484,0 -0.79068,-0.0792 -1.14148,-0.22433 z"
           style="color:#000000;font-style:normal;font-variant:normal;font-weight:normal;font-stretch:normal;font-size:medium;line-height:normal;font-family:sans-serif;font-variant-ligatures:normal;font-variant-position:normal;font-variant-caps:normal;font-variant-numeric:normal;font-variant-alternates:normal;font-variant-east-asian:normal;font-feature-settings:normal;font-variation-settings:normal;text-indent:0;text-align:start;text-decoration:none;text-decoration-line:none;text-decoration-style:solid;text-decoration-color:#000000;letter-spacing:normal;word-spacing:normal;text-transform:none;writing-mode:lr-tb;direction:ltr;text-orientation:mixed;dominant-baseline:auto;baseline-shift:baseline;text-anchor:start;white-space:normal;shape-padding:0;shape-margin:0;inline-size:0;clip-rule:nonzero;display:inline;overflow:visible;visibility:visible;isolation:auto;mix-blend-mode:normal;color-interpolation:sRGB;color-interpolation-filters:linearRGB;solid-color:#000000;solid-opacity:1;vector-effect:none;fill:#ffffff;fill-opacity:1;fill-rule:nonzero;stroke:none;stroke-width:1.03446;stroke-linecap:square;stroke-linejoin:bevel;stroke-miterlimit:4;stroke-dasharray:none;stroke-dashoffset:31.3701;stroke-opacity:1;paint-order:stroke markers fill;color-rendering:auto;image-rendering:auto;shape-rendering:auto;text-rendering:auto;enable-background:accumulate;stop-color:#000000;stop-opacity:1"
           id="path1271" />
      </g>
      <g
         transform="matrix(-0.41388773,0.12615744,-0.12615744,-0.41388773,11.090091,292.55628)"
         style="fill:#ffffff;fill-opacity:1;stroke:none;stroke-width:1.03446"
         id="g1277">
        <path
           d="m 104.15537,156.19083 c 0.32896,0.10091 0.67843,0.15521 1.03768,0.15523 1.91605,0 3.51944,-1.54942 3.51943,-3.46451 0,-1.91508 -1.60416,-3.46774 -3.52021,-3.46775 -1.91606,1e-5 -3.52163,1.55252 -3.52163,3.4676 0,1.55601 1.05957,2.87107 2.48473,3.30943 z"
           style="color:#000000;font-style:normal;font-variant:normal;font-weight:normal;font-stretch:normal;font-size:medium;line-height:normal;font-family:sans-serif;font-variant-ligatures:normal;font-variant-position:normal;font-variant-caps:normal;font-variant-numeric:normal;font-variant-alternates:normal;font-variant-east-asian:normal;font-feature-settings:normal;font-variation-settings:normal;text-indent:0;text-align:start;text-decoration:none;text-decoration-line:none;text-decoration-style:solid;text-decoration-color:#000000;letter-spacing:normal;word-spacing:normal;text-transform:none;writing-mode:lr-tb;direction:ltr;text-orientation:mixed;dominant-baseline:auto;baseline-shift:baseline;text-anchor:start;white-space:normal;shape-padding:0;shape-margin:0;inline-size:0;clip-rule:nonzero;display:inline;overflow:visible;visibility:visible;isolation:auto;mix-blend-mode:normal;color-interpolation:sRGB;color-interpolation-filters:linearRGB;solid-color:#000000;solid-opacity:1;vector-effect:none;fill:#ffffff;fill-opacity:1;fill-rule:nonzero;stroke:none;stroke-width:1.03445;stroke-linecap:square;stroke-linejoin:bevel;stroke-miterlimit:4;stroke-dasharray:none;stroke-dashoffset:31.3701;stroke-opacity:1;paint-order:stroke markers fill;color-rendering:auto;image-rendering:auto;shape-rendering:auto;text-rendering:auto;enable-background:accumulate;stop-color:#000000;stop-opacity:1"
           id="path1275"
           sodipodi:nodetypes="ccsssc" />
      </g>
      <path
         id="path1279"
         style="fill:#ffffff;fill-opacity:1;stroke:none;stroke-width:0.447596;stroke-linecap:square;stroke-linejoin:bevel;stroke-dashoffset:31.3701;stroke-opacity:0.992157;paint-order:stroke markers fill"
         d="m -49.452152,241.98405 a 0.83603305,0.85675101 73.048214 0 1 0.575762,-1.0495 0.83603305,0.85675101 73.048214 0 1 1.063287,0.54991 0.83603305,0.85675101 73.048214 0 1 -0.575768,1.0495 0.83603305,0.85675101 73.048214 0 1 -1.063281,-0.54991" />
      <path
         id="path1281"
         style="color:#000000;font-style:normal;font-variant:normal;font-weight:normal;font-stretch:normal;font-size:medium;line-height:normal;font-family:sans-serif;font-variant-ligatures:normal;font-variant-position:normal;font-variant-caps:normal;font-variant-numeric:normal;font-variant-alternates:normal;font-variant-east-asian:normal;font-feature-settings:normal;font-variation-settings:normal;text-indent:0;text-align:start;text-decoration:none;text-decoration-line:none;text-decoration-style:solid;text-decoration-color:#000000;letter-spacing:normal;word-spacing:normal;text-transform:none;writing-mode:lr-tb;direction:ltr;text-orientation:mixed;dominant-baseline:auto;baseline-shift:baseline;text-anchor:start;white-space:normal;shape-padding:0;shape-margin:0;inline-size:0;clip-rule:nonzero;display:inline;overflow:visible;visibility:visible;isolation:auto;mix-blend-mode:normal;color-interpolation:sRGB;color-interpolation-filters:linearRGB;solid-color:#000000;solid-opacity:1;vector-effect:none;fill:#ffffff;fill-opacity:1;fill-rule:nonzero;stroke:none;stroke-width:0.447598;stroke-linecap:square;stroke-linejoin:bevel;stroke-miterlimit:4;stroke-dasharray:none;stroke-dashoffset:31.3701;stroke-opacity:1;paint-order:stroke markers fill;color-rendering:auto;image-rendering:auto;shape-rendering:auto;text-rendering:auto;enable-background:accumulate;stop-color:#000000"
         d="m -49.250453,235.1235 c -0.125257,-0.004 -0.252378,0.006 -0.380339,0.0289 -1.023689,0.1853 -1.698773,1.19033 -1.512567,2.21899 0.186203,1.02866 1.171009,1.73353 2.194697,1.54822 1.023687,-0.1853 1.698771,-1.19032 1.512568,-2.21898 -0.162928,-0.90008 -0.937554,-1.55237 -1.814359,-1.57717 z m -0.01138,0.49971 c 0.6439,0.0174 1.212051,0.49391 1.33377,1.16634 0.139107,0.76849 -0.357556,1.50203 -1.109494,1.63814 -0.751937,0.13612 -1.474231,-0.37666 -1.613339,-1.14515 -0.139107,-0.76848 0.357558,-1.50151 1.109493,-1.63762 0.09399,-0.017 0.187585,-0.0242 0.27957,-0.0217 z" />
      <g
         transform="matrix(0.07707053,0.42576858,-0.42576858,0.07707053,8.9524092,171.92084)"
         style="fill:#ffffff;fill-opacity:1;stroke:none;stroke-width:1.03446"
         id="g1285">
        <path
           d="m 118.95116,149.45138 c -0.0552,0.26193 -0.0838,0.53358 -0.0838,0.81139 0,2.22239 1.8576,4.02307 4.08781,4.02307 2.2302,-1e-5 4.08796,-1.80148 4.08796,-4.02388 0,-2.22238 -1.85762,-4.02307 -4.08781,-4.02307 -1.95142,0 -3.61813,1.37893 -4.0042,3.21249 z m 1.13154,0.23273 c 0.27341,-1.30684 1.45533,-2.28984 2.87228,-2.28983 1.61937,-1e-5 2.93259,1.28457 2.93258,2.86846 1e-5,1.58389 -1.3126,2.86769 -2.93197,2.86769 -1.61936,0 -2.93258,-1.28458 -2.93259,-2.86847 -1e-5,-0.19799 0.0207,-0.39116 0.0597,-0.57785 z"
           style="color:#000000;font-style:normal;font-variant:normal;font-weight:normal;font-stretch:normal;font-size:medium;line-height:normal;font-family:sans-serif;font-variant-ligatures:normal;font-variant-position:normal;font-variant-caps:normal;font-variant-numeric:normal;font-variant-alternates:normal;font-variant-east-asian:normal;font-feature-settings:normal;font-variation-settings:normal;text-indent:0;text-align:start;text-decoration:none;text-decoration-line:none;text-decoration-style:solid;text-decoration-color:#000000;letter-spacing:normal;word-spacing:normal;text-transform:none;writing-mode:lr-tb;direction:ltr;text-orientation:mixed;dominant-baseline:auto;baseline-shift:baseline;text-anchor:start;white-space:normal;shape-padding:0;shape-margin:0;inline-size:0;clip-rule:nonzero;display:inline;overflow:visible;visibility:visible;isolation:auto;mix-blend-mode:normal;color-interpolation:sRGB;color-interpolation-filters:linearRGB;solid-color:#000000;solid-opacity:1;vector-effect:none;fill:#ffffff;fill-opacity:1;fill-rule:nonzero;stroke:none;stroke-width:1.03446;stroke-linecap:square;stroke-linejoin:bevel;stroke-miterlimit:4;stroke-dasharray:none;stroke-dashoffset:31.3701;stroke-opacity:1;paint-order:stroke markers fill;color-rendering:auto;image-rendering:auto;shape-rendering:auto;text-rendering:auto;enable-background:accumulate;stop-color:#000000;stop-opacity:1"
           id="path1283" />
      </g>
      <g
         transform="matrix(0.07707053,0.42576858,-0.42576858,0.07707053,8.9524092,171.92084)"
         style="fill:#ffffff;fill-opacity:1;stroke:none;stroke-width:1.03446"
         id="g1289">
        <path
           d="m 112.81652,145.42435 c -0.0476,0.22571 -0.072,0.46004 -0.072,0.69942 0,1.91509 1.60517,3.46537 3.52121,3.46537 1.91605,0 3.51957,-1.5502 3.51957,-3.46529 -1e-5,-1.91508 -1.60377,-3.46632 -3.51983,-3.46632 -1.67654,0 -3.11548,1.18686 -3.44896,2.76682 z"
           style="color:#000000;font-style:normal;font-variant:normal;font-weight:normal;font-stretch:normal;font-size:medium;line-height:normal;font-family:sans-serif;font-variant-ligatures:normal;font-variant-position:normal;font-variant-caps:normal;font-variant-numeric:normal;font-variant-alternates:normal;font-variant-east-asian:normal;font-feature-settings:normal;font-variation-settings:normal;text-indent:0;text-align:start;text-decoration:none;text-decoration-line:none;text-decoration-style:solid;text-decoration-color:#000000;letter-spacing:normal;word-spacing:normal;text-transform:none;writing-mode:lr-tb;direction:ltr;text-orientation:mixed;dominant-baseline:auto;baseline-shift:baseline;text-anchor:start;white-space:normal;shape-padding:0;shape-margin:0;inline-size:0;clip-rule:nonzero;display:inline;overflow:visible;visibility:visible;isolation:auto;mix-blend-mode:normal;color-interpolation:sRGB;color-interpolation-filters:linearRGB;solid-color:#000000;solid-opacity:1;vector-effect:none;fill:#ffffff;fill-opacity:1;fill-rule:nonzero;stroke:none;stroke-width:1.03445;stroke-linecap:square;stroke-linejoin:bevel;stroke-miterlimit:4;stroke-dasharray:none;stroke-dashoffset:31.3701;stroke-opacity:1;paint-order:stroke markers fill;color-rendering:auto;image-rendering:auto;shape-rendering:auto;text-rendering:auto;enable-background:accumulate;stop-color:#000000;stop-opacity:1"
           id="path1287"
           sodipodi:nodetypes="scsssss" />
      </g>
      <path
         id="path1291"
         style="fill:#ffffff;fill-opacity:1;stroke:none;stroke-width:0.447596;stroke-linecap:square;stroke-linejoin:bevel;stroke-dashoffset:31.3701;stroke-opacity:0.992157;paint-order:stroke markers fill"
         d="m -44.599375,230.35161 a 0.85675101,0.83603305 79.739702 0 1 -0.97527,-0.69414 0.85675101,0.83603305 79.739702 0 1 0.670061,-0.99196 0.85675101,0.83603305 79.739702 0 1 0.975267,0.69414 0.85675101,0.83603305 79.739702 0 1 -0.670058,0.99196" />
      <path
         id="path1293"
         style="fill:#ffffff;fill-opacity:1;stroke:none;stroke-width:0.447596;stroke-linecap:square;stroke-linejoin:bevel;stroke-dashoffset:31.3701;stroke-opacity:0.992157;paint-order:stroke markers fill"
         d="m -46.1675,227.51901 a 0.68488329,0.66648766 79.739702 0 1 -0.777825,-0.55521 0.68488329,0.66648766 79.739702 0 1 0.533841,-0.79265 0.68488329,0.66648766 79.739702 0 1 0.77782,0.55522 0.68488329,0.66648766 79.739702 0 1 -0.533836,0.79264" />
      <g
         transform="matrix(0.42143075,-0.09805546,0.09805546,0.42143075,-122.53486,169.82854)"
         style="fill:#ffffff;fill-opacity:1;stroke:none;stroke-width:1.03446"
         id="g1297">
        <path
           d="m 132.75769,166.80812 c -0.28613,-0.058 -0.58102,-0.089 -0.88302,-0.089 -2.41601,0 -4.42431,1.94933 -4.42431,4.35366 0,2.40433 2.00805,4.35363 4.42407,4.35363 2.416,0 4.42314,-1.94961 4.42314,-4.35394 0,-2.10378 -1.53704,-3.85843 -3.53988,-4.26439 z m -0.22396,1.13119 c 1.48924,0.29816 2.60879,1.58768 2.60879,3.133 0,1.76607 -1.46268,3.19793 -3.26762,3.19793 -1.80494,0 -3.26806,-1.43204 -3.26806,-3.1981 0,-1.76607 1.46268,-3.19794 3.26762,-3.19794 0.22561,1e-5 0.44652,0.0225 0.65927,0.0651 z"
           style="color:#000000;font-style:normal;font-variant:normal;font-weight:normal;font-stretch:normal;font-size:medium;line-height:normal;font-family:sans-serif;font-variant-ligatures:normal;font-variant-position:normal;font-variant-caps:normal;font-variant-numeric:normal;font-variant-alternates:normal;font-variant-east-asian:normal;font-feature-settings:normal;font-variation-settings:normal;text-indent:0;text-align:start;text-decoration:none;text-decoration-line:none;text-decoration-style:solid;text-decoration-color:#000000;letter-spacing:normal;word-spacing:normal;text-transform:none;writing-mode:lr-tb;direction:ltr;text-orientation:mixed;dominant-baseline:auto;baseline-shift:baseline;text-anchor:start;white-space:normal;shape-padding:0;shape-margin:0;inline-size:0;clip-rule:nonzero;display:inline;overflow:visible;visibility:visible;isolation:auto;mix-blend-mode:normal;color-interpolation:sRGB;color-interpolation-filters:linearRGB;solid-color:#000000;solid-opacity:1;vector-effect:none;fill:#ffffff;fill-opacity:1;fill-rule:nonzero;stroke:none;stroke-width:1.03446;stroke-linecap:square;stroke-linejoin:bevel;stroke-miterlimit:4;stroke-dasharray:none;stroke-dashoffset:31.3701;stroke-opacity:1;paint-order:stroke markers fill;color-rendering:auto;image-rendering:auto;shape-rendering:auto;text-rendering:auto;enable-background:accumulate;stop-color:#000000;stop-opacity:1"
           id="path1295" />
      </g>
      <g
         transform="matrix(0.42143075,-0.09805546,0.09805546,0.42143075,-122.53486,169.82854)"
         style="fill:#ffffff;fill-opacity:1;stroke:none;stroke-width:1.03446"
         id="g1301">
        <path
           d="m 131.53739,158.13443 c -0.26424,-0.0536 -0.53748,-0.0808 -0.81625,-0.0808 -2.23021,0 -4.08731,1.80013 -4.08731,4.02252 0,2.2224 1.85733,4.02395 4.08754,4.02395 2.2302,0 4.08873,-1.80101 4.08873,-4.02341 0,-1.94459 -1.42308,-3.56716 -3.27271,-3.94228 z m -0.22423,1.13235 c 1.33612,0.26744 2.34073,1.42354 2.34074,2.80945 -1e-5,1.58389 -1.31269,2.86768 -2.93206,2.86768 -1.61936,0 -2.9318,-1.28337 -2.9318,-2.86727 0,-1.58388 1.31268,-2.86767 2.93205,-2.86768 0.20242,1e-5 0.40019,0.0196 0.59107,0.0578 z"
           style="color:#000000;font-style:normal;font-variant:normal;font-weight:normal;font-stretch:normal;font-size:medium;line-height:normal;font-family:sans-serif;font-variant-ligatures:normal;font-variant-position:normal;font-variant-caps:normal;font-variant-numeric:normal;font-variant-alternates:normal;font-variant-east-asian:normal;font-feature-settings:normal;font-variation-settings:normal;text-indent:0;text-align:start;text-decoration:none;text-decoration-line:none;text-decoration-style:solid;text-decoration-color:#000000;letter-spacing:normal;word-spacing:normal;text-transform:none;writing-mode:lr-tb;direction:ltr;text-orientation:mixed;dominant-baseline:auto;baseline-shift:baseline;text-anchor:start;white-space:normal;shape-padding:0;shape-margin:0;inline-size:0;clip-rule:nonzero;display:inline;overflow:visible;visibility:visible;isolation:auto;mix-blend-mode:normal;color-interpolation:sRGB;color-interpolation-filters:linearRGB;solid-color:#000000;solid-opacity:1;vector-effect:none;fill:#ffffff;fill-opacity:1;fill-rule:nonzero;stroke:none;stroke-width:1.03446;stroke-linecap:square;stroke-linejoin:bevel;stroke-miterlimit:4;stroke-dasharray:none;stroke-dashoffset:31.3701;stroke-opacity:1;paint-order:stroke markers fill;color-rendering:auto;image-rendering:auto;shape-rendering:auto;text-rendering:auto;enable-background:accumulate;stop-color:#000000;stop-opacity:1"
           id="path1299" />
      </g>
      <g
         transform="matrix(0.42143075,-0.09805546,0.09805546,0.42143075,-122.53486,169.82854)"
         style="fill:#ffffff;fill-opacity:1;stroke:none;stroke-width:1.03446"
         id="g1305">
        <path
           d="m 124.7,154.53502 c -0.21686,-0.0417 -0.44034,-0.0635 -0.66823,-0.0635 -1.91605,0 -3.52135,1.55121 -3.52135,3.4663 0,1.91508 1.60613,3.46568 3.52217,3.46568 1.91605,0 3.51902,-1.55045 3.51875,-3.46568 3e-5,-0.0851 -0.003,-0.17642 -0.0111,-0.27358 l -3.6e-4,-0.004 c -0.12667,-1.57014 -1.32182,-2.8339 -2.83985,-3.12545 z"
           style="color:#000000;font-style:normal;font-variant:normal;font-weight:normal;font-stretch:normal;font-size:medium;line-height:normal;font-family:sans-serif;font-variant-ligatures:normal;font-variant-position:normal;font-variant-caps:normal;font-variant-numeric:normal;font-variant-alternates:normal;font-variant-east-asian:normal;font-feature-settings:normal;font-variation-settings:normal;text-indent:0;text-align:start;text-decoration:none;text-decoration-line:none;text-decoration-style:solid;text-decoration-color:#000000;letter-spacing:normal;word-spacing:normal;text-transform:none;writing-mode:lr-tb;direction:ltr;text-orientation:mixed;dominant-baseline:auto;baseline-shift:baseline;text-anchor:start;white-space:normal;shape-padding:0;shape-margin:0;inline-size:0;clip-rule:nonzero;display:inline;overflow:visible;visibility:visible;isolation:auto;mix-blend-mode:normal;color-interpolation:sRGB;color-interpolation-filters:linearRGB;solid-color:#000000;solid-opacity:1;vector-effect:none;fill:#ffffff;fill-opacity:1;fill-rule:nonzero;stroke:none;stroke-width:1.03445;stroke-linecap:square;stroke-linejoin:bevel;stroke-miterlimit:4;stroke-dasharray:none;stroke-dashoffset:31.3701;stroke-opacity:1;paint-order:stroke markers fill;color-rendering:auto;image-rendering:auto;shape-rendering:auto;text-rendering:auto;enable-background:accumulate;stop-color:#000000;stop-opacity:1"
           id="path1303"
           sodipodi:nodetypes="ccssccccc" />
      </g>
      <path
         id="path1307"
         style="fill:#ffffff;fill-opacity:1;stroke:none;stroke-width:0.447596;stroke-linecap:square;stroke-linejoin:bevel;stroke-dashoffset:31.3701;stroke-opacity:0.992157;paint-order:stroke markers fill"
         d="m -57.09285,224.63916 a 0.83603305,0.85675101 76.901876 0 1 -0.644996,1.00844 0.83603305,0.85675101 76.901876 0 1 -1.023924,-0.62013 0.83603305,0.85675101 76.901876 0 1 0.645001,-1.00844 0.83603305,0.85675101 76.901876 0 1 1.023919,0.62013" />
      <path
         id="path1309"
         style="fill:#ffffff;fill-opacity:1;stroke:none;stroke-width:0.447596;stroke-linecap:square;stroke-linejoin:bevel;stroke-dashoffset:31.3701;stroke-opacity:0.992157;paint-order:stroke markers fill"
         d="m -59.844331,226.3456 a 0.66648766,0.68488329 76.901876 0 1 -0.516026,0.80436 0.66648766,0.68488329 76.901876 0 1 -0.818105,-0.49395 0.66648766,0.68488329 76.901876 0 1 0.516026,-0.80435 0.66648766,0.68488329 76.901876 0 1 0.818105,0.49394" />
      <path
         id="path1311"
         style="fill:#ffffff;fill-opacity:1;stroke:none;stroke-width:0.447596;stroke-linecap:square;stroke-linejoin:bevel;stroke-dashoffset:31.3701;stroke-opacity:0.992157;paint-order:stroke markers fill"
         d="m -60.22988,239.80092 a 0.66648764,0.68488327 76.901876 0 1 -0.516026,0.80435 0.66648764,0.68488327 76.901876 0 1 -0.818106,-0.49394 0.66648764,0.68488327 76.901876 0 1 0.516027,-0.80435 0.66648764,0.68488327 76.901876 0 1 0.818105,0.49394" />
      <path
         d="m -45.463325,239.76752 a 0.66648764,0.68488327 76.901876 0 1 -0.516026,0.80435 0.66648764,0.68488327 76.901876 0 1 -0.818106,-0.49394 0.66648764,0.68488327 76.901876 0 1 0.516027,-0.80435 0.66648764,0.68488327 76.901876 0 1 0.818105,0.49394"
         style="fill:#ffffff;fill-opacity:1;stroke:none;stroke-width:0.447596;stroke-linecap:square;stroke-linejoin:bevel;stroke-dashoffset:31.3701;stroke-opacity:0.992157;paint-order:stroke markers fill"
         id="path1313" />
    </g>
  </g>
</svg>
