<?xml version="1.0" encoding="UTF-8" standalone="no"?>
<svg
   width="47.71558mm"
   height="47.459541mm"
   viewBox="0 0 47.71558 47.459541"
   version="1.1"
   id="svg8"
   inkscape:version="1.1.1 (3bf5ae0d25, 2021-09-20)"
   sodipodi:docname="logo-galaxy-small-color-black.svg"
   xmlns:inkscape="http://www.inkscape.org/namespaces/inkscape"
   xmlns:sodipodi="http://sodipodi.sourceforge.net/DTD/sodipodi-0.dtd"
   xmlns="http://www.w3.org/2000/svg"
   xmlns:svg="http://www.w3.org/2000/svg"
   xmlns:rdf="http://www.w3.org/1999/02/22-rdf-syntax-ns#"
   xmlns:cc="http://creativecommons.org/ns#"
   xmlns:dc="http://purl.org/dc/elements/1.1/">
  <defs
     id="defs2" />
  <sodipodi:namedview
     id="base"
     pagecolor="#ffffff"
     bordercolor="#666666"
     borderopacity="1.0"
     inkscape:pageopacity="0.0"
     inkscape:pageshadow="2"
     inkscape:zoom="1.979899"
     inkscape:cx="2.5253813"
     inkscape:cy="108.33886"
     inkscape:document-units="mm"
     inkscape:current-layer="layer1"
     inkscape:document-rotation="0"
     showgrid="false"
     showguides="false"
     inkscape:guide-bbox="true"
     inkscape:window-width="1920"
     inkscape:window-height="1017"
     inkscape:window-x="-8"
     inkscape:window-y="-8"
     inkscape:window-maximized="1"
     fit-margin-top="0"
     fit-margin-left="0"
     fit-margin-right="0"
     fit-margin-bottom="0"
     inkscape:pagecheckerboard="0">
    <sodipodi:guide
       position="40.013876,23.895425"
       orientation="1,0"
       id="guide878" />
    <sodipodi:guide
       position="40.013876,23.895425"
       orientation="0,-1"
       id="guide880" />
  </sodipodi:namedview>
  <metadata
     id="metadata5">
    <rdf:RDF>
      <cc:Work
         rdf:about="">
        <dc:format>image/svg+xml</dc:format>
        <dc:type
           rdf:resource="http://purl.org/dc/dcmitype/StillImage" />
      </cc:Work>
    </rdf:RDF>
  </metadata>
  <g
     inkscape:label="Слой 1"
     inkscape:groupmode="layer"
     id="layer1"
     transform="translate(-72.717524,-153.42323)">
    <path
       transform="matrix(0.26458333,0,0,0.26458333,72.717524,153.42323)"
       d="M 98.195312 0 A 8.9368913 8.7313266 0.09843272 0 0 89.376953 8.7167969 A 8.9368913 8.7313266 0.09843272 0 0 98.298828 17.462891 A 8.9368913 8.7313266 0.09843272 0 0 107.25 8.7460938 A 8.9368913 8.7313266 0.09843272 0 0 98.328125 0 A 8.9368913 8.7313266 0.09843272 0 0 98.195312 0 z M 70.328125 0.30859375 A 7.4837189 7.3027476 0.09843272 0 0 62.832031 7.5996094 A 7.4837189 7.3027476 0.09843272 0 0 70.302734 14.914062 A 7.4837189 7.3027476 0.09843272 0 0 77.798828 7.625 A 7.4837189 7.3027476 0.09843272 0 0 70.328125 0.30859375 z M 44.943359 10.818359 A 5.9824547 5.8217688 0.09843272 0 0 39.03125 16.628906 A 5.9824547 5.8217688 0.09843272 0 0 45.003906 22.460938 A 5.9824547 5.8217688 0.09843272 0 0 50.996094 16.650391 A 5.9824547 5.8217688 0.09843272 0 0 45.023438 10.818359 A 5.9824547 5.8217688 0.09843272 0 0 44.943359 10.818359 z M 123.58984 13.578125 A 11.082072 10.839251 0.09843272 0 0 112.49023 24.398438 A 11.082072 10.839251 0.09843272 0 0 123.55273 35.255859 A 11.082072 10.839251 0.09843272 0 0 134.6543 24.435547 A 11.082072 10.839251 0.09843272 0 0 123.58984 13.578125 z M 61.609375 37.728516 A 12.086021 12.35202 3.570258 0 0 49.445312 49.328125 A 12.086021 12.35202 3.570258 0 0 60.740234 62.408203 A 12.086021 12.35202 3.570258 0 0 73.572266 50.832031 A 12.086021 12.35202 3.570258 0 0 62.277344 37.751953 A 12.086021 12.35202 3.570258 0 0 61.609375 37.728516 z M 27.210938 41.230469 A 10.839251 11.082072 3.570258 0 0 16.484375 51.636719 A 10.839251 11.082072 3.570258 0 0 26.613281 63.373047 A 10.839251 11.082072 3.570258 0 0 38.121094 52.986328 A 10.839251 11.082072 3.570258 0 0 27.994141 41.251953 A 10.839251 11.082072 3.570258 0 0 27.210938 41.230469 z M 165.30273 41.945312 A 5.8217688 5.9824547 2.936258 0 0 159.46094 47.628906 A 5.8217688 5.9824547 2.936258 0 0 164.96875 53.902344 A 5.8217688 5.9824547 2.936258 0 0 171.08984 48.226562 A 5.8217688 5.9824547 2.936258 0 0 165.58203 41.953125 A 5.8217688 5.9824547 2.936258 0 0 165.30273 41.945312 z M 127.80273 46.339844 A 12.35202 12.086021 0.09843272 0 0 115.51758 58.404297 A 12.35202 12.086021 0.09843272 0 0 127.84961 70.511719 A 12.35202 12.086021 0.09843272 0 0 140.22266 58.445312 A 12.35202 12.086021 0.09843272 0 0 127.89062 46.339844 A 12.35202 12.086021 0.09843272 0 0 127.80273 46.339844 z M 90.876953 63.449219 A 26.851737 26.325232 0 0 0 64.025391 89.775391 A 26.851737 26.325232 0 0 0 90.876953 116.10156 A 26.851737 26.325232 0 0 0 117.72852 89.775391 A 26.851737 26.325232 0 0 0 90.876953 63.449219 z M 173.01758 66.162109 A 7.3027476 7.4837189 2.936258 0 0 165.74609 73.271484 A 7.3027476 7.4837189 2.936258 0 0 172.65625 81.119141 A 7.3027476 7.4837189 2.936258 0 0 180.33203 74.019531 A 7.3027476 7.4837189 2.936258 0 0 173.42188 66.171875 A 7.3027476 7.4837189 2.936258 0 0 173.01758 66.162109 z M 10.050781 67.638672 A 8.7313266 8.9368913 3.570258 0 0 1.4023438 76.03125 A 8.7313266 8.9368913 3.570258 0 0 9.5605469 85.494141 A 8.7313266 8.9368913 3.570258 0 0 18.830078 77.117188 A 8.7313266 8.9368913 3.570258 0 0 10.673828 67.654297 A 8.7313266 8.9368913 3.570258 0 0 10.050781 67.638672 z M 170.61719 92.617188 A 8.7313266 8.9368913 2.936258 0 0 161.81445 101.10547 A 8.7313266 8.9368913 2.936258 0 0 170.07617 110.47852 A 8.7313266 8.9368913 2.936258 0 0 179.25391 102 A 8.7313266 8.9368913 2.936258 0 0 170.99219 92.628906 A 8.7313266 8.9368913 2.936258 0 0 170.61719 92.617188 z M 7.3652344 96.970703 A 7.3027476 7.4837189 3.570258 0 0 0.015625 103.99805 A 7.3027476 7.4837189 3.570258 0 0 6.8378906 111.92188 A 7.3027476 7.4837189 3.570258 0 0 14.591797 104.9082 A 7.3027476 7.4837189 3.570258 0 0 7.7695312 96.984375 A 7.3027476 7.4837189 3.570258 0 0 7.3652344 96.970703 z M 54.916016 110.96094 A 12.086021 12.35202 86.24477 0 0 54.025391 110.98828 A 12.086021 12.35202 86.24477 0 0 42.490234 123.85742 A 12.086021 12.35202 86.24477 0 0 55.607422 135.10742 A 12.086021 12.35202 86.24477 0 0 67.142578 122.23828 A 12.086021 12.35202 86.24477 0 0 54.916016 110.96094 z M 153.67773 114.92383 A 10.839251 11.082072 2.936258 0 0 142.79297 125.44922 A 10.839251 11.082072 2.936258 0 0 153.04883 137.07227 A 10.839251 11.082072 2.936258 0 0 164.44336 126.56055 A 10.839251 11.082072 2.936258 0 0 154.18555 114.9375 A 10.839251 11.082072 2.936258 0 0 153.67773 114.92383 z M 119.40234 116.26367 A 12.086021 12.35202 2.936258 0 0 107.36914 127.99609 A 12.086021 12.35202 2.936258 0 0 118.80664 140.94922 A 12.086021 12.35202 2.936258 0 0 131.50977 129.23242 A 12.086021 12.35202 2.936258 0 0 120.07227 116.2793 A 12.086021 12.35202 2.936258 0 0 119.40234 116.26367 z M 14.675781 124.27344 A 5.8217688 5.9824547 3.570258 0 0 8.9726562 129.89258 A 5.8217688 5.9824547 3.570258 0 0 14.410156 136.22461 A 5.8217688 5.9824547 3.570258 0 0 20.59375 130.61719 A 5.8217688 5.9824547 3.570258 0 0 15.154297 124.2832 A 5.8217688 5.9824547 3.570258 0 0 14.675781 124.27344 z M 61.525391 145.84961 A 10.839251 11.082072 86.24477 0 0 60.681641 145.87305 A 10.839251 11.082072 86.24477 0 0 50.332031 157.41602 A 10.839251 11.082072 86.24477 0 0 62.101562 167.50586 A 10.839251 11.082072 86.24477 0 0 72.449219 155.96289 A 10.839251 11.082072 86.24477 0 0 61.525391 145.84961 z M 140.32617 153.34766 A 5.8217688 5.9824547 86.24477 0 0 139.91211 153.36133 A 5.8217688 5.9824547 86.24477 0 0 134.32422 159.5625 A 5.8217688 5.9824547 86.24477 0 0 140.67578 164.97852 A 5.8217688 5.9824547 86.24477 0 0 146.26367 158.77734 A 5.8217688 5.9824547 86.24477 0 0 140.32617 153.34766 z M 87.580078 161.91016 A 8.7313266 8.9368913 86.24477 0 0 87.076172 161.92969 A 8.7313266 8.9368913 86.24477 0 0 78.728516 171.22852 A 8.7313266 8.9368913 86.24477 0 0 88.21875 179.35547 A 8.7313266 8.9368913 86.24477 0 0 96.564453 170.05664 A 8.7313266 8.9368913 86.24477 0 0 87.580078 161.91016 z M 115.64062 162.57422 A 7.3027476 7.4837189 86.24477 0 0 115.17969 162.58984 A 7.3027476 7.4837189 86.24477 0 0 108.18945 170.36719 A 7.3027476 7.4837189 86.24477 0 0 116.13477 177.16406 A 7.3027476 7.4837189 86.24477 0 0 123.125 169.38672 A 7.3027476 7.4837189 86.24477 0 0 115.64062 162.57422 z "
       style="fill:#f6971a;fill-opacity:1;stroke:none;stroke-width:3.77953;stroke-linecap:square;stroke-linejoin:bevel;stroke-dashoffset:31.3701;stroke-opacity:0.992157;paint-order:stroke markers fill"
       id="path847" />
    <g
       inkscape:transform-center-y="-0.66799615"
       inkscape:transform-center-x="14.144245"
       id="g892"
       transform="rotate(-86.429742,104.51681,185.52999)"
       style="fill:#000000;fill-opacity:1;stroke:none" />
    <g
       style="fill:#000000;fill-opacity:1;stroke:none"
       transform="rotate(176.24477,104.51483,176.84408)"
       id="g952"
       inkscape:transform-center-x="-1.0885901"
       inkscape:transform-center-y="14.726751" />
    <g
       inkscape:transform-center-y="0.51545869"
       inkscape:transform-center-x="-14.179199"
       id="g964"
       transform="rotate(92.936258,104.51318,169.5823)"
       style="fill:#000000;fill-opacity:1;stroke:none" />
    <g
       style="fill:#000000;fill-opacity:1;stroke:none"
       transform="rotate(0.09843272,102.4183,-9039.5642)"
       id="g976"
       inkscape:transform-center-x="0.16658134"
       inkscape:transform-center-y="-14.354185" />
  </g>
</svg>
