<svg width="38" height="35" viewBox="0 0 38 35" fill="none" xmlns="http://www.w3.org/2000/svg">
<path fill-rule="evenodd" clip-rule="evenodd" d="M26.9715 0.15815C26.8516 0.29063 26.8301 0.431349 26.8301 1.08381C26.8301 1.7828 26.8454 1.86852 26.9971 2.02022C27.1055 2.12866 27.2883 2.20102 27.5182 2.2264L27.8725 2.26559L27.1919 10.3554C26.8176 14.8048 26.4899 18.6874 26.4635 18.9834L26.4157 19.5214H29.9H33.3843L33.352 19.2431C33.3342 19.0901 33.0209 15.3745 32.6557 10.9863C32.2906 6.59811 31.9725 2.83685 31.9488 2.628L31.9058 2.24815L32.2949 2.21074C32.8785 2.15471 32.9531 2.02542 32.9531 1.06985C32.9531 -0.0939714 33.2287 0.00191921 29.8846 0.00191921C27.161 0.00191921 27.1104 0.00466527 26.9715 0.15815ZM8.46346 9.0284C5.56017 9.56842 3.25805 11.7026 2.46859 14.5859L2.26538 15.3281L2.24356 23.8388L2.22181 32.3496L1.25259 32.374C0.00571496 32.4054 0 32.4106 0 33.5069C0 34.2035 0.0139531 34.2782 0.171742 34.4265L0.343559 34.5879H19.018H37.6924L37.8461 34.3923C37.9779 34.2249 38 34.0928 38 33.4728C38 32.4153 37.9886 32.4052 36.745 32.374L35.7734 32.3495V27.2314C35.7734 22.2259 35.7701 22.1066 35.622 21.8164C35.5387 21.6531 35.3634 21.4542 35.2324 21.3743C35.0016 21.2336 34.8232 21.229 29.5205 21.2288L24.0469 21.2285V19.7477C24.0469 18.9333 24.0093 18.0901 23.9635 17.8737C23.7137 16.6968 22.8251 15.8566 21.6215 15.6595C21.3838 15.6206 20.3163 15.5885 19.2492 15.5883C17.171 15.5879 17.2188 15.5965 17.2188 15.219C17.2188 14.9602 16.8391 13.7639 16.5869 13.2278C15.8273 11.6134 14.3695 10.2112 12.7325 9.52055C12.4037 9.38183 11.8676 9.20282 11.541 9.12266C10.7159 8.92027 9.28098 8.87633 8.46346 9.0284ZM21.6418 18.0447C21.771 18.1874 21.7832 18.3298 21.7832 19.6961V21.1914L20.3916 21.2116L19 21.2317V26.7965V32.3613H18.1465H17.293V25.125V17.8886H19.3967C21.4405 17.8886 21.5044 17.8931 21.6418 18.0447ZM25.5379 25.3002C25.6711 25.4648 25.6797 25.6245 25.6797 27.942C25.6797 30.8878 25.7541 30.6762 24.7036 30.7174C23.9559 30.7468 23.6635 30.6638 23.537 30.386C23.4804 30.2618 23.4531 29.4487 23.4531 27.884C23.4531 24.9766 23.4087 25.0753 24.7029 25.1077C25.331 25.1233 25.4094 25.1414 25.5379 25.3002ZM31.1143 25.294C31.2822 25.4618 31.2834 25.4779 31.3047 27.8758L31.3262 30.2887L31.1063 30.5086C30.8936 30.7213 30.8633 30.7285 30.1857 30.7285C29.5891 30.7285 29.4558 30.7056 29.2893 30.5746L29.0938 30.4208V27.9143C29.0938 24.8832 29.0121 25.0794 30.2608 25.1089C30.862 25.123 30.9659 25.1455 31.1143 25.294Z" fill="#8EF6FB"/>
</svg>
