<svg width="100%" height="100%" viewBox="0 0 305.50366 305.50367" version="1.1" id="svg5" xmlns="http://www.w3.org/2000/svg" xmlns:svg="http://www.w3.org/2000/svg">  <g id="layer1" transform="translate(48.693428,15.45256)"> <path id="path2434" style="fill:#ffffff;stroke-width:3.77953;stroke-linecap:square;stroke-linejoin:round;stroke-dasharray:15.1181, 30.2362;stroke-dashoffset:11.3386;-inkscape-stroke:none;paint-order:fill markers stroke" transform="matrix(0.26458333,0,0,0.26458333,-48.693428,-15.45256)" d="m 574.92891,1.8867188 v 3.78125 h 1.89063 c 4.32918,0 10.82709,0.03791 15.14921,0.1386718 l 1.89063,0.044922 0.0879,-3.7792969 -1.89063,-0.044922 C 587.69915,1.92575 581.17215,1.8867188 576.81954,1.8867188 Z m 45.54179,1.4550781 -0.28125,3.765625 1.88282,0.1386719 c 5.01029,0.3722078 10.01275,0.8079246 15.00781,1.3144531 l 1.88086,0.1914062 0.38476,-3.7636719 -1.88281,-0.1914062 C 632.43068,4.2865745 627.39416,3.8568597 622.35352,3.4824219 Z m 45.20703,4.9980469 -0.56835,3.7343752 1.86718,0.289062 c 4.96245,0.759062 9.91549,1.591714 14.85938,2.486328 l 1.85937,0.339844 0.67188,-3.720703 -1.85938,-0.339844 C 677.53418,10.22891 672.55312,9.3918237 667.55273,8.6269531 Z m 44.68165,8.5546872 -0.86329,3.683594 1.83789,0.427734 c 4.88633,1.14966 9.75779,2.377686 14.61524,3.66211 l 1.82422,0.488281 0.96679,-3.654297 -1.82226,-0.488281 c -4.88629,-1.292052 -9.79621,-2.524934 -14.7207,-3.683594 z m 43.86328,12.083985 -1.15821,3.603515 1.80078,0.576172 c 4.77963,1.535895 9.53685,3.144493 14.27539,4.8125 l 1.7793,0.626953 1.25586,-3.564453 -1.7793,-0.628906 c -4.76817,-1.678429 -9.56506,-3.302091 -14.38086,-4.849609 z m 42.75586,15.53125 -1.43946,3.492187 1.75,0.724609 c 4.64315,1.915835 9.2609,3.891188 13.84766,5.933594 l 1.7207,0.767578 1.54297,-3.453125 -1.72851,-0.769531 c -4.62033,-2.057344 -9.2699,-4.042357 -13.94336,-5.970703 z m 41.39062,18.882812 -1.71289,3.367188 1.68359,0.855468 c 4.4767,2.279042 8.92257,4.613368 13.33204,7.013672 l 1.66015,0.908203 1.80859,-3.322265 -1.66015,-0.900391 C 849.03779,68.896066 844.55774,66.543442 840.05273,64.25 Z m 39.75781,22.101563 -1.9707,3.226562 1.60937,0.982422 c 4.28251,2.620145 8.5307,5.306409 12.74219,8.044922 l 1.58594,1.035156 2.06055,-3.175781 -1.58789,-1.025391 c -4.23791,-2.755681 -8.50756,-5.457808 -12.82227,-8.097656 z m 37.89844,25.173829 -2.2207,3.05469 1.52734,1.11523 c 4.06235,2.95335 8.08341,5.95833 12.0625,9.02149 l 1.49805,1.15039 2.30273,-2.9961 -1.49804,-1.15234 c -4.00721,-3.0848 -8.05298,-6.11279 -12.14258,-9.08594 z m 35.79492,28.07226 -2.45703,2.87891 1.43945,1.22656 c 3.81759,3.26392 7.59082,6.57668 11.31641,9.94336 l 1.40234,1.26953 2.53125,-2.80664 -1.40234,-1.26953 c -3.7522,-3.39073 -7.55354,-6.72418 -11.39648,-10.00976 z m 33.47071,30.80469 -2.67188,2.67188 1.33594,1.33593 c 3.55026,3.54965 7.04919,7.16099 10.5039,10.8086 l 1.29883,1.36523 2.7461,-2.59961 -1.29883,-1.37304 c -3.47581,-3.66993 -7.00103,-7.29659 -10.57813,-10.87305 z m 30.95898,33.33594 -2.8789,2.45117 1.2266,1.43945 c 3.2576,3.82547 6.4675,7.68885 9.6171,11.59766 l 1.1895,1.46875 2.9453,-2.36914 L 1027.1602,216 c -3.1742,-3.93905 -6.4069,-7.83176 -9.6836,-11.67969 z m 28.2285,35.66992 -3.0566,2.22266 1.1074,1.52734 c 2.9496,4.06302 5.8436,8.1679 8.6816,12.3125 l 1.0703,1.56641 3.1153,-2.14063 -1.0625,-1.55859 c -2.8563,-4.17122 -5.7692,-8.3093 -8.7402,-12.40235 z m 25.3418,37.78125 -3.2246,1.9707 0.9883,1.61719 c 2.6189,4.28455 5.1775,8.60519 7.6777,12.96094 l 0.9375,1.63867 3.2774,-1.88086 L 1078.5391,291 c -2.5172,-4.38517 -5.0912,-8.73789 -7.7286,-13.05273 z m 22.2793,39.66992 -3.373,1.70508 0.8476,1.68359 c 2.2685,4.48291 4.4864,8.99159 6.6289,13.53126 l 0.8047,1.71093 3.418,-1.61523 -0.8047,-1.70508 c -2.1592,-4.57493 -4.3918,-9.11704 -6.6738,-13.62695 z m 19.0527,41.3086 -3.5,1.43164 0.7168,1.75 c 1.9083,4.64538 3.758,9.32126 5.5352,14.01758 l 0.666,1.76562 3.5352,-1.33594 -0.6719,-1.77148 c -1.79,-4.72999 -3.6451,-9.43008 -5.5664,-14.10742 z m 15.709,42.68945 -3.5957,1.16016 0.5762,1.80078 c 1.5339,4.78102 2.999,9.57903 4.3984,14.40234 l 0.5254,1.81445 3.6309,-1.04687 -0.5313,-1.81641 c -1.4089,-4.85613 -2.8845,-9.69784 -4.4297,-14.51367 z m 12.2676,43.8125 -3.6836,0.86328 0.4356,1.83789 c 1.1487,4.88806 2.229,9.79372 3.2402,14.71289 l 0.3769,1.85156 3.7051,-0.75976 -0.3828,-1.85352 c -1.0181,-4.95307 -2.1066,-9.89116 -3.2637,-14.81445 z m 8.7481,44.64453 -3.7344,0.56836 0.2793,1.86719 c 0.7562,4.96535 1.4493,9.93718 2.0664,14.91992 l 0.2305,1.875 3.7558,-0.46484 -0.2363,-1.875 c -0.6216,-5.01948 -1.313,-10.02509 -2.0742,-15.02344 z m 5.1972,45.19336 -3.7656,0.27149 0.1328,1.88281 c 0.3621,5.00984 0.6581,10.0279 0.8867,15.04492 l 0.088,1.88281 3.7793,-0.16992 -0.088,-1.89062 c -0.2302,-5.05119 -0.5298,-10.09802 -0.8945,-15.14063 z m -2.1269,45.44141 -0.016,1.89062 c -0.023,5.02148 -0.1152,10.03927 -0.2793,15.0586 l -0.058,1.89062 3.7714,0.125 0.066,-1.89062 c 0.1652,-5.05388 0.2586,-10.11089 0.2813,-15.16797 l 0.016,-1.89063 z m -1.8828,45.14843 -0.1622,1.88282 c -0.4231,5.00598 -0.9085,10.01121 -1.4687,15 l -0.207,1.875 3.7578,0.41992 0.207,-1.875 c 0.5645,-5.02692 1.0587,-10.05892 1.4844,-15.0957 l 0.1543,-1.89063 z m -5.4317,44.86719 -0.3105,1.86719 c -0.818,4.95643 -1.6976,9.9007 -2.6504,14.83008 l -0.3614,1.85351 3.7129,0.71485 0.3614,-1.85157 c 0.9599,-4.96607 1.843,-9.94594 2.666,-14.93359 l 0.3086,-1.86719 z m -8.9844,44.29102 -0.4511,1.83789 c -1.2091,4.8757 -2.4802,9.73443 -3.8223,14.57226 l -0.502,1.81641 3.6387,1.00977 0.502,-1.81446 c 1.3521,-4.87404 2.6367,-9.76923 3.8535,-14.67578 l 0.4492,-1.83789 z m -12.4687,43.43554 -0.5977,1.79297 c -1.595,4.7644 -3.243,9.51014 -4.9668,14.22461 l -0.6504,1.77149 3.543,1.30078 0.6504,-1.77149 c 1.7373,-4.75135 3.3993,-9.52944 5.0039,-14.32226 l 0.6055,-1.79297 z m -15.8926,42.3125 -0.7383,1.73438 c -1.964,4.62229 -3.9906,9.21818 -6.082,13.7832 l -0.7832,1.71875 3.4336,1.57227 0.789,-1.71289 c 2.1065,-4.5978 4.1497,-9.23104 6.127,-13.88477 l 0.7383,-1.73437 z m -19.1933,40.91016 -0.8711,1.67578 c -2.3198,4.45172 -4.7096,8.86729 -7.1524,13.25781 l -0.9238,1.6543 3.3086,1.83789 0.914,-1.6543 c 2.4575,-4.41668 4.8673,-8.85947 7.2051,-13.3457 l 0.8711,-1.67578 z m -22.3672,39.27148 -1.0039,1.59571 c -2.6704,4.25469 -5.3932,8.47441 -8.1778,12.65234 l -1.0488,1.57227 3.1445,2.0957 1.0489,-1.57226 c 2.805,-4.20866 5.5431,-8.45248 8.2304,-12.73438 l 1.0117,-1.60156 z m -25.4004,37.38282 -1.1289,1.51367 c -2.9946,4.03166 -6.0423,8.02513 -9.1465,11.97266 l -1.166,1.48437 2.9668,2.33203 1.1738,-1.48437 c 3.1258,-3.97501 6.19,-7.99544 9.2051,-12.05469 l 1.1289,-1.51172 z m -28.2578,35.26367 -1.2481,1.42383 c -3.2998,3.78414 -6.6509,7.52617 -10.05468,11.2207 l -1.2832,1.38672 2.78318,2.5625 1.2774,-1.38867 c 3.4252,-3.71789 6.8028,-7.4809 10.1269,-11.29297 l 1.2481,-1.42578 z m -30.93754,32.94531 -1.35938,1.32031 c -3.59304,3.5116 -7.22557,6.97687 -10.91015,10.38672 l -1.38672,1.28516 2.56836,2.77539 1.38867,-1.28516 c 3.71252,-3.43578 7.36952,-6.92802 10.98438,-10.46093 l 1.3496,-1.32032 z m -33.43945,30.40428 -1.45508,1.211 c -3.85115,3.2206 -7.75286,6.3855 -11.69336,9.5019 l -1.48242,1.1738 2.34765,2.959 1.48242,-1.166 c 3.96473,-3.1355 7.89507,-6.3214 11.7754,-9.5664 l 1.44531,-1.2109 z m -35.72852,27.6836 -1.53516,1.0918 c -4.09715,2.9053 -8.23585,5.7581 -12.41015,8.5488 l -1.57227,1.0469 2.10352,3.1465 1.57226,-1.0566 c 4.20435,-2.8108 8.36602,-5.6752 12.49024,-8.5997 l 1.54297,-1.0996 z m -37.79492,24.7734 -1.625,0.9668 c -4.31456,2.5722 -8.66087,5.0867 -13.04297,7.5372 l -1.64648,0.9218 1.8457,3.3008 1.64648,-0.9238 c 4.41468,-2.4687 8.79619,-4.9992 13.13868,-7.5879 l 1.61718,-0.9668 z m -39.64258,21.7032 -1.68945,0.8398 c -4.50104,2.2243 -9.04218,4.3834 -13.60547,6.4824 l -1.71289,0.7891 1.58008,3.4336 1.71289,-0.791 c 4.59311,-2.1128 9.16664,-4.2846 13.70117,-6.5254 l 1.68945,-0.8418 z m -41.23437,18.4902 -1.75586,0.7012 c -4.66247,1.8598 -9.35418,3.6424 -14.07032,5.375 l -1.77148,0.6562 1.29883,3.543 1.77148,-0.6484 c 4.74429,-1.743 9.47493,-3.5435 14.17383,-5.418 l 1.75586,-0.7012 z m -42.57813,15.1484 -1.80078,0.5606 c -4.79569,1.4829 -9.62385,2.8916 -14.46289,4.2441 l -1.81445,0.502 1.01757,3.6465 1.81641,-0.5078 c 4.86754,-1.3607 9.72342,-2.781 14.55664,-4.2754 l 1.80078,-0.5606 z m -43.65039,11.7149 -1.83789,0.4141 c -4.89872,1.0973 -9.81743,2.1237 -14.74805,3.0859 l -1.85351,0.3613 0.72461,3.7051 1.85156,-0.3613 c 4.96138,-0.9682 9.91734,-1.9957 14.85351,-3.1016 l 1.83789,-0.4121 z m -44.43164,8.2226 -1.875,0.2657 c -4.97193,0.7059 -9.94991,1.3453 -14.93945,1.9121 l -1.88282,0.207 0.42774,3.7578 1.88281,-0.2148 c 5.02469,-0.5707 10.0383,-1.2071 15.04492,-1.918 l 1.86719,-0.2656 z m -38.05859,4.2207 -1.89063,0.125 -0.13281,0.012 -13.52149,0.5761 -1.88867,0.1094 0.22071,3.7735 1.89062,-0.1114 13.52734,-0.5761 h 0.008 l 0.14843,-0.012 1.88282,-0.1269 z M 549.86247,2.5446161 l -1.88976,0.095962 c -5.0508,0.2545512 -10.10009,0.5776479 -15.14026,0.9670262 l -1.88238,0.1476283 0.28788,3.764761 1.88977,-0.1476284 c 5.00856,-0.3869404 10.02176,-0.7069039 15.03691,-0.9596447 l 1.88238,-0.095962 z m -45.3248,3.956693 -1.875,0.2435905 c -5.01428,0.653503 -10.01328,1.3748939 -15.00739,2.1628952 l -1.86761,0.2952944 0.58316,3.7352358 1.86762,-0.295295 c 4.96141,-0.782838 9.93891,-1.499108 14.9188,-2.148128 l 1.86762,-0.243591 z m -44.86713,7.5295299 -1.84547,0.391237 c -4.94489,1.050361 -9.87637,2.160915 -14.79331,3.343998 l -1.83809,0.442911 0.88583,3.676183 1.83809,-0.442913 c 4.8821,-1.174701 9.77614,-2.278088 14.68996,-3.32185 l 1.85285,-0.391242 z m -44.12156,11.058069 -1.81594,0.531496 c -4.84852,1.435999 -9.67593,2.944336 -14.48327,4.510335 l -1.7938,0.583169 1.16634,3.594981 1.80118,-0.590552 c 4.77572,-1.555696 9.57206,-3.04728 14.38731,-4.473425 l 1.80856,-0.531496 z m -43.11761,14.505414 -1.76428,0.679134 c -4.71804,1.815611 -9.41587,3.694429 -14.08464,5.639763 l -1.74213,0.723425 1.45424,3.491635 1.74212,-0.730808 c 4.63456,-1.931082 9.30059,-3.791385 13.98868,-5.595472 l 1.76427,-0.679134 z m -41.83317,17.878937 -1.70522,0.812008 c -4.56951,2.175455 -9.09818,4.424167 -13.59744,6.724902 l -1.68307,0.863681 1.71998,3.366141 1.68307,-0.863681 c 4.47408,-2.287855 8.97097,-4.52372 13.50147,-6.68061 l 1.70522,-0.812008 z m -40.29036,21.112205 -1.63878,0.944882 c -4.37999,2.530271 -8.71854,5.131235 -13.02165,7.787894 l -1.60925,0.989173 1.98573,3.218504 1.60925,-0.996555 c 4.27275,-2.637914 8.57862,-5.210207 12.92569,-7.721457 l 1.63877,-0.944882 z m -38.51132,24.227366 -1.55019,1.07775 c -4.15973,2.87129 -8.29193,5.79107 -12.37205,8.78445 l -1.52067,1.12205 2.23671,3.04872 1.52067,-1.12205 c 4.04613,-2.96844 8.14877,-5.87138 12.28346,-8.72539 l 1.5502,-1.07038 z m -36.46653,27.19488 -1.469,1.19587 c -3.9205,3.19239 -7.80005,6.43198 -11.63386,9.72932 l -1.43208,1.23278 2.46555,2.86418 1.43208,-1.23278 c 3.80744,-3.27466 7.66517,-6.49137 11.56004,-9.6629 l 1.46162,-1.19586 z m -34.20768,29.99262 -1.36565,1.29921 c -3.65703,3.49194 -7.26794,7.03321 -10.82923,10.62254 l -1.32874,1.3435 2.67962,2.66487 1.32874,-1.34351 c 3.53742,-3.56527 7.1231,-7.08038 10.75542,-10.54872 l 1.36565,-1.30659 z m -31.72736,32.59842 -1.26231,1.40994 c -3.37038,3.77021 -6.68394,7.58375 -9.95079,11.44193 l -1.22539,1.44685 2.88632,2.44341 1.21801,-1.44685 c 3.24598,-3.83355 6.54496,-7.62432 9.89173,-11.36811 l 1.25493,-1.40994 z m -29.05512,35.00492 -1.1442,1.50591 c -3.05928,4.02524 -6.06276,8.09566 -9.01328,12.20226 l -1.10728,1.53544 3.07086,2.1998 1.10728,-1.53543 c 2.93032,-4.07848 5.91496,-8.11476 8.95424,-12.11369 l 1.14419,-1.5059 z m -26.190947,37.19735 -1.0187,1.59449 c -2.730826,4.25436 -5.40703,8.53957 -8.024115,12.86663 l -0.981792,1.61663 3.233268,1.9562 0.981793,-1.61663 c 2.59889,-4.29697 5.258963,-8.5581 7.972441,-12.78543 l 1.0187,-1.58711 z m -23.179136,39.14616 -0.893208,1.66831 c -2.388276,4.45618 -4.714753,8.94542 -6.983267,13.46456 l -0.848916,1.68308 3.380905,1.69783 0.848916,-1.69045 c 2.253067,-4.48837 4.566289,-8.9415 6.938978,-13.36861 l 0.893208,-1.6683 z m -20.019685,40.85138 -0.75295,1.72736 c -2.028197,4.63076 -4.001692,9.28893 -5.905512,13.97392 l -0.708661,1.75689 3.499014,1.41732 0.716043,-1.74951 c 1.890501,-4.65221 3.845953,-9.27671 5.86122,-13.87795 l 0.752954,-1.73475 z m -16.727362,42.30561 -0.620077,1.78642 c -1.656442,4.77676 -3.248866,9.57392 -4.776083,14.39468 l -0.568407,1.80118 3.602363,1.1442 0.568406,-1.80119 c 1.516623,-4.78732 3.10091,-9.56047 4.746554,-14.3061 l 0.620081,-1.77903 z m -13.324309,43.49409 -0.479826,1.83071 c -1.275791,4.89367 -2.480969,9.80259 -3.624506,14.72687 l -0.428149,1.83809 3.683562,0.85629 0.428148,-1.83809 c 1.136319,-4.89317 2.335582,-9.77182 3.602363,-14.63089 l 0.472441,-1.83071 z m -9.847442,44.41685 -0.332182,1.86021 c -0.8818812,4.97798 -1.7026661,9.96907 -2.4507858,14.97048 l -0.2805165,1.86762 3.7426163,0.56103 0.280517,-1.87499 c 0.742889,-4.96641 1.552392,-9.92099 2.428641,-14.86715 l 0.332183,-1.86024 z m -6.3041345,45.05167 -0.1845543,1.88235 c -0.4886853,5.03131 -0.9190526,10.06972 -1.2623017,15.11811 l -0.1254803,1.8824 3.7721461,0.25852 0.1254804,-1.8824 c 0.340422,-5.007 0.761896,-10.01472 1.2475426,-15.01474 l 0.1845544,-1.88239 z m -2.7386797,45.406 -0.02948,1.88976 c -0.085077,5.0524 -0.1136504,10.10982 -0.059074,15.16978 l 0.01474,1.88976 3.7795276,-0.0378 -0.01474,-1.88976 c -0.054161,-5.01812 -0.025701,-10.04179 0.059074,-15.06644 l 0.02948,-1.88977 z m 4.6432064,45.25836 -3.7721462,0.22149 0.1107402,1.88976 c 0.3017196,5.05206 0.6886601,10.09232 1.1294286,15.12552 l 0.1624063,1.88235 3.7647648,-0.32466 -0.1624063,-1.88235 C 7.4456618,622.63635 7.0612158,617.6224 6.7620813,612.61373 Z m 4.4143708,44.97786 -3.7426165,0.51673 0.2657386,1.87499 c 0.7002898,5.01101 1.4771037,10.00849 2.3179125,14.99263 l 0.3174044,1.86025 3.727854,-0.62748 -0.317405,-1.86025 c -0.835729,-4.95397 -1.608491,-9.91857 -2.303149,-14.88926 z m 7.950297,44.48326 -3.690947,0.8194 0.413386,1.84547 c 1.10019,4.93587 2.266745,9.86067 3.499015,14.76378 l 0.465059,1.83069 3.661418,-0.92273 -0.457675,-1.83069 c -1.224351,-4.87159 -2.384367,-9.75905 -3.47687,-14.66045 z m 11.449312,43.71557 -3.617129,1.11465 0.561025,1.80855 c 1.48822,4.8322 3.040003,9.641 4.657973,14.43159 l 0.605314,1.79381 3.580218,-1.21063 -0.605317,-1.7938 c -1.607006,-4.75816 -3.150127,-9.53559 -4.628444,-14.33563 z m 14.867123,42.68209 -3.513778,1.39517 0.693899,1.75688 c 1.866731,4.69818 3.79426,9.37039 5.787402,14.01819 l 0.745568,1.73477 3.476871,-1.48377 -0.745573,-1.74214 c -1.979111,-4.6151 -3.895657,-9.25398 -5.75049,-13.92223 z m 18.196358,41.3681 -3.388286,1.66828 0.834153,1.69047 c 2.231448,4.53683 4.519015,9.04789 6.872542,13.52361 l 0.878442,1.66832 3.351378,-1.75688 -0.885826,-1.66832 c -2.337279,-4.44484 -4.611425,-8.92792 -6.828246,-13.43505 z m 21.407483,39.79574 -3.248032,1.93406 0.967026,1.62403 c 2.582139,4.34653 5.221932,8.66392 7.920767,12.94046 l 1.003938,1.59447 3.196361,-2.01525 -1.003937,-1.60187 c -2.680074,-4.2468 -5.303633,-8.52601 -7.869097,-12.84446 z m 24.478345,37.99461 -3.08563,2.17765 1.08514,1.55021 c 2.91695,4.12944 5.88928,8.21858 8.91732,12.26869 l 1.12943,1.51328 3.03396,-2.26624 -1.13681,-1.51328 c -3.007,-4.02195 -5.96029,-8.0849 -8.85827,-12.18751 z m 27.40157,35.9424 -2.90846,2.41391 1.21063,1.45421 c 3.23384,3.88732 6.51728,7.73239 9.85482,11.53051 l 1.24755,1.41732 2.84202,-2.49505 -1.24754,-1.41733 c -3.3153,-3.77284 -6.58397,-7.59587 -9.79577,-11.45669 z m 30.15503,33.65405 -2.70178,2.64272 1.31398,1.35088 c 3.53122,3.61984 7.11426,7.18851 10.74065,10.71114 l 1.35827,1.32136 2.62795,-2.71653 -1.35088,-1.31399 c -3.603,-3.49988 -7.16019,-7.04266 -10.66684,-10.63729 z m 32.72391,31.17378 -2.48769,2.842 1.4247,1.2475 c 3.80696,3.3263 7.65645,6.6013 11.55266,9.8253 l 1.45423,1.2033 2.41388,-2.9085 -1.46161,-1.2032 c -3.86881,-3.2014 -7.68865,-6.4612 -11.47146,-9.7663 z m 35.09351,28.4793 -2.25886,3.0339 1.51329,1.1295 c 4.0562,3.0261 8.15916,5.9793 12.29084,8.8878 l 1.54282,1.0851 2.17766,-3.0856 -1.54282,-1.0926 c -4.10966,-2.8929 -8.1876,-5.8281 -12.20964,-8.8287 z m 37.22687,25.6225 -2.01526,3.2038 1.60187,1.0039 c 4.2813,2.6968 8.60158,5.322 12.95522,7.8912 l 1.62402,0.9597 1.92667,-3.2554 -1.6314,-0.9597 c -4.32615,-2.553 -8.62013,-5.1572 -12.86663,-7.8322 z m 39.12401,22.6107 -1.7495,3.3514 1.67569,0.8785 c 4.47997,2.3445 8.98954,4.6291 13.53838,6.843 l 1.70522,0.8267 1.65354,-3.403 -1.70522,-0.8268 c -4.51345,-2.1967 -8.99274,-4.4627 -13.44241,-6.7913 z m 40.79233,19.4587 -1.47638,3.4769 1.73474,0.7382 c 4.65214,1.9789 9.33492,3.8973 14.04036,5.7505 l 1.75689,0.6938 1.38779,-3.5211 -1.76427,-0.6865 c -4.67223,-1.8401 -9.31467,-3.7474 -13.93701,-5.7136 z m 42.20226,16.1663 -1.19586,3.5803 1.78642,0.6053 c 4.79477,1.6078 9.61193,3.143 14.44635,4.621 l 1.80857,0.5537 1.10728,-3.6171 -1.80856,-0.5463 c -4.80384,-1.4687 -9.58941,-3.0024 -14.3504,-4.5989 z m 43.34646,12.7855 -0.90797,3.6614 1.83071,0.4577 c 4.90581,1.22 9.83242,2.3811 14.77116,3.4695 l 1.84547,0.406 0.81201,-3.691 -1.84547,-0.406 c -4.90379,-1.0807 -9.7929,-2.235 -14.66782,-3.4473 z m 44.2249,9.3085 -0.62008,3.7279 1.86762,0.3099 c 4.98765,0.8303 9.98411,1.5934 14.99262,2.2884 l 1.875,0.2585 0.51673,-3.7426 -1.875,-0.2585 c -4.97451,-0.6903 -9.93505,-1.4489 -14.88927,-2.2736 z m 44.82284,5.7875 -0.32482,3.7647 1.88239,0.1625 c 5.03809,0.4343 10.08569,0.7947 15.13287,1.0925 l 1.88238,0.1108 0.22144,-3.7722 -1.88238,-0.1107 c -5.01398,-0.296 -10.02616,-0.6539 -15.02953,-1.0852 z m 39.14027,2.2293 -0.0302,3.7795 1.88976,0.01 1.38044,0.01 h 0.008 l 14.31114,0.01 1.88976,0.01 0.0151,-3.7795 -1.88976,-0.01 -14.31111,-0.01 -1.37302,-0.01 z" /> </g> </svg> 