<svg width="100%" height="100%" viewBox="0 0 305.50366 305.50367" version="1.1" id="svg5" xmlns="http://www.w3.org/2000/svg" xmlns:svg="http://www.w3.org/2000/svg"><g id="layer1" transform="translate(48.693428,15.45256)"> <path style="fill:#ffffff;stroke-linecap:round;stroke-linejoin:round;-inkscape-stroke:none;paint-order:fill markers stroke" d="m -0.56640625,26.892578 a 0.5,0.5 0 0 0 -0.35742188,0.136719 C -31.366756,56.012631 -48.472914,96.293741 -48.189453,138.32617 c 0.283461,42.03243 17.930658,82.07833 48.76171862,110.64844 a 0.5,0.5 0 0 0 0.70703128,-0.0273 0.5,0.5 0 0 0 -0.027344,-0.70704 C -29.376948,219.85746 -46.907851,180.07518 -47.189453,138.31836 -47.471055,96.561536 -30.477689,56.547197 -0.234375,27.753906 a 0.5,0.5 0 0 0 0.0175781,-0.707031 0.5,0.5 0 0 0 -0.34960937,-0.154297 z" id="path846" /> </g> </svg> 