<svg width="13.6" height="23.2" viewBox="0 0 17 29" fill="none" xmlns="http://www.w3.org/2000/svg"><path d="M16.2782 15.5926L3.81781 28.0528C3.52962 28.3412 3.1449 28.5001 2.73469 28.5001C2.32448 28.5001 1.93977 28.3412 1.65157 28.0528L0.73395 27.1354C0.136846 26.5376 0.136846 25.5661 0.73395 24.9692L11.1973 14.5059L0.72234 4.03093C0.434146 3.74251 0.275024 3.35802 0.275024 2.94804C0.275024 2.5376 0.434146 2.15311 0.72234 1.86446L1.63996 0.947296C1.92839 0.658875 2.31287 0.499981 2.72308 0.499981C3.13329 0.499981 3.51801 0.658875 3.8062 0.947296L16.2782 13.4189C16.5671 13.7082 16.7258 14.0945 16.7249 14.5052C16.7258 14.9174 16.5671 15.3035 16.2782 15.5926Z" fill="white"/></svg>
