<svg width="65px" height="56px" viewBox="0 0 17.450096 15.035775" version="1.1" id="svg5" inkscape:version="1.1.1 (3bf5ae0d25, 2021-09-20)" xmlns:inkscape="http://www.inkscape.org/namespaces/inkscape" xmlns="http://www.w3.org/2000/svg" xmlns:svg="http://www.w3.org/2000/svg"><defs id="defs2" /> <g inkscape:label="Слой 1" inkscape:groupmode="layer" id="layer1" transform="translate(195.04953,28.256307)"> <g style="fill:none;fill-opacity:1;stroke:#000000;stroke-opacity:1" id="g873" transform="matrix(0.26458333,0,0,0.26458333,-216.88386,-35.66464)"> <path style="color:#000000;fill:#000000;stroke:none;-inkscape-stroke:none" d="M 82.523437,28 V 65.789062 L 115.5,84.828125 148.47656,65.789062 V 28 h -1 V 65.210937 L 115.5,83.671875 83.523437,65.210937 V 28 Z" id="path855" /> <path fill-rule="evenodd" clip-rule="evenodd" d="m 130.893,49.6679 c -0.271,-0.5617 -0.956,-0.8154 -1.568,-0.5805 -0.163,0.0626 -2.102,1.891 -7.025,6.6257 l -6.799,6.5393 -6.799,-6.5395 c -4.93,-4.7411 -6.862,-6.5632 -7.026,-6.6257 -0.123,-0.0475 -0.336,-0.0863 -0.471,-0.0863 -0.874,0 -1.4575,0.8492 -1.096,1.5948 0.16,0.3321 14.539,14.1567 14.877,14.3033 0.309,0.1347 0.72,0.1347 1.03,0 0.337,-0.1466 14.716,-13.9712 14.877,-14.3033 0.143,-0.295 0.143,-0.6322 0,-0.9278 z" fill="#ffffff" id="path859" style="fill:#000000;fill-opacity:1;stroke:none;stroke-opacity:1" /> <path fill-rule="evenodd" clip-rule="evenodd" d="m 130.893,41.6679 c -0.271,-0.5617 -0.956,-0.8154 -1.568,-0.5805 -0.163,0.0626 -2.102,1.891 -7.025,6.6257 l -6.799,6.5393 -6.799,-6.5395 c -4.93,-4.7411 -6.862,-6.5632 -7.026,-6.6257 -0.123,-0.0475 -0.336,-0.0863 -0.471,-0.0863 -0.874,0 -1.4575,0.8492 -1.096,1.5948 0.16,0.3321 14.539,14.1567 14.877,14.3033 0.309,0.1347 0.72,0.1347 1.03,0 0.337,-0.1466 14.716,-13.9712 14.877,-14.3033 0.143,-0.295 0.143,-0.6322 0,-0.9278 z" fill="#ffffff" id="path861" style="fill:#ffffff;fill-opacity:1;stroke:none;stroke-opacity:1" /></g></g></svg>