<svg width="13.6" height="23.2" viewBox="0 0 17 29" fill="none" version="1.1" id="svg4" inkscape:version="1.1.1 (3bf5ae0d25, 2021-09-20)" xmlns:inkscape="http://www.inkscape.org/namespaces/inkscape" xmlns="http://www.w3.org/2000/svg" xmlns:svg="http://www.w3.org/2000/svg"><path d="M 0.72172781,15.5926 13.182118,28.0528 c 0.28819,0.2884 0.67291,0.4473 1.08312,0.4473 0.41021,0 0.79492,-0.1589 1.08312,-0.4473 l 0.91762,-0.9174 c 0.597104,-0.5978 0.597104,-1.5693 0,-2.1662 L 5.8026278,14.5059 16.277588,4.03093 c 0.288194,-0.28842 0.447316,-0.67291 0.447316,-1.08289 0,-0.41044 -0.159122,-0.79493 -0.447316,-1.08358 l -0.91762,-0.917164 c -0.28843,-0.288421 -0.67291,-0.447315 -1.08312,-0.447315 -0.41021,0 -0.79493,0.158894 -1.08312,0.447315 L 0.72172781,13.4189 c -0.2889,0.2893 -0.4476,0.6756 -0.4467,1.0863 -9e-4,0.4122 0.1578,0.7983 0.4467,1.0874 z" fill="white" id="path2" style="fill:#ffffff;fill-opacity:1" /></svg> 