<svg width="16" height="14" viewBox="0 0 16 14" fill="none" xmlns="http://www.w3.org/2000/svg">
<path d="M0.255766 6.3785L6.03392 0.600203C6.19886 0.435262 6.4187 0.344726 6.6531 0.344726C6.88777 0.344726 7.10747 0.435392 7.27241 0.600203L7.79702 1.12495C7.96184 1.28963 8.05263 1.50959 8.05263 1.74413C8.05263 1.97853 7.96184 2.20591 7.79702 2.3706L4.42613 5.74891L15.1356 5.74891C15.6185 5.74891 16 6.12692 16 6.60991L16 7.35176C16 7.83475 15.6185 8.25087 15.1356 8.25087L4.38789 8.25087L7.79689 11.648C7.96171 11.813 8.0525 12.027 8.0525 12.2615C8.0525 12.4958 7.96171 12.7129 7.79689 12.8777L7.27228 13.4007C7.10734 13.5657 6.88763 13.6556 6.65297 13.6556C6.41857 13.6556 6.19873 13.5645 6.03379 13.3996L0.255637 7.62141C0.0903047 7.45595 -0.000620491 7.23508 2.99357e-05 7.00028C-0.00049075 6.76471 0.0903048 6.5437 0.255766 6.3785Z" fill="white"/>
</svg>
