<svg width="14" height="9" viewBox="0 0 14 9" fill="none" xmlns="http://www.w3.org/2000/svg">
<path d="M7.54628 8.39023L13.7763 2.16006C13.9206 2.01596 14 1.8236 14 1.6185C14 1.4134 13.9206 1.22104 13.7763 1.07694L13.3176 0.618133C13.0188 0.319583 12.533 0.319583 12.2345 0.618133L7.0029 5.84977L1.76547 0.612328C1.62126 0.468232 1.42901 0.388671 1.22402 0.388671C1.0188 0.388671 0.826562 0.468232 0.682239 0.612328L0.223657 1.07114C0.0794468 1.21535 -4.45383e-08 1.40759 -5.35037e-08 1.61269C-6.24691e-08 1.8178 0.0794467 2.01015 0.223657 2.15425L6.45941 8.39023C6.60408 8.53467 6.79723 8.614 7.00256 8.61355C7.20869 8.614 7.40173 8.53467 7.54628 8.39023Z" fill="white" fill-opacity="0.5"/>
</svg>
