<svg width="14" height="10" viewBox="0 0 14 10" fill="none" xmlns="http://www.w3.org/2000/svg">
<path d="M7.54628 1.10965L13.7763 7.33982C13.9206 7.48392 14 7.67627 14 7.88138C14 8.08648 13.9206 8.27884 13.7763 8.42294L13.3176 8.88174C13.0188 9.18029 12.533 9.18029 12.2345 8.88174L7.0029 3.65011L1.76547 8.88755C1.62126 9.03165 1.42901 9.11121 1.22402 9.11121C1.0188 9.11121 0.826562 9.03165 0.682239 8.88755L0.223657 8.42874C0.0794468 8.28453 -4.45383e-08 8.09229 -5.35037e-08 7.88718C-6.24691e-08 7.68208 0.0794467 7.48972 0.223657 7.34563L6.45941 1.10965C6.60408 0.965208 6.79723 0.885875 7.00256 0.886331C7.20869 0.885875 7.40173 0.965208 7.54628 1.10965Z" fill="white" fill-opacity="0.6"/>
</svg>
