<svg width="46" height="46" viewBox="0 0 46 46" fill="none" xmlns="http://www.w3.org/2000/svg">
<path fill-rule="evenodd" clip-rule="evenodd" d="M19.5319 0.158067C10.0792 1.75572 2.91962 8.7099 0.79907 18.3536C0.537265 19.5442 0.5 20.1202 0.5 22.971C0.5 26.5992 0.635459 27.5396 1.56803 30.3795C4.43524 39.1119 12.5145 45.4456 21.436 45.955C25.8411 46.2064 29.6667 45.4086 33.3264 43.4754C39.49 40.2194 43.6461 34.6588 45.2009 27.5884C45.4627 26.3978 45.5 25.8217 45.5 22.971C45.5 20.1202 45.4627 19.5442 45.2009 18.3536C43.1738 9.13485 36.5873 2.40285 27.6004 0.364028C25.9674 -0.00645302 21.2218 -0.12759 19.5319 0.158067ZM24.392 2.87437C29.3905 3.29655 33.4525 5.20107 36.9446 8.75994C38.5724 10.4189 39.7452 12.0584 40.7152 14.0312C43.0326 18.7445 43.4065 24.3401 41.7422 29.4045C41.3223 30.6826 40.4045 32.6668 39.7559 33.699C39.2341 34.5295 37.6892 36.5542 37.5789 36.5521C37.5268 36.5511 37.3457 35.9815 37.1762 35.2861C36.2214 31.367 33.6145 28.106 30.0407 26.3608C28.7921 25.7508 28.2916 25.7491 27.1142 26.3508C25.4595 27.1964 24.8736 27.3369 23 27.3369C21.1264 27.3369 20.5405 27.1964 18.8858 26.3508C17.7084 25.7491 17.2079 25.7508 15.9593 26.3608C12.3855 28.106 9.77864 31.367 8.82377 35.2861C8.65431 35.9815 8.47506 36.5511 8.42542 36.5521C8.37577 36.5531 8.03386 36.1642 7.66557 35.6877C5.00658 32.248 3.62384 28.7113 3.29186 24.501C2.8285 18.6272 4.8854 13.0097 9.05538 8.75994C12.4802 5.26968 16.6691 3.2759 21.4105 2.87923C22.0978 2.82171 22.6906 2.76682 22.728 2.75712C22.7654 2.74755 23.5142 2.80022 24.392 2.87437ZM21.844 7.26956C18.4396 7.74926 15.4631 10.2613 14.4069 13.5461C14.0083 14.786 13.9114 17.3109 14.2149 18.5474C14.7358 20.669 16.1602 22.7842 17.8598 23.9605C22.4266 27.1211 28.6467 25.5086 31.0335 20.5455C31.8258 18.8982 32.0149 17.9633 31.9431 16.0526C31.8442 13.424 31.1005 11.6822 29.2932 9.84699C27.3729 7.89701 24.4841 6.89741 21.844 7.26956Z" fill="white" fill-opacity="0.3"/>
</svg>
