<svg width="31" height="32" viewBox="0 0 31 32" fill="none" version="1.1" id="svg10" inkscape:version="1.1.1 (3bf5ae0d25, 2021-09-20)" xmlns:inkscape="http://www.inkscape.org/namespaces/inkscape" xmlns:xlink="http://www.w3.org/1999/xlink" xmlns="http://www.w3.org/2000/svg" xmlns:svg="http://www.w3.org/2000/svg"><path style="fill:#d2d2d2;fill-opacity:1;stroke:none;stroke-width:1px;stroke-linecap:butt;stroke-linejoin:miter;stroke-opacity:1" d="m 23.818803,29.100005 c 0,0 0.73077,0.884616 2.692308,0.653847 2.454712,-0.28879 2.576923,-2.346154 2.576923,-2.346154 V 4.5230805 c 0,0 -0.21398,-1.56266 -1.846154,-2 -2.326183,-0.623299 -3.192308,0.653846 -3.192308,0.653846 l -6.153845,9.1153865 c 0,0 -0.231069,0.345854 0.113051,0.689974 0.35432,0.35432 0.771564,0.04079 0.771564,0.04079 L 24.857265,7.8692345 V 24.061544 L 7.0384615,3.0439285 c 0,0 -0.7307692,-0.884615 -2.6923077,-0.653846 -2.4547125,0.28879 -2.576923,2.346154 -2.576923,2.346154 V 27.620853 c 0,0 0.2139795,1.56266 1.8461538,2 2.3261832,0.623299 3.1923077,-0.653846 3.1923077,-0.653846 l 6.1538457,-9.115385 c 0,0 0.210671,-0.359453 -0.140248,-0.710372 -0.351068,-0.351067 -0.744367,-0.0204 -0.744367,-0.0204 L 6,24.274699 V 8.0823895 Z" id="path2902" /></svg>