<svg width="28" height="28" viewBox="0 0 28 28" fill="none" version="1.1" id="svg23" inkscape:version="1.1.1 (3bf5ae0d25, 2021-09-20)" xmlns:inkscape="http://www.inkscape.org/namespaces/inkscape" xmlns="http://www.w3.org/2000/svg" xmlns:svg="http://www.w3.org/2000/svg"><g id="path972"> <path id="path1313" style="color:#000000;clip-rule:evenodd;fill:#ffffff;fill-rule:evenodd;stroke-width:0.7;-inkscape-stroke:none;fill-opacity:0.40000001" d="M 17.265625 -0.17578125 C 17.065687 -0.17578125 16.90129 -0.13114576 16.728516 -0.044921875 C 16.570753 0.033801375 16.533148 0.10170735 16.425781 0.22265625 C 16.318414 0.34360515 16.179181 0.51280383 15.992188 0.75 C 15.618199 1.2243923 15.051487 1.9711559 14.195312 3.1132812 C 13.585396 3.9268981 13.024289 4.6735673 12.611328 5.2207031 C 12.422062 5.4714631 12.27528 5.6663501 12.158203 5.8203125 C 12.146673 5.8063765 12.145182 5.8061856 12.132812 5.7910156 C 11.926151 5.5375181 11.597438 5.107175 11.109375 4.4570312 C 10.715658 3.9326223 10.369772 3.4854266 10.107422 3.1582031 C 9.9762465 2.9945914 9.8650557 2.8603176 9.7773438 2.7597656 C 9.7334876 2.7094897 9.6973209 2.668804 9.6621094 2.6328125 C 9.6268978 2.596821 9.6098015 2.5713587 9.53125 2.5234375 C 9.3378754 2.4055365 9.1406748 2.3762092 8.9335938 2.3671875 C 8.7265125 2.3581658 8.5217816 2.3731492 8.3203125 2.4648438 C 8.1889507 2.5246837 8.2064693 2.5412606 8.1816406 2.5664062 C 8.156812 2.5915517 8.1340429 2.6175774 8.1054688 2.6503906 C 8.0483201 2.7160171 7.975369 2.8047677 7.8828125 2.9199219 C 7.6976995 3.1502302 7.4343046 3.4875289 7.0917969 3.9335938 C 6.4067814 4.8257232 5.4014124 6.1552833 4.0625 7.9414062 C 2.9696176 9.3993071 1.9650353 10.74386 1.2265625 11.734375 C 0.85732611 12.229633 0.55391168 12.636651 0.33984375 12.925781 C 0.23280978 13.070346 0.14820537 13.185163 0.087890625 13.267578 C 0.057733265 13.308788 0.03367872 13.342037 0.015625 13.367188 C -0.00242872 13.392338 -0.005495445 13.392751 -0.029296875 13.431641 C -0.14388713 13.618938 -0.17773438 13.821223 -0.17773438 14.021484 C -0.17773438 14.221746 -0.14388817 14.422077 -0.029296875 14.609375 C -0.005471235 14.648305 -0.00244524 14.648658 0.015625 14.673828 C 0.03369524 14.698998 0.057699795 14.732178 0.087890625 14.773438 C 0.1482723 14.855947 0.23463485 14.972444 0.34179688 15.117188 C 0.5561209 15.406672 0.85882197 15.812706 1.2285156 16.308594 C 1.967903 17.300369 2.9740923 18.645687 4.0683594 20.105469 C 5.9873253 22.665357 6.9826776 23.993143 7.5351562 24.699219 C 7.8113956 25.052257 7.974228 25.249873 8.1015625 25.380859 C 8.228897 25.511846 8.3646215 25.591951 8.4511719 25.625 C 8.8282488 25.768466 9.2507507 25.743945 9.5703125 25.511719 C 9.677282 25.433939 9.6782837 25.412419 9.734375 25.347656 C 9.790466 25.282896 9.8598353 25.19961 9.9394531 25.101562 C 10.098689 24.90547 10.299151 24.649179 10.509766 24.376953 C 10.930995 23.832501 11.384856 23.229097 11.609375 22.898438 C 11.714028 22.744294 11.788464 22.635615 11.835938 22.486328 C 11.883408 22.337042 11.877637 22.197704 11.867188 22.050781 C 11.852018 21.838908 11.729061 21.679822 11.630859 21.507812 C 12.804362 23.076103 13.982475 24.642291 14.878906 25.824219 C 15.353051 26.449369 15.75217 26.972826 16.041016 27.345703 C 16.185439 27.532142 16.301159 27.680693 16.386719 27.787109 C 16.429499 27.840319 16.465319 27.884299 16.494141 27.917969 C 16.508551 27.934809 16.521056 27.947901 16.535156 27.962891 C 16.549256 27.977881 16.543554 27.986243 16.615234 28.033203 C 16.813026 28.162809 17.03124 28.202983 17.25 28.205078 C 17.46876 28.207178 17.689958 28.170738 17.890625 28.046875 C 18.011994 27.971965 17.989185 27.963755 18.021484 27.927734 C 18.053784 27.891714 18.091394 27.847794 18.136719 27.792969 C 18.227379 27.683327 18.347601 27.532618 18.496094 27.34375 C 18.793079 26.966013 19.199456 26.437603 19.679688 25.808594 C 20.640151 24.550575 21.894026 22.888301 23.140625 21.222656 C 24.387224 19.557012 25.626981 17.889219 26.558594 16.619141 C 27.0244 15.984101 27.412214 15.449406 27.6875 15.0625 C 27.825143 14.869047 27.935898 14.713094 28.013672 14.597656 C 28.052562 14.539936 28.082662 14.491566 28.107422 14.451172 C 28.119802 14.430972 28.131298 14.413938 28.142578 14.392578 C 28.153848 14.371218 28.167077 14.369938 28.185547 14.271484 C 28.217267 14.10152 28.217267 13.941448 28.185547 13.771484 L 28.185547 13.769531 C 28.163487 13.652054 28.145503 13.652462 28.126953 13.619141 C 28.108393 13.585821 28.086827 13.550721 28.060547 13.509766 C 28.007997 13.427856 27.934979 13.320449 27.837891 13.181641 C 27.643703 12.904077 27.353554 12.501658 26.953125 11.955078 C 26.152267 10.861919 24.911984 9.1951779 23.138672 6.8242188 C 20.479852 3.2692507 19.206059 1.5586193 18.519531 0.71679688 C 18.176267 0.29588568 17.987372 0.088413245 17.787109 -0.044921875 C 17.586847 -0.178257 17.355306 -0.17581797 17.265625 -0.17578125 z M 16.695312 3.8886719 L 17.746094 8.1132812 C 18.08378 9.4708955 18.390402 10.715428 18.613281 11.626953 C 18.724721 12.082716 18.814561 12.453842 18.876953 12.714844 C 18.883353 12.741694 18.886748 12.752884 18.892578 12.777344 C 18.797108 12.782244 18.760848 12.787696 18.585938 12.791016 C 17.937541 12.803336 16.691985 12.804687 14.337891 12.804688 C 12.96904 12.804688 11.72603 12.801089 10.828125 12.792969 C 10.499057 12.789969 10.276089 12.78497 10.050781 12.78125 C 10.236984 12.530268 10.463545 12.225037 10.763672 11.822266 C 11.443203 10.910334 12.37807 9.6586897 13.404297 8.2871094 L 16.695312 3.8886719 z M 8.8925781 5.625 L 9.6875 6.6855469 L 10.605469 7.9082031 L 8.6425781 10.525391 C 8.0233475 11.350455 7.482293 12.080883 7.0898438 12.625 C 6.8936192 12.897059 6.7343005 13.122788 6.6191406 13.291016 C 6.5647736 13.370436 6.5234106 13.435086 6.4882812 13.490234 C 6.4793313 13.470674 6.4850114 13.446844 6.4746094 13.427734 C 6.375716 13.246177 6.2246855 13.10936 6.046875 12.988281 C 5.9502442 12.922489 5.7662251 12.840174 5.5332031 12.822266 C 5.3001812 12.804356 4.9513657 12.804688 4.2675781 12.804688 C 3.8774776 12.804688 3.7297439 12.798822 3.5292969 12.794922 C 3.6763792 12.595222 3.8428173 12.370595 4.0703125 12.064453 C 4.6162258 11.32985 5.3669144 10.326487 6.1875 9.2324219 L 8.8925781 5.625 z M 19.943359 6.7128906 C 20.54375 7.5010765 21.359561 8.5816279 22.263672 9.7871094 L 24.771484 13.130859 C 24.862212 13.218575 24.936555 13.318799 24.994141 13.427734 L 25.439453 14.021484 L 24.972656 14.642578 C 24.934075 14.704864 24.892108 14.764366 24.84375 14.816406 L 22.263672 18.255859 C 21.36092 19.459576 20.546812 20.540956 19.945312 21.337891 C 20.065796 20.846532 20.184034 20.365887 20.335938 19.75 C 20.610405 18.636792 20.804239 17.828734 20.927734 17.279297 C 20.989484 17.004578 21.032388 16.7945 21.060547 16.640625 C 21.074627 16.563685 21.085267 16.500478 21.091797 16.445312 C 21.098297 16.390142 21.114194 16.369042 21.089844 16.25 C 20.933019 15.48093 20.103218 15.034836 19.382812 15.341797 C 19.296623 15.378537 19.13404 15.436507 19.005859 15.587891 C 18.877679 15.739272 18.803695 15.920115 18.705078 16.226562 C 18.507844 16.83946 18.22602 17.995979 17.626953 20.40625 L 16.695312 24.152344 L 13.404297 19.753906 C 12.378071 18.382277 11.443212 17.130754 10.763672 16.21875 C 10.464621 15.817396 10.238736 15.514403 10.052734 15.263672 C 10.420008 15.258772 10.905873 15.25367 11.53125 15.25 C 12.864609 15.2422 14.707269 15.237791 16.736328 15.238281 C 18.909329 15.238757 20.76966 15.233079 22.095703 15.224609 C 22.758725 15.220409 23.287943 15.214914 23.658203 15.208984 C 23.843333 15.205984 23.987824 15.202719 24.091797 15.199219 C 24.143787 15.197519 24.184647 15.195559 24.21875 15.193359 C 24.2358 15.192259 24.250328 15.191353 24.267578 15.189453 C 24.276178 15.188515 24.285518 15.187847 24.298828 15.185547 C 24.312138 15.183247 24.369904 15.166466 24.371094 15.166016 C 24.535025 15.103066 24.660248 15.004713 24.775391 14.892578 C 24.800154 14.868462 24.820598 14.841322 24.84375 14.816406 L 24.972656 14.642578 C 25.001492 14.596025 25.033127 14.552832 25.054688 14.496094 C 25.190248 14.139663 25.163454 13.748026 24.994141 13.427734 L 24.771484 13.130859 C 24.730226 13.090971 24.688574 13.051777 24.640625 13.017578 C 24.544175 12.948798 24.355582 12.869085 24.107422 12.847656 C 23.859262 12.826226 23.475742 12.817748 22.732422 12.804688 L 21.458984 12.783203 L 20.541016 9.1210938 C 20.308082 8.1909373 20.112821 7.3974524 19.943359 6.7128906 z M 6.4902344 14.544922 C 6.5109074 14.575772 6.5300107 14.605392 6.5585938 14.646484 C 6.6380228 14.760671 6.7492793 14.9163 6.8886719 15.109375 C 7.1674571 15.495525 7.559858 16.030068 8.0273438 16.664062 C 8.9445147 17.90791 10.160854 19.54081 11.378906 21.169922 C 11.173588 21.017409 10.93642 20.900391 10.664062 20.900391 C 10.42781 20.900391 10.158486 20.966091 9.9394531 21.144531 C 9.7204198 21.322975 9.5239793 21.573921 9.2109375 21.994141 C 9.0392431 22.224612 9.0054261 22.271766 8.9023438 22.410156 C 8.7392711 22.196653 8.5158072 21.904623 8.2441406 21.544922 C 7.6826528 20.801482 6.9337791 19.806866 6.1855469 18.808594 C 5.4373146 17.810321 4.6886778 16.80851 4.125 16.050781 C 3.878884 15.719938 3.6891426 15.462912 3.5292969 15.246094 C 3.729747 15.242294 3.8774712 15.236328 4.2675781 15.236328 C 4.9513687 15.236328 5.3001831 15.236665 5.5332031 15.21875 C 5.7662231 15.20084 5.9502579 15.120449 6.046875 15.054688 C 6.2246862 14.933609 6.3757165 14.79681 6.4746094 14.615234 C 6.4863244 14.593724 6.4803594 14.567002 6.4902344 14.544922 z " /></g></svg> 