<svg width="28" height="28" viewBox="0 0 28 28" fill="none" xmlns="http://www.w3.org/2000/svg">
<path fill-rule="evenodd" clip-rule="evenodd" d="M3.43284 0.01391C2.87922 0.101946 2.56519 0.196427 2.1194 0.408966C1.40173 0.751142 0.742508 1.41054 0.402449 2.12647C-0.00334244 2.98074 8.8109e-07 2.94559 8.8109e-07 6.36412C8.8109e-07 9.78175 -0.00334236 9.74665 0.401852 10.6018C0.737673 11.3105 1.40848 11.9793 2.12591 12.3208C2.97224 12.7235 2.94119 12.7206 6.35821 12.7206C9.77678 12.7206 9.74167 12.7239 10.597 12.3188C11.306 11.9831 11.9749 11.3125 12.3165 10.5953C12.7193 9.74916 12.7164 9.7802 12.7164 6.36412C12.7164 2.94803 12.7193 2.97907 12.3165 2.13297C11.993 1.45358 11.3073 0.751082 10.6567 0.432602C9.7917 0.00907559 9.87863 0.0182074 6.56716 0.00346517C4.92537 -0.00387611 3.51493 0.000838975 3.43284 0.01391ZM18.7164 0.01391C18.1628 0.101946 17.8488 0.196427 17.403 0.408966C16.6853 0.751142 16.0261 1.41054 15.686 2.12647C15.2802 2.98074 15.2836 2.94559 15.2836 6.36412C15.2836 9.78175 15.2802 9.74665 15.6854 10.6018C16.0213 11.3105 16.6921 11.9793 17.4095 12.3208C18.2558 12.7235 18.2248 12.7206 21.6418 12.7206C25.0604 12.7206 25.0253 12.7239 25.8806 12.3188C26.5896 11.9831 27.2585 11.3125 27.6001 10.5953C28.0029 9.74916 28 9.7802 28 6.36412C28 2.94803 28.0029 2.97907 27.6001 2.13297C27.2765 1.45358 26.5909 0.751082 25.9403 0.432602C25.0753 0.00907559 25.1622 0.0182074 21.8507 0.00346517C20.209 -0.00387611 18.7985 0.000838975 18.7164 0.01391ZM9.30651 2.61768C9.6237 2.7124 10.0109 3.09951 10.1057 3.41662C10.21 3.76566 10.21 8.96257 10.1057 9.31161C10.0109 9.62872 9.6237 10.0158 9.30651 10.1106C8.95737 10.2149 3.75905 10.2149 3.40991 10.1106C3.09433 10.0163 2.68555 9.61117 2.60185 9.30964C2.56078 9.16198 2.53797 8.10895 2.53797 6.36412C2.53797 4.61928 2.56078 3.56625 2.60185 3.41859C2.68054 3.13515 3.11164 2.69055 3.38364 2.61219C3.69487 2.52254 9.00454 2.52749 9.30651 2.61768ZM24.5901 2.61768C24.9073 2.7124 25.2945 3.09951 25.3893 3.41662C25.4936 3.76566 25.4936 8.96257 25.3893 9.31161C25.2945 9.62872 24.9073 10.0158 24.5901 10.1106C24.241 10.2149 19.0426 10.2149 18.6935 10.1106C18.3779 10.0163 17.9691 9.61117 17.8854 9.30964C17.7981 8.99546 17.7981 3.73278 17.8854 3.41859C17.9641 3.13515 18.3952 2.69055 18.6672 2.61219C18.9784 2.52254 24.2881 2.52749 24.5901 2.61768ZM3.43284 15.2933C2.87922 15.3814 2.56519 15.4758 2.1194 15.6884C1.40173 16.0306 0.742508 16.69 0.402449 17.4059C-0.00334244 18.2602 8.8109e-07 18.225 8.8109e-07 21.6435C8.8109e-07 25.0612 -0.00334236 25.0261 0.401852 25.8812C0.737673 26.5899 1.40848 27.2587 2.12591 27.6002C2.97224 28.0029 2.94119 28 6.35821 28C9.77678 28 9.74167 28.0033 10.597 27.5983C11.306 27.2625 11.9749 26.5919 12.3165 25.8747C12.7193 25.0286 12.7164 25.0596 12.7164 21.6435C12.7164 18.2274 12.7193 18.2585 12.3165 17.4124C11.993 16.733 11.3073 16.0305 10.6567 15.712C9.7917 15.2885 9.87863 15.2976 6.56716 15.2829C4.92537 15.2755 3.51493 15.2802 3.43284 15.2933ZM18.7164 15.2933C18.1628 15.3814 17.8488 15.4758 17.403 15.6884C16.6853 16.0306 16.0261 16.69 15.686 17.4059C15.2802 18.2602 15.2836 18.225 15.2836 21.6435C15.2836 25.0612 15.2802 25.0261 15.6854 25.8812C16.0213 26.5899 16.6921 27.2587 17.4095 27.6002C18.2558 28.0029 18.2248 28 21.6418 28C25.0604 28 25.0253 28.0033 25.8806 27.5983C26.5896 27.2625 27.2585 26.5919 27.6001 25.8747C28.0029 25.0286 28 25.0596 28 21.6435C28 18.2274 28.0029 18.2585 27.6001 17.4124C27.2765 16.733 26.5909 16.0305 25.9403 15.712C25.0753 15.2885 25.1622 15.2976 21.8507 15.2829C20.209 15.2755 18.7985 15.2802 18.7164 15.2933ZM9.30651 17.8971C9.6237 17.9918 10.0109 18.3789 10.1057 18.696C10.21 19.0451 10.21 24.242 10.1057 24.591C10.0109 24.9081 9.6237 25.2952 9.30651 25.39C8.95737 25.4943 3.75905 25.4943 3.40991 25.39C3.09433 25.2957 2.68555 24.8906 2.60185 24.5891C2.56078 24.4414 2.53797 23.3884 2.53797 21.6435C2.53797 19.8987 2.56078 18.8457 2.60185 18.698C2.68054 18.4146 3.11164 17.97 3.38364 17.8916C3.69487 17.8019 9.00454 17.8069 9.30651 17.8971ZM24.5901 17.8971C24.9073 17.9918 25.2945 18.3789 25.3893 18.696C25.4936 19.0451 25.4936 24.242 25.3893 24.591C25.2945 24.9081 24.9073 25.2952 24.5901 25.39C24.241 25.4943 19.0426 25.4943 18.6935 25.39C18.3779 25.2957 17.9691 24.8906 17.8854 24.5891C17.7981 24.2749 17.7981 19.0122 17.8854 18.698C17.9641 18.4146 18.3952 17.97 18.6672 17.8916C18.9784 17.8019 24.2881 17.8069 24.5901 17.8971Z" fill="white" fill-opacity="0.6"/>
</svg>
