<svg width="28" height="28" viewBox="0 0 24 28" fill="none" xmlns="http://www.w3.org/2000/svg">
<path fill-rule="evenodd" clip-rule="evenodd" d="M12.9745 0.0708933C12.8529 0.109734 12.6725 0.193103 12.5736 0.256123C12.3979 0.368048 0.946411 14.398 0.764474 14.7243C0.43558 15.314 0.707844 16.0526 1.37627 16.3839L1.69838 16.5435L5.13837 16.5602C7.03039 16.5692 8.57835 16.5817 8.57835 16.5878C8.57835 16.5939 7.75276 18.8142 6.74369 21.5216C4.76012 26.8439 4.77816 26.7837 5.02437 27.2687C5.08632 27.3907 5.25065 27.5776 5.38953 27.6838C5.82667 28.0186 6.34594 28.0896 6.87298 27.8869C7.14689 27.7814 7.98184 26.9854 15.1097 20.0342C20.1928 15.0771 23.102 12.1993 23.2098 12.0217C23.6169 11.3503 23.2413 10.5123 22.4149 10.2485C22.2318 10.19 21.3199 10.1748 17.9007 10.1729L13.616 10.1705L14.2148 5.91717C14.5441 3.57784 14.8161 1.5001 14.8191 1.29989C14.8259 0.86039 14.6907 0.587523 14.3295 0.310937C13.9366 0.0100618 13.44 -0.0779031 12.9745 0.0708933ZM10.9589 8.66607C10.7603 10.0802 10.5978 11.348 10.5978 11.4834C10.5976 11.9635 10.9582 12.4352 11.4835 12.6421C11.6254 12.6979 12.459 12.7204 15.1771 12.7416L18.6875 12.7689L14.2721 17.0769C11.8436 19.4463 9.84568 21.3849 9.83222 21.3849C9.80262 21.3849 9.69829 21.6736 10.9671 18.2441C11.9291 15.6438 12.0147 15.3811 11.9813 15.1291C11.9317 14.7549 11.6726 14.3971 11.303 14.1927L11.0038 14.0271L7.92876 13.9998L4.85375 13.9724L8.06887 10.0175C9.83718 7.84228 11.2921 6.06985 11.3019 6.07877C11.3118 6.08768 11.1574 7.25196 10.9589 8.66607Z" fill="white" fill-opacity="0.4"/>
</svg>
