<svg width="28" height="28" viewBox="0 0 24 28" fill="none" xmlns="http://www.w3.org/2000/svg"><path d="M9.33987 10.5669L10.0094 9.27626V25.4044L9.2589 24.3175C9.02536 23.9793 8.64048 23.7775 8.22948 23.7778C7.85342 23.778 7.49945 23.9474 7.26343 24.2355L4.94799 22.8914C4.38321 22.5635 3.66123 22.7256 3.29088 23.2635L3.0915 23.5531L1.91153 16.0214L6.98029 2.78716V9.99126C6.98029 10.5675 7.37422 11.0691 7.93405 11.2056C8.49388 11.3422 9.07452 11.0784 9.33987 10.5669ZM19.052 22.8914L16.7366 24.2355C16.5005 23.9474 16.1466 23.778 15.7705 23.7778C15.3595 23.7775 14.9746 23.9793 14.7411 24.3175L13.9906 25.4044V9.27626L14.6601 10.5669C14.9255 11.0784 15.5061 11.3422 16.066 11.2056C16.6258 11.0691 17.0197 10.5675 17.0197 9.99126V2.78715L22.0885 16.0214L20.9085 23.5531L20.7091 23.2635C20.3388 22.7256 19.6168 22.5635 19.052 22.8914Z" stroke="white" stroke-opacity="0.4" stroke-width="2.5" stroke-linejoin="round"/></svg>
