<svg width="19" height="19" viewBox="0 0 19 19" fill="none" xmlns="http://www.w3.org/2000/svg">
<path fill-rule="evenodd" clip-rule="evenodd" d="M1.17876 0.674495C0.786101 0.780379 0.417673 1.09177 0.217313 1.48719C0.0318594 1.85314 0.00298928 2.10777 0.00224196 3.38384L0.0015733 4.55399H9.4832H18.9649L18.9525 3.30518L18.9402 2.05637L18.8131 1.78792C18.5626 1.25906 17.9693 0.808147 17.3518 0.677248C17.1701 0.638742 16.8037 0.621868 16.1378 0.621396L15.184 0.620728L15.1837 1.51554C15.1836 2.00771 15.1661 2.4731 15.1448 2.54975C15.1235 2.62645 15.0445 2.74886 14.9693 2.82174C14.857 2.93057 14.7953 2.95732 14.6247 2.97101C14.4541 2.98469 14.393 2.9712 14.2829 2.89568C13.9852 2.69135 13.9858 2.69379 13.9714 1.60125L13.9586 0.620728H9.2417H4.52482L4.52309 1.47621C4.52104 2.50236 4.50161 2.62893 4.31781 2.81273C4.05991 3.07064 3.60554 3.01848 3.41301 2.70889C3.32931 2.57434 3.32459 2.52195 3.31287 1.59421L3.30052 0.620728L2.32955 0.623363C1.69173 0.625133 1.29687 0.642675 1.17876 0.674495ZM0.0106198 11.4274L0.0212396 17.0814L0.123032 17.3428C0.31647 17.8395 0.623579 18.1504 1.07736 18.3087C1.2697 18.3759 1.68414 18.3794 9.3234 18.3794H17.3669L17.63 18.2885C18.1671 18.1029 18.6305 17.7134 18.8538 17.2599L18.9795 17.0044L18.9898 11.3888L19 5.7733H9.5H0L0.0106198 11.4274ZM5.54369 8.02568C5.59569 8.05238 5.67534 8.12417 5.72069 8.18517C5.79692 8.28779 5.80407 8.35639 5.81583 9.09733C5.8274 9.82672 5.82158 9.91435 5.7507 10.0746C5.61323 10.3853 5.57823 10.3949 4.57867 10.3949C3.34012 10.3949 3.38559 10.441 3.38477 9.18343C3.3839 7.92723 3.33186 7.9795 4.58382 7.97808C5.19509 7.97738 5.47691 7.99134 5.54369 8.02568ZM10.2243 8.02568C10.2763 8.05238 10.3559 8.12417 10.4013 8.18521C10.4777 8.28799 10.4846 8.35583 10.496 9.10953C10.5097 10.012 10.4828 10.1723 10.294 10.3124C10.1889 10.3905 10.1351 10.3949 9.28406 10.3949C8.01665 10.3949 8.06617 10.4441 8.06534 9.18343C8.06448 7.92723 8.01244 7.9795 9.2644 7.97808C9.87566 7.97738 10.1575 7.99134 10.2243 8.02568ZM14.9886 8.03559C15.205 8.14749 15.2233 8.23788 15.2233 9.19523C15.2233 10.4561 15.2854 10.3949 14.0079 10.3949C13.1441 10.3949 13.1154 10.3923 12.9925 10.3047C12.8121 10.176 12.7851 10.0279 12.7849 9.16447C12.7846 8.33609 12.8089 8.21274 13.0015 8.06119C13.1054 7.97946 13.1467 7.97592 13.9916 7.97592C14.7027 7.97592 14.8955 7.98745 14.9886 8.03559ZM5.61492 13.3957C5.79475 13.5239 5.82232 13.6728 5.82256 14.5162C5.8228 15.3175 5.80097 15.4287 5.60843 15.6064C5.50235 15.7044 5.49874 15.7048 4.61828 15.7167C3.78297 15.728 3.72743 15.7242 3.60334 15.6475C3.39228 15.5171 3.37859 15.4399 3.39189 14.4556C3.40372 13.5752 3.40471 13.5664 3.50001 13.465C3.55291 13.4088 3.65026 13.3464 3.71634 13.3265C3.78242 13.3065 4.20819 13.2936 4.66249 13.2978C5.45441 13.3052 5.4937 13.3092 5.61492 13.3957ZM10.2707 13.3746C10.4696 13.5097 10.4837 13.5845 10.4837 14.5012C10.4837 14.9685 10.4699 15.4 10.4531 15.4602C10.4364 15.5203 10.3656 15.6043 10.2958 15.6468C10.1798 15.7176 10.0945 15.7242 9.29193 15.7243C8.00245 15.7245 8.05523 15.7789 8.07254 14.4669C8.08434 13.5744 8.08517 13.5665 8.18059 13.4651C8.23349 13.4088 8.33084 13.3464 8.39692 13.3265C8.463 13.3065 8.88877 13.2936 9.34306 13.2978C10.0579 13.3045 10.1827 13.3148 10.2707 13.3746ZM14.8722 13.3253C14.9495 13.3468 15.0557 13.4101 15.1082 13.4659L15.2036 13.5675V14.5271V15.4867L15.0945 15.5957L14.9855 15.7048H14.0259H13.0663L12.9642 15.6088C12.7996 15.4542 12.7773 15.3008 12.7914 14.4194C12.8097 13.2698 12.7868 13.2915 13.9843 13.2883C14.3953 13.2872 14.7949 13.3038 14.8722 13.3253Z" fill="white" fill-opacity="0.4"/>
</svg>
