<svg width="30" height="30" viewBox="0 0 7.9374998 7.9375002" version="1.1" id="svg2740" inkscape:version="1.1.1 (3bf5ae0d25, 2021-09-20)" xmlns:inkscape="http://www.inkscape.org/namespaces/inkscape" xmlns="http://www.w3.org/2000/svg" xmlns:svg="http://www.w3.org/2000/svg"><g inkscape:label="Слой 1" inkscape:groupmode="layer" id="layer1"> <g id="path3530" transform="matrix(0.24172485,0,0,0.24172485,0.44442513,-1.3756247)"> <path id="path7430" style="color:#000000;fill:#ffffff;fill-opacity:1;stroke-width:1.00157;stroke-linejoin:round;-inkscape-stroke:none" d="m -1.2460938,7.7558594 a 0.50083506,0.50083506 0 0 0 -0.484375,0.6289062 L 3.0332031,26.166016 a 0.50083506,0.50083506 0 0 0 0.484375,0.371093 H 25.728516 a 0.50083506,0.50083506 0 0 0 0.484375,-0.371093 L 30.953125,8.4160156 A 0.50083506,0.50083506 0 0 0 30.46875,7.7871094 Z m 7.0625,6.1718746 H 22.751953 c 0.772974,4.47e-4 1.389024,0.617651 1.388672,1.390625 -4.46e-4,0.772395 -0.616277,1.388226 -1.388672,1.388672 H 5.8164062 C 5.0440118,16.706585 4.4281805,16.090754 4.4277344,15.318359 4.427382,14.545385 5.0434322,13.928181 5.8164062,13.927734 Z m 1.5214844,6.376954 H 21.222656 c 0.773554,-3.52e-4 1.390977,0.617072 1.390625,1.390624 3.53e-4,0.773555 -0.61707,1.390978 -1.390625,1.390626 H 7.3378906 c -0.7735543,3.52e-4 -1.390978,-0.617071 -1.390625,-1.390626 -3.522e-4,-0.773552 0.6170713,-1.390976 1.390625,-1.390624 z" /></g><circle style="fill:#ffffff;fill-opacity:0.6;stroke:none;stroke-width:1.97339;stroke-linecap:round;stroke-linejoin:round;stroke-miterlimit:4;stroke-dasharray:none;stroke-opacity:1" id="path7092" cx="2.47667" cy="6.3497906" r="0.77830654" /> <circle style="fill:#ffffff;fill-opacity:0.6;stroke:none;stroke-width:1.97339;stroke-linecap:round;stroke-linejoin:round;stroke-miterlimit:4;stroke-dasharray:none;stroke-opacity:1" id="circle7256" cx="5.4782605" cy="6.3497906" r="0.77830654" /></g></svg>