<svg width="290" height="290" viewBox="0 0 76.729165 76.729169" version="1.1" id="svg5" inkscape:version="1.1.1 (3bf5ae0d25, 2021-09-20)" xmlns:inkscape="http://www.inkscape.org/namespaces/inkscape" xmlns="http://www.w3.org/2000/svg" xmlns:svg="http://www.w3.org/2000/svg"><g inkscape:label="layer 1" inkscape:groupmode="layer" id="layer1"><path style="color:#000000;fill:#ffffff;fill-opacity:0.30980399;stroke-linecap:round;stroke-linejoin:round;-inkscape-stroke:none" d="m 38.404297,0.46679688 c -20.939956,0 -37.93750012,16.99754412 -37.93750012,37.93750012 0,20.939956 16.99754412,37.9375 37.93750012,37.9375 20.939956,0 37.9375,-16.997544 37.9375,-37.9375 0,-20.939956 -16.997544,-37.93750012 -37.9375,-37.93750012 z m 0,2.02343752 c 19.847052,0 35.914062,16.0670096 35.914062,35.9140626 0,19.847052 -16.06701,35.914062 -35.914062,35.914062 -19.847053,0 -35.9140626,-16.06701 -35.9140626,-35.914062 0,-19.847053 16.0670096,-35.9140626 35.9140626,-35.9140626 z" id="layer-outer" /><path style="color:#000000;fill:#0cb754;stroke-linecap:round;stroke-linejoin:round;-inkscape-stroke:none" d="m 38.404297,0.46679688 a 1.011125,1.011125 0 0 0 -1.011719,1.01171872 1.011125,1.011125 0 0 0 1.011719,1.0117188 c 14.528996,0 27.621634,8.7468796 33.18164,22.1699216 5.560007,13.423043 2.486443,28.86512 -7.787109,39.138672 a 1.011125,1.011125 0 0 0 0,1.431641 1.011125,1.011125 0 0 0 1.431641,0 C 76.078273,54.382665 79.323914,38.060058 73.453125,23.886719 67.582336,9.7133796 53.745409,0.46679688 38.404297,0.46679688 Z" id="layer-inner" /></g></svg>
