<svg width="290" height="290" viewBox="0 0 76.729165 76.729169" version="1.1" id="svg5" inkscape:version="1.1.1 (3bf5ae0d25, 2021-09-20)" xmlns:inkscape="http://www.inkscape.org/namespaces/inkscape" xmlns="http://www.w3.org/2000/svg" xmlns:svg="http://www.w3.org/2000/svg"><g inkscape:label="layer1" inkscape:groupmode="layer" id="layer1"><path  style="color:#000000;fill:#ffffff;fill-opacity:0.31;stroke-linecap:round;stroke-linejoin:round;-inkscape-stroke:none" d="m 38.476562,0.27148438 c -21.067475,0 -38.179687,17.11221262 -38.179687,38.17968762 0,21.067475 17.112212,38.177734 38.179687,38.177734 21.067476,0 38.177735,-17.110259 38.177735,-38.177734 0,-21.067475 -17.110259,-38.17968762 -38.177735,-38.17968762 z m 0,3.05078122 c 19.419189,0 35.128907,15.7097174 35.128907,35.1289064 0,19.419188 -15.709718,35.128906 -35.128907,35.128906 -19.419188,0 -35.1289057,-15.709718 -35.1289057,-35.128906 0,-19.419189 15.7097177,-35.1289064 35.1289057,-35.1289064 z" id="layer-outer" /><path style="color:#000000;fill:#0cb754;stroke-linecap:round;stroke-linejoin:round;-inkscape-stroke:none" d="m 38.476562,0.27148438 a 1.52495,1.52495 0 0 0 -1.52539,1.52539062 1.52495,1.52495 0 0 0 1.52539,1.5253906 c 14.212672,0 27.016125,8.5547504 32.455079,21.6855464 5.438953,13.130797 2.434642,28.233327 -7.615235,38.283204 a 1.52495,1.52495 0 0 0 0,2.15625 1.52495,1.52495 0 0 0 2.15625,0 C 76.388603,54.531318 79.655715,38.102216 73.748047,23.839844 67.840379,9.5774712 53.914043,0.27148438 38.476562,0.27148438 Z" id="layer-inner" /></g></svg>
