<svg width="24" height="24" viewBox="0 0 24 24" fill="none" xmlns="http://www.w3.org/2000/svg"><path fill-rule="evenodd" clip-rule="evenodd" d="M11.052 0.0463202C7.05235 0.371475 3.48822 2.65681 1.51413 6.16193C-0.14398 9.10597 -0.45853 12.7099 0.660844 15.9377C1.25187 17.6419 2.13606 19.0655 3.42297 20.3847C7.02871 24.0812 12.5916 25.0507 17.2437 22.7934C19.754 21.5753 21.8399 19.4273 22.9515 16.9154C24.7816 12.78 24.1892 8.10013 21.3836 4.52895C20.7249 3.69052 19.4121 2.50454 18.4974 1.92162C17.4772 1.27152 16.214 0.715447 15.0949 0.423938C14.2446 0.202429 13.6796 0.107884 12.8174 0.042792C12.051 -0.0150905 11.8008 -0.0145792 11.052 0.0463202ZM13.5594 2.31412C14.5949 2.49835 15.3362 2.73372 16.2384 3.16477C20.026 4.97421 22.2418 8.98299 21.7475 13.1319C21.3424 16.5319 19.2628 19.4207 16.1691 20.8808C13.4956 22.1427 10.4368 22.1312 7.75893 20.8492C5.71453 19.8704 4.12607 18.283 3.15018 16.2432C2.71747 15.3389 2.48848 14.6177 2.29198 13.5406C2.16794 12.8609 2.16794 11.1524 2.29198 10.4726C2.48848 9.39553 2.71747 8.67435 3.15018 7.77007C4.61399 4.71057 7.48537 2.66909 10.9241 2.24294C11.4714 2.17509 13.0119 2.21671 13.5594 2.31412ZM17.1158 8.24831C16.924 8.30947 16.3907 8.77508 13.9257 11.0334C12.2978 12.5249 10.9517 13.7452 10.9342 13.7452C10.9168 13.7452 10.2799 13.1264 9.51892 12.37C8.14931 11.0089 8.13238 10.9943 7.85365 10.9373C7.03751 10.7704 6.35826 11.4952 6.57564 12.3009C6.63541 12.5224 6.79737 12.7008 8.4372 14.3518C9.62899 15.5516 10.3021 16.192 10.438 16.2553C10.7077 16.381 11.1284 16.3814 11.3739 16.2561C11.6806 16.0995 18.3173 9.99251 18.4247 9.76809C18.5841 9.4347 18.5793 9.1075 18.4102 8.78603C18.1578 8.3063 17.6263 8.0855 17.1158 8.24831Z" fill="#0CB754"/></svg>
