<svg width="14" height="10" viewBox="0 0 14 10" fill="none" xmlns="http://www.w3.org/2000/svg">
<path d="M7.54628 1.10977L13.7763 7.33994C13.9206 7.48404 14 7.6764 14 7.8815C14 8.0866 13.9206 8.27896 13.7763 8.42306L13.3176 8.88187C13.0188 9.18042 12.533 9.18042 12.2345 8.88187L7.0029 3.65023L1.76547 8.88767C1.62126 9.03177 1.42901 9.11133 1.22402 9.11133C1.0188 9.11133 0.826562 9.03177 0.682239 8.88767L0.223657 8.42886C0.0794468 8.28465 -4.45383e-08 8.09241 -5.35037e-08 7.88731C-6.24691e-08 7.6822 0.0794467 7.48985 0.223657 7.34575L6.45941 1.10977C6.60408 0.96533 6.79723 0.885997 7.00256 0.886453C7.20869 0.885997 7.40173 0.96533 7.54628 1.10977Z" fill="white" fill-opacity="0.5"/>
</svg>
