<svg width="18" height="18" viewBox="0 0 18 18" fill="none" xmlns="http://www.w3.org/2000/svg">
<path fill-rule="evenodd" clip-rule="evenodd" d="M14.5409 0.0229334C14.4443 0.0426038 14.2621 0.107842 14.1361 0.167879C13.938 0.262233 13.7877 0.396069 13.027 1.15532L12.147 2.03359L13.986 3.88289L15.825 5.73215L16.7072 4.84787C17.1924 4.36149 17.6577 3.87323 17.7411 3.76282C18.0262 3.38529 18.0795 2.89629 17.8828 2.46429C17.8097 2.30395 17.6242 2.09667 16.8709 1.33356C15.927 0.377425 15.6734 0.166463 15.3534 0.0709419C15.1161 0.000114368 14.7569 -0.0211126 14.5409 0.0229334ZM6.53296 7.67828L1.90453 12.3305L3.73482 14.1702L5.56512 16.0099L10.2111 11.34L14.8571 6.67007L13.0446 4.84805C12.0478 3.84592 11.2162 3.02603 11.1968 3.02603C11.1773 3.02603 9.07859 5.11954 6.53296 7.67828ZM0.446942 15.4656C0.122099 16.9321 -0.0137297 17.6093 0.00108868 17.6887C0.0259385 17.8218 0.137587 17.9384 0.291648 17.9924C0.386085 18.0255 0.675236 17.9639 2.47241 17.5279C3.61195 17.2515 4.55149 17.0191 4.56036 17.0114C4.57796 16.9963 0.966817 13.3565 0.934223 13.3565C0.923136 13.3565 0.703852 14.3056 0.446942 15.4656Z" fill="white" fill-opacity="0.4"/>
</svg>
