<svg width="10" height="16" viewBox="0 0 10 16" fill="none" xmlns="http://www.w3.org/2000/svg"><path d="M5.1718 5.02229L4.93892 5.6875H5.64371H9.24996C9.36185 5.6875 9.4362 5.74152 9.47276 5.80124C9.50779 5.85846 9.5097 5.91811 9.47263 5.97752L9.47142 5.97947L3.97142 14.8857C3.93227 14.9491 3.85028 15 3.74684 15C3.6559 15 3.58453 14.9608 3.54228 14.9111C3.50182 14.8635 3.4901 14.8113 3.50346 14.7583C3.50347 14.7583 3.50348 14.7582 3.50348 14.7582L4.94409 9.06005L5.10148 8.4375H4.45934H0.749964C0.564287 8.4375 0.489375 8.29642 0.501304 8.21053C0.501314 8.21045 0.501325 8.21038 0.501335 8.21031L1.50115 1.18036C1.50116 1.1803 1.50117 1.18025 1.50117 1.1802C1.51251 1.10184 1.59869 1 1.74996 1H6.24996C6.34272 1 6.4142 1.04054 6.45648 1.09217C6.49513 1.13937 6.50672 1.19026 6.49614 1.2393L5.1718 5.02229Z" stroke="#0CB754"/></svg>
