<svg width="23" height="17" viewBox="0 0 23 17" fill="none" xmlns="http://www.w3.org/2000/svg">
<path fill-rule="evenodd" clip-rule="evenodd" d="M11.1405 0.505065C8.62509 0.578344 6.11029 1.4756 4.10816 3.01404C2.39356 4.3315 0.979138 6.16292 0.158217 8.12846L0 8.50725L0.158217 8.88604C1.72987 12.649 5.09058 15.434 9.06887 16.2705C10.5315 16.578 12.4691 16.5764 13.9536 16.2664C17.9074 15.4408 21.2704 12.6484 22.8418 8.88604L23 8.50725L22.8418 8.12846C22.0222 6.166 20.6606 4.39266 18.9536 3.06404C16.7323 1.3351 13.9482 0.423246 11.1405 0.505065ZM12.4017 3.25339C13.509 3.46799 14.4151 3.95179 15.1868 4.74018C16.1822 5.75741 16.7125 7.06651 16.7125 8.50725C16.7125 9.94799 16.1822 11.2571 15.1868 12.2743C14.1912 13.2915 12.91 13.8333 11.5 13.8333C10.09 13.8333 8.80878 13.2915 7.81325 12.2743C6.81775 11.2571 6.28751 9.94799 6.28751 8.50725C6.28751 7.06651 6.81775 5.75741 7.81325 4.74018C8.80542 3.7264 10.0576 3.19242 11.4614 3.18443C11.8034 3.1825 12.1774 3.20991 12.4017 3.25339ZM10.9383 5.35896C10.2507 5.49781 9.7744 5.76039 9.27499 6.27591C8.66562 6.90494 8.38212 7.61339 8.38212 8.50725C8.38212 9.41662 8.66499 10.1128 9.29683 10.7584C9.92871 11.404 10.61 11.693 11.5 11.693C12.39 11.693 13.0713 11.404 13.7032 10.7584C14.335 10.1128 14.6179 9.41662 14.6179 8.50725C14.6179 7.59787 14.335 6.90172 13.7032 6.25608C13.1128 5.65286 12.4735 5.36241 11.6348 5.3164C11.4052 5.30382 11.1274 5.32076 10.9383 5.35896Z" fill="white" fill-opacity="0.4"/>
</svg>
