<?xml version="1.0" encoding="UTF-8" standalone="no"?>
<svg
   width="32"
   height="33"
   viewBox="0 0 32 33"
   fill="none"
   version="1.1"
   id="svg4"
   sodipodi:docname="fanclub-icon.svg"
   inkscape:version="1.1.1 (3bf5ae0d25, 2021-09-20)"
   xmlns:inkscape="http://www.inkscape.org/namespaces/inkscape"
   xmlns:sodipodi="http://sodipodi.sourceforge.net/DTD/sodipodi-0.dtd"
   xmlns="http://www.w3.org/2000/svg"
   xmlns:svg="http://www.w3.org/2000/svg">
  <defs
     id="defs8" />
  <sodipodi:namedview
     id="namedview6"
     pagecolor="#ffffff"
     bordercolor="#666666"
     borderopacity="1.0"
     inkscape:pageshadow="2"
     inkscape:pageopacity="0.0"
     inkscape:pagecheckerboard="0"
     showgrid="false"
     inkscape:zoom="6.3030303"
     inkscape:cx="-15.865385"
     inkscape:cy="21.338942"
     inkscape:window-width="1920"
     inkscape:window-height="1017"
     inkscape:window-x="-8"
     inkscape:window-y="-8"
     inkscape:window-maximized="1"
     inkscape:current-layer="svg4" />
  <path
     id="path900"
     style="color:#000000;fill:#ffffff;fill-opacity:1;stroke-linecap:round;stroke-linejoin:round;-inkscape-stroke:none"
     d="M 16.076172,0.29882812 C 12.674854,0.29296125 9.2706802,1.539276 6.6191406,4.0390625 1.3160615,9.0386354 0.84108597,17.334231 5.5390625,22.90625 5.8948065,23.329519 6.5265207,23.383766 6.9492188,23.027344 7.3718857,22.671028 7.4252532,22.039367 7.0683594,21.617188 3.0418231,16.841529 3.4450774,9.7791688 7.9902344,5.4941406 12.535391,1.2091125 19.612231,1.2208021 24.142578,5.5214844 c 4.530348,4.3006823 4.910175,11.3652136 0.867188,16.1269536 -0.357842,0.421142 -0.306233,1.052697 0.115234,1.410156 0.420854,0.35652 1.050909,0.304961 1.408203,-0.115235 C 31.250374,17.387581 30.805332,9.0881499 25.519531,4.0703125 22.876631,1.5613938 19.47749,0.30469499 16.076172,0.29882812 Z M 16.064452,6.5742188 C 14.203842,6.5710088 12.342717,7.251883 10.89453,8.6171875 7.998156,11.347796 7.7368473,15.890333 10.302733,18.933594 c 0.355744,0.423269 0.987459,0.477516 1.410157,0.121094 0.422667,-0.356316 0.476035,-0.987978 0.11914,-1.410157 -1.8944458,-2.246901 -1.704858,-5.556201 0.433594,-7.572265 2.138452,-2.016065 5.454453,-2.0097563 7.585937,0.01367 2.131486,2.023429 2.308437,5.333866 0.40625,7.574218 -0.35652,0.420854 -0.304961,1.050909 0.115235,1.408203 0.420622,0.358317 1.052127,0.307587 1.410156,-0.113281 2.57637,-3.034389 2.33225,-7.579728 -0.554687,-10.3203124 C 19.785047,7.2644734 17.925063,6.5774281 16.064453,6.5742188 Z m 0.01563,5.0546872 c -1.357192,0 -2.474609,1.115463 -2.474609,2.472656 0,1.012665 0.62232,1.892334 1.501953,2.273438 v 6.890246 c -0.694111,0.372759 -1.013672,0.990607 -1.013672,1.726562 0,1.088367 0.897961,1.98633 1.986328,1.986328 1.088367,0 1.986328,-0.897961 1.986328,-1.986328 0,-0.713298 -0.386764,-1.344764 -0.958984,-1.695312 v -6.946887 c 0.813101,-0.381271 1.445312,-1.256588 1.445312,-2.248047 0,-1.357193 -1.115464,-2.472656 -2.472656,-2.472656 z m 0,1.476563 c 0.558817,0 0.996094,0.437277 0.996094,0.996093 0,0.558817 -0.437277,0.996094 -0.996094,0.996094 -0.558817,0 -0.996094,-0.437278 -0.996094,-0.996094 0,-0.558816 0.437277,-0.996093 0.996094,-0.996093 z m -5.98318,9.916015 c -1.3571923,0 -2.4746095,1.117418 -2.4746095,2.47461 0,1.357192 1.1174172,2.472656 2.4746095,2.472656 1.357192,0 2.472656,-1.115464 2.472656,-2.472656 0,-1.357192 -1.115464,-2.47461 -2.472656,-2.47461 z m 12.09136,0 c -1.357192,0 -2.472656,1.117418 -2.472656,2.47461 0,1.357192 1.115464,2.472656 2.472656,2.472656 1.357192,0 2.472656,-1.115464 2.472656,-2.472656 0,-1.357192 -1.115464,-2.47461 -2.472656,-2.47461 z M 10.096898,24.5 c 0.558817,0 0.996094,0.437277 0.996094,0.996094 0,0.558817 -0.437277,0.996094 -0.996094,0.996094 -0.5588171,0 -0.9960941,-0.437277 -0.9960941,-0.996094 0,-0.558817 0.437277,-0.996094 0.9960941,-0.996094 z m 12.09136,0 c 0.558817,0 0.996094,0.437277 0.996094,0.996094 0,0.558817 -0.437277,0.996094 -0.996094,0.996094 -0.558817,0 -0.996094,-0.437277 -0.996094,-0.996094 0,-0.558817 0.437277,-0.996094 0.996094,-0.996094 z m -6.10818,-0.01796 c 0.289992,0 0.507813,0.219774 0.507813,0.509765 0,0.289992 -0.217821,0.509766 -0.507813,0.509766 -0.289992,0 -0.509767,-0.219774 -0.509766,-0.509766 0,-0.289991 0.219774,-0.509765 0.509766,-0.509765 z m 0,3.45741 c -1.357192,0 -2.474609,1.115464 -2.474609,2.472656 0,1.357193 1.117417,2.472657 2.474609,2.472657 1.357192,0 2.472656,-1.115464 2.472656,-2.472657 0,-1.357192 -1.115464,-2.472656 -2.472656,-2.472656 z m 0,1.476563 c 0.558817,0 0.996094,0.437276 0.996094,0.996093 0,0.558817 -0.437277,0.996094 -0.996094,0.996094 -0.558817,0 -0.996094,-0.437277 -0.996094,-0.996094 0,-0.558817 0.437277,-0.996093 0.996094,-0.996093 z"
     sodipodi:nodetypes="sscccsscccsssscccsscccssssccccccccssssssssssssssssssssssssssscccccssssssssss" />
</svg>
