<svg width="26" height="26" viewBox="0 0 26 26" fill="none" xmlns="http://www.w3.org/2000/svg">
<path fill-rule="evenodd" clip-rule="evenodd" d="M11.7613 0.059095C7.89777 0.428901 4.34429 2.55449 2.1883 5.78538C1.00284 7.56188 0.264739 9.6285 0.0551447 11.7581C0.0182561 12.1331 -0.00186501 14.1091 0.000136284 17.167C0.00359797 22.5374 -0.00694939 22.3735 0.375784 23.005C0.492021 23.1968 0.991802 23.7385 1.69961 24.4398C2.97319 25.7018 3.19181 25.8496 3.96307 25.9695C5.24525 26.1688 6.50233 25.3279 6.84677 24.0404C6.90448 23.8246 6.91924 22.8248 6.91973 19.0891C6.92043 13.9809 6.92671 14.0937 6.6078 13.4971C6.375 13.0616 5.90886 12.6288 5.42255 12.3966C5.00466 12.197 4.99314 12.1949 4.32411 12.1949C3.6559 12.1949 3.64308 12.1972 3.22843 12.3953C2.89714 12.5535 2.69528 12.7059 2.26835 13.1201L1.72784 13.6446V13.0742C1.72784 10.8638 2.39254 8.60174 3.56633 6.81734C4.96009 4.69863 7.0079 3.11723 9.37867 2.32883C13.5001 0.958269 17.9676 2.00332 20.9909 5.04512C23.1207 7.18801 24.2826 10.0443 24.2829 13.1377L24.2829 13.6479L23.8096 13.1853C23.0157 12.4093 22.5037 12.1679 21.6522 12.1679C20.6176 12.1679 19.7754 12.7102 19.3159 13.6723L19.1174 14.088L19.1012 18.929C19.083 24.349 19.0705 24.1495 19.4668 24.7586C20.2915 26.0259 21.8825 26.3765 23.1064 25.5607C23.4494 25.3322 25.4048 23.3713 25.5936 23.0667C25.6673 22.9477 25.786 22.6921 25.8572 22.4987L25.9867 22.1473L25.9857 17.0088C25.9847 11.9629 25.9825 11.8567 25.8643 11.1098C25.4027 8.19428 24.1116 5.69332 22.0203 3.66396C19.2873 1.01187 15.545 -0.303084 11.7613 0.059095ZM12.74 15.6295C12.5169 15.6995 12.2294 15.9969 12.1668 16.2222C12.091 16.4948 12.096 21.6503 12.1724 21.9309C12.3262 22.4969 13.0347 22.7357 13.5246 22.3868C13.8516 22.154 13.8438 22.2347 13.8438 19.0749V16.1865L13.7221 16.0076C13.6551 15.9093 13.5395 15.7847 13.4651 15.7307C13.3003 15.6111 12.9528 15.5626 12.74 15.6295ZM9.27833 17.3626C9.05689 17.4289 8.76806 17.7264 8.7051 17.953C8.67578 18.0584 8.65225 18.5828 8.65274 19.1183C8.6535 19.9571 8.66778 20.1232 8.75605 20.3176C9.04283 20.9492 9.97889 20.9533 10.3061 20.3245C10.3643 20.2126 10.3821 19.9135 10.3821 19.0479C10.3821 17.9645 10.377 17.9096 10.2599 17.7335C10.131 17.5395 9.73154 17.3031 9.54575 17.311C9.48511 17.3135 9.36477 17.3368 9.27833 17.3626ZM16.2507 17.3452C16.082 17.3862 15.7991 17.6204 15.7098 17.7932C15.6451 17.9182 15.6287 18.1839 15.6289 19.1021C15.6291 20.4251 15.657 20.5256 16.0761 20.7159C16.3769 20.8524 16.5814 20.8485 16.8736 20.7004C17.2861 20.4913 17.3295 20.357 17.351 19.2237C17.3627 18.6067 17.3469 18.1635 17.3082 18.0195C17.1746 17.5233 16.7174 17.2318 16.2507 17.3452Z" fill="white"/>
</svg>
