<svg width="24" height="26" viewBox="0 0 24 26" fill="none" xmlns="http://www.w3.org/2000/svg">
<path fill-rule="evenodd" clip-rule="evenodd" d="M2.22717 0.0985913C1.19356 0.369578 0.427179 1.12773 0.0933597 2.2095C0.00426668 2.49831 0 2.91574 0 11.3757C0 19.8375 0.00421593 20.2531 0.0934614 20.544C0.320461 21.2844 0.769888 21.8872 1.3971 22.2926C1.79939 22.5526 2.2639 22.6996 2.80638 22.7385L3.22543 22.7687V14.9756C3.22543 9.91046 3.24387 7.0318 3.27806 6.75208C3.42668 5.53632 3.91735 4.52556 4.77009 3.67852C5.44265 3.01047 6.16957 2.59127 7.1277 2.31901C7.51567 2.20874 7.5434 2.20813 12.889 2.1937C16.2511 2.18466 18.2605 2.16114 18.2605 2.13082C18.2605 2.01206 18.0736 1.61998 17.8657 1.30262C17.4711 0.700198 16.8763 0.284447 16.1396 0.0960516C15.7691 0.00126958 15.5199 -0.00213363 9.17293 0.000558467C2.90472 0.00319977 2.57318 0.00792363 2.22717 0.0985913ZM8.02549 4.34997C7.50038 4.42214 6.90608 4.68754 6.46473 5.04707C6.1141 5.33273 5.70505 5.93241 5.55064 6.38737L5.43498 6.728L5.42081 15.0075C5.40496 24.2286 5.3847 23.6555 5.75275 24.3911C6.00113 24.8876 6.5264 25.4129 7.02286 25.6612C7.75176 26.0259 7.36643 26.0094 14.7811 25.9934L21.4352 25.979L21.8149 25.8404C22.7558 25.497 23.4237 24.7824 23.7293 23.7922C23.8181 23.5043 23.8225 23.0975 23.8225 15.1598V6.82959L23.7103 6.47403C23.4136 5.53337 22.6698 4.7804 21.7145 4.45364L21.3844 4.34067L14.7811 4.33488C11.1493 4.33168 8.1093 4.33849 8.02549 4.34997ZM19.0539 8.76602C19.3094 8.88726 19.4456 9.10918 19.4688 9.44219C19.492 9.77448 19.3676 10.0062 19.0731 10.1793C18.8983 10.2819 18.8279 10.2838 14.7146 10.2975C11.9568 10.3066 10.4675 10.2934 10.3391 10.2589C10.0771 10.1883 9.79973 9.87744 9.75325 9.60234C9.70764 9.33227 9.88003 8.96239 10.1283 8.79791L10.3009 8.68358H14.5905C18.443 8.68358 18.8978 8.69196 19.0539 8.76602ZM19.1076 13.1327C19.6063 13.5023 19.6063 14.1253 19.1076 14.4948C18.9651 14.6004 18.937 14.6012 14.6716 14.6147L10.3789 14.6282L10.1774 14.515C9.62129 14.2024 9.61255 13.4281 10.1617 13.1158L10.362 13.0018L14.6631 13.0141C18.9381 13.0264 18.9651 13.0271 19.1076 13.1327ZM19.0539 16.8931C19.3094 17.0143 19.4456 17.2363 19.4688 17.5693C19.492 17.9016 19.3676 18.1333 19.0731 18.3063C18.8983 18.409 18.8279 18.4109 14.7146 18.4245C11.9568 18.4336 10.4675 18.4205 10.3391 18.3859C10.0771 18.3154 9.79973 18.0045 9.75325 17.7294C9.70764 17.4593 9.88003 17.0895 10.1283 16.925L10.3009 16.8107H14.5905C18.443 16.8107 18.8978 16.819 19.0539 16.8931ZM19.1076 21.2598C19.6063 21.6293 19.6063 22.2524 19.1076 22.6219C18.9651 22.7275 18.937 22.7283 14.6716 22.7417L10.3789 22.7553L10.1774 22.6421C9.62129 22.3295 9.61255 21.5552 10.1617 21.2429L10.362 21.1289L14.6631 21.1412C18.9381 21.1535 18.9651 21.1542 19.1076 21.2598Z" fill="white"/>
</svg>
