<svg width="26" height="24" viewBox="0 0 26 24" fill="none" xmlns="http://www.w3.org/2000/svg">
<path fill-rule="evenodd" clip-rule="evenodd" d="M7.1229 0.0313689L6.25592 0.0596095L5.87775 0.247694C5.20436 0.58267 4.73628 1.09918 4.46093 1.81119L4.33296 2.1421L4.33179 8.56734C4.33057 15.6224 4.30841 15.1224 4.65324 15.8306C4.91625 16.3707 5.28318 16.7218 5.90972 17.0326L6.40483 17.2782L14.2617 17.2954C19.0347 17.3058 22.5049 17.2927 23.103 17.2619L24.0875 17.2114L24.4619 17.0265C24.9839 16.7686 25.4333 16.3071 25.7145 15.74C25.9209 15.3237 25.9292 15.2878 25.9628 14.6684C26.0158 13.6905 26.0107 3.46184 25.9568 2.6263C25.9116 1.92664 25.9003 1.87326 25.7209 1.50887C25.4721 1.00359 24.9533 0.481288 24.4563 0.235504L24.1005 0.0596095L22.3726 0.0275594C20.2812 -0.011246 8.33902 -0.00824924 7.1229 0.0313689ZM22.5739 2.15063C23.7592 2.19203 23.7424 2.18263 23.7931 2.83298C23.8114 3.06759 23.8194 4.84675 23.811 6.78666L23.7956 10.3138L22.7312 9.07232C21.195 7.28052 20.2321 6.19996 20.0453 6.05835C19.5597 5.69026 18.7737 5.629 18.1685 5.91207C17.7756 6.09583 17.637 6.2478 15.1349 9.24009L13.4893 11.208L12.7195 10.4563C11.7382 9.49771 11.6162 9.43081 10.8497 9.43081C10.2418 9.43081 10.0725 9.47805 9.72607 9.74431C9.60973 9.83375 8.83419 10.5818 8.00258 11.4066L6.49062 12.9063L6.49286 8.00675C6.49407 5.31195 6.51456 2.93893 6.53839 2.73327C6.60034 2.19878 6.60095 2.19843 7.49598 2.1648C8.59868 2.12346 21.4493 2.11137 22.5739 2.15063ZM9.13505 3.31546C8.59146 3.46143 8.05498 3.92679 7.77617 4.4942C7.64561 4.75994 7.63412 4.83065 7.63412 5.36849C7.63412 5.92548 7.64205 5.96977 7.79853 6.28742C8.2352 7.1739 9.22242 7.68731 10.1297 7.49984C11.0355 7.31272 11.7333 6.58624 11.8736 5.68436C11.9748 5.03422 11.7363 4.35355 11.2312 3.85091C10.8861 3.5075 10.6036 3.36041 10.1498 3.28777C9.71534 3.21824 9.47226 3.22489 9.13505 3.31546ZM1.67449 10.8847C0.612969 14.4331 0.123551 16.1282 0.0312066 16.5763C-0.137117 17.393 0.394129 18.497 1.17572 18.9548C1.50566 19.148 2.15131 19.3302 9.19807 21.2181C19.4447 23.9633 18.9809 23.8486 19.5048 23.7675C20.2956 23.6452 21.0347 23.1201 21.3284 22.472C21.4076 22.2973 21.6481 21.6058 21.8629 20.9353C22.0777 20.2648 22.3062 19.5539 22.3706 19.3554L22.4877 18.9945L21.9521 18.9618C21.6576 18.9437 18.1554 18.928 14.1696 18.9268C10.1837 18.9255 6.6932 18.9055 6.41276 18.8823C4.90471 18.7573 3.57881 17.7798 3.00492 16.3699C2.91263 16.1431 2.81037 15.8091 2.77774 15.6275C2.73785 15.4054 2.71066 14.1168 2.69475 11.6911C2.68169 9.70763 2.65496 8.01909 2.63529 7.93874C2.60683 7.82262 2.40964 8.42726 1.67449 10.8847Z" fill="white"/>
</svg>
