<svg width="28" height="26" viewBox="0 0 28 26" fill="none" xmlns="http://www.w3.org/2000/svg">
<path fill-rule="evenodd" clip-rule="evenodd" d="M5.67228 0.101324C5.56839 0.157092 5.40901 0.294521 5.31811 0.406769L5.15288 0.610891L5.13737 3.47351L5.12186 6.33613H3.52384C1.737 6.33613 1.50234 6.36847 1.01266 6.68184C0.640355 6.92021 0.395976 7.20539 0.187922 7.64449L0.0184302 8.0021L0.00313604 12.9924C-0.00691439 16.2645 0.0072873 18.0879 0.0443755 18.2885C0.186665 19.0584 0.733321 19.6755 1.50961 19.9426C1.77938 20.0355 1.98307 20.0462 3.46616 20.0462H5.12164L5.13726 22.7177L5.15288 25.3891L5.31811 25.5932C5.40901 25.7055 5.56839 25.8429 5.67228 25.8987C5.8539 25.9961 6.17655 26 13.9743 26C21.7721 26 22.0947 25.9961 22.2763 25.8987C22.3802 25.8429 22.5396 25.7055 22.6305 25.5932L22.7957 25.3891L22.8114 22.7177L22.827 20.0462H24.4825C25.9656 20.0462 26.1692 20.0355 26.439 19.9426C27.2153 19.6755 27.762 19.0584 27.9042 18.2885C27.9413 18.0879 27.9555 16.2645 27.9455 12.9924L27.9302 8.0021L27.7607 7.64449C27.5526 7.20539 27.3083 6.92021 26.936 6.68184C26.4463 6.36847 26.2116 6.33613 24.4248 6.33613H22.8268L22.8113 3.47351L22.7957 0.610891L22.6305 0.406769C22.5396 0.294521 22.3802 0.157092 22.2763 0.101324C22.0947 0.00393275 21.7721 0 13.9743 0C6.17655 0 5.8539 0.00393275 5.67228 0.101324ZM20.9659 4.09664V6.33613H13.9743H6.98272V4.09664V1.85714H13.9743H20.9659V4.09664ZM22.2385 10.015C22.6603 10.1912 22.9133 10.7313 22.773 11.1563C22.7015 11.373 22.4247 11.6575 22.205 11.7404C22.1115 11.7756 21.5162 11.7983 20.6875 11.7983C19.1859 11.7983 19.0766 11.7794 18.8209 11.4756C18.5202 11.1182 18.515 10.6274 18.8083 10.279C19.0768 9.95991 19.1664 9.9438 20.6809 9.94243C21.7195 9.9415 22.1056 9.95947 22.2385 10.015ZM20.9659 20.3193V24.1429H13.9743H6.98272V20.3193V16.4958H13.9743H20.9659V20.3193ZM9.57725 17.9934C9.37368 18.0843 9.13859 18.3309 9.06184 18.534C8.9071 18.9435 9.09909 19.4389 9.49314 19.6473L9.73101 19.7731H13.9743H18.2176L18.4555 19.6473C18.8646 19.431 19.0491 18.9206 18.8697 18.5014C18.7787 18.2888 18.5361 18.0531 18.3269 17.9741C18.0786 17.8803 9.78968 17.8986 9.57725 17.9934ZM9.49314 20.9913C9.08407 21.2076 8.89956 21.718 9.07894 22.1373C9.16988 22.3498 9.41251 22.5855 9.62177 22.6646C9.72555 22.7038 11.1405 22.7227 13.9743 22.7227C16.8081 22.7227 18.2231 22.7038 18.3269 22.6646C18.5361 22.5855 18.7787 22.3498 18.8697 22.1373C19.0491 21.718 18.8646 21.2076 18.4555 20.9913L18.2176 20.8655H13.9743H9.73101L9.49314 20.9913Z" fill="white"/>
</svg>
