<svg width="27" height="16" viewBox="0 0 27 16" fill="none" xmlns="http://www.w3.org/2000/svg">
<path fill-rule="evenodd" clip-rule="evenodd" d="M2.94002 0.0740302C1.94783 0.346313 1.11427 1.22374 0.903685 2.21751C0.795777 2.72668 0.795777 12.4998 0.903685 13.009C1.11681 14.0149 1.9527 14.8862 2.96236 15.1549C3.3913 15.269 15.7995 15.2669 16.2383 15.1527C17.1679 14.9105 17.9439 14.1741 18.2505 13.2431L18.3737 12.869V7.61325C18.3737 2.66575 18.3683 2.33964 18.2808 2.05283C17.9827 1.07491 17.2033 0.317876 16.243 0.0733193C15.9798 0.00628951 15.1089 -0.00315563 9.5654 0.000754436C4.37359 0.00446138 3.144 0.0180705 2.94002 0.0740302ZM24.5616 1.58697C24.4738 1.61978 23.3711 2.24072 22.1112 2.96687L19.8206 4.28715L19.8334 7.60548L19.8463 10.9238L22.0807 12.2036C23.3095 12.9074 24.4073 13.52 24.52 13.565C24.8647 13.7022 25.1601 13.7239 25.5003 13.6367C26.0293 13.5012 26.4675 13.138 26.6947 12.6467C26.8027 12.4131 26.8033 12.3902 26.8172 7.74645C26.8326 2.61192 26.838 2.71236 26.5244 2.25661C26.1844 1.76242 25.7033 1.517 25.0875 1.5235C24.8861 1.52563 24.6494 1.55417 24.5616 1.58697Z" fill="white"/>
</svg>
