<svg width="24" height="25" viewBox="0 0 24 25" fill="none" xmlns="http://www.w3.org/2000/svg">
<path fill-rule="evenodd" clip-rule="evenodd" d="M10.8484 0.529802C5.77825 1.05359 1.56145 4.69674 0.335459 9.61266C0.0634653 10.7033 0 11.2495 0 12.5004C0 13.3316 0.0211394 13.7429 0.0857322 14.1673C0.764966 18.6302 3.71824 22.2422 7.98286 23.8259C8.54174 24.0334 9.68623 24.3128 10.3787 24.4106C11.2237 24.53 12.7774 24.5298 13.62 24.4102C18.0418 23.7825 21.7675 20.7649 23.31 16.562C23.5468 15.9167 23.8101 14.8583 23.9172 14.1203C24.0168 13.4337 24.0296 11.6456 23.9389 11.0683C23.7613 9.93721 23.5316 9.06314 23.1801 8.18137C23.0241 7.78986 22.646 6.98129 22.5902 6.91974C22.582 6.91072 22.484 6.99139 22.3725 7.09906C22.261 7.20673 22.0112 7.39243 21.8175 7.5117C21.6237 7.63096 21.4566 7.73483 21.4463 7.74253C21.4359 7.75018 21.5247 7.96594 21.6436 8.22194C22.4979 10.0617 22.7922 12.071 22.4972 14.0499C21.876 18.2172 18.7518 21.6927 14.6703 22.7568C13.6711 23.0174 13.1036 23.0866 11.9759 23.0858C10.9199 23.0851 10.3776 23.0231 9.4988 22.803C5.69473 21.8501 2.71228 18.9163 1.73874 15.1694C1.4706 14.1373 1.4092 13.6402 1.4092 12.5004C1.4092 11.3606 1.4706 10.8635 1.73874 9.83142C2.68217 6.20048 5.5646 3.27635 9.18076 2.28179C11.5869 1.62005 14.0656 1.82257 16.2865 2.86239C16.5387 2.98044 16.7514 3.06848 16.7592 3.05801C16.767 3.04753 16.871 2.88047 16.9903 2.68678C17.1096 2.49309 17.2954 2.24343 17.4032 2.13196C17.5109 2.02049 17.5903 1.92057 17.5797 1.90991C17.569 1.89925 17.2973 1.76482 16.976 1.61118C15.991 1.14022 14.8267 0.788712 13.6117 0.595445C13.0562 0.507028 11.4402 0.468666 10.8484 0.529802ZM19.3277 2.53746C18.815 2.70866 18.4797 2.96471 18.1982 3.39989C17.5122 4.46079 17.9295 5.88621 19.0869 6.43558C19.9204 6.83127 20.9271 6.62566 21.5417 5.93415C22.4732 4.88611 22.1465 3.25461 20.8839 2.64912C20.5702 2.49872 20.4926 2.48154 20.0618 2.46712C19.6928 2.45473 19.5281 2.4705 19.3277 2.53746ZM11.1471 4.79995C8.16593 5.14417 5.67669 7.13211 4.70202 9.94707C4.38827 10.8531 4.31869 11.3125 4.31874 12.4769C4.31883 13.3011 4.33622 13.5906 4.4048 13.9091C4.4887 14.2985 4.62263 14.8099 4.64847 14.8394C4.65556 14.8475 4.79565 14.7623 4.95978 14.65C5.12392 14.5377 5.40202 14.3833 5.57776 14.3068C5.84778 14.1893 5.89325 14.1531 5.87099 14.0736C5.66946 13.3532 5.63197 12.0856 5.78906 11.3012C6.05532 9.9713 6.57991 8.98956 7.53339 8.03647C8.47724 7.09309 9.43918 6.5748 10.8028 6.27504C11.3279 6.15963 12.6708 6.15963 13.1959 6.27504C14.5595 6.5748 15.5215 7.09309 16.4653 8.03647C17.4091 8.97989 17.9277 9.94139 18.2276 11.3044C18.3431 11.8295 18.343 13.1712 18.2275 13.6978C17.9292 15.0568 17.4126 16.0128 16.4632 16.9627C15.2195 18.207 13.7886 18.8005 12.0228 18.8043C11.3934 18.8056 10.6995 18.7266 10.4286 18.6227C10.3813 18.6046 10.3141 18.6985 10.2008 18.9412C10.1124 19.1305 9.94333 19.4156 9.82505 19.5746L9.61004 19.8638L9.97086 19.9605C10.7117 20.1592 11.1934 20.2197 12.0228 20.2185C12.9114 20.2172 13.4485 20.1422 14.2283 19.9108C16.8795 19.1237 18.9314 16.9339 19.5438 14.2381C20.3484 10.6961 18.6178 7.09328 15.3597 5.52709C14.3538 5.0436 13.3597 4.80671 12.2108 4.7768C11.8232 4.7667 11.3445 4.77713 11.1471 4.79995ZM11.2716 9.05676C10.1647 9.29379 9.15939 10.1314 8.73825 11.1674C7.91226 13.1992 9.14873 15.5022 11.3046 15.9473C12.4605 16.186 13.6467 15.8226 14.4854 14.973C15.1324 14.3177 15.4455 13.6165 15.5062 12.6873C15.6366 10.6932 13.9818 8.96153 11.9661 8.98261C11.7648 8.98468 11.4523 9.01807 11.2716 9.05676ZM6.33807 15.4961C5.79578 15.6835 5.35166 16.0711 5.1211 16.5583C4.26397 18.3693 6.1295 20.2315 7.94227 19.3743C8.73834 18.9979 9.24747 18.0296 9.10043 17.1718C8.96091 16.3576 8.43276 15.7349 7.6863 15.5044C7.29968 15.385 6.67057 15.3811 6.33807 15.4961Z" fill="white"/>
</svg>
