<svg width="32" height="33" viewBox="0 0 32 33" fill="none" xmlns="http://www.w3.org/2000/svg"><path fill-rule="evenodd" clip-rule="evenodd" d="M14.4823 0.989361C10.747 1.37252 7.32585 2.99219 4.69513 5.62298C-1.56504 11.8831 -1.56504 22.0034 4.69513 28.2635C7.22629 30.7947 10.34 32.322 14.0442 32.8493C14.7876 32.9551 17.246 32.9534 18.0178 32.8465C21.651 32.3435 24.8025 30.7925 27.3335 28.2614C29.8668 25.7281 31.3946 22.6155 31.9214 18.9144C32.0262 18.1782 32.0262 15.7082 31.9214 14.9721C31.3938 11.2654 29.8685 8.15583 27.3356 5.62298C24.8557 3.143 21.7608 1.59567 18.2369 1.0739C17.4716 0.960576 15.2504 0.910577 14.4823 0.989361ZM16.7716 3.64837C17.3971 3.96538 18.1925 4.91023 18.7266 5.97072L18.9521 6.41852L18.6144 6.67902C18.0394 7.12269 17.586 7.8116 17.3556 8.59193C17.2098 9.08554 17.2105 10.0235 17.3569 10.5259C17.7742 11.9581 18.991 13.0351 20.4088 13.2275C20.6982 13.2668 20.704 13.272 20.7382 13.5253C20.7787 13.8252 20.8964 15.3279 20.8964 15.5443V15.6917H16.0154H11.1344L11.1346 15.5509C11.1354 15.148 11.2781 13.5408 11.3878 12.6991C11.7294 10.0797 12.3588 7.84195 13.2454 6.09474C13.991 4.62551 14.7805 3.76395 15.6399 3.48154C15.9068 3.39381 16.4181 3.46921 16.7716 3.64837ZM11.0751 4.81899C10.0401 6.76388 9.26786 9.49754 8.88746 12.5629C8.77006 13.5088 8.63221 15.1019 8.63158 15.5196L8.63133 15.6917H5.59185H2.55238L2.59362 15.3319C3.09166 10.9835 5.86488 6.97551 9.7736 4.95466C10.2253 4.72112 11.2832 4.24786 11.3682 4.24129C11.3764 4.24066 11.2445 4.50067 11.0751 4.81899ZM21.9289 4.8041C25.1955 6.38898 27.6899 9.22808 28.8371 12.6669C29.0843 13.4082 29.3539 14.6054 29.4371 15.3319L29.4784 15.6917H26.4457H23.4131L23.3703 14.9877C23.3468 14.6005 23.2885 13.8991 23.2409 13.429L23.1541 12.5744L23.574 12.1458C24.4649 11.2367 24.8203 10.0246 24.5584 8.78855C24.2699 7.42688 23.1601 6.26764 21.8631 5.9731L21.4971 5.88999L21.0818 5.07193L20.6666 4.25386L20.8597 4.31644C20.9659 4.35086 21.447 4.57031 21.9289 4.8041ZM21.3773 8.4368C21.7793 8.58868 22.1451 9.12346 22.1451 9.55918C22.1451 9.9949 21.7793 10.5297 21.3773 10.6816C21.1186 10.7793 20.6686 10.7627 20.4396 10.6469C19.9649 10.4072 19.7498 10.0679 19.7498 9.55918C19.7498 9.05775 19.9671 8.70782 20.427 8.46865C20.6436 8.35595 21.1211 8.34 21.3773 8.4368ZM8.66043 18.8988C8.68396 19.286 8.74222 19.9873 8.7899 20.4574L8.87663 21.3121L8.45674 21.7406C7.5659 22.6497 7.21046 23.8619 7.47235 25.0979C7.76064 26.4587 8.87338 27.6194 10.1725 27.9145L10.5337 27.9965L10.9489 28.8145L11.3642 29.6326L11.1711 29.5687C10.773 29.4369 9.45565 28.7796 8.90348 28.4371C5.77039 26.4941 3.48652 23.2266 2.78729 19.6864C2.70344 19.2618 2.61627 18.7525 2.59362 18.5546L2.55238 18.1948H5.58503H8.61763L8.66043 18.8988ZM20.8667 18.8675C20.6543 22.2923 19.9818 25.2845 18.9284 27.4912C18.2573 28.8973 17.4961 29.8661 16.7645 30.2459C16.4911 30.3878 16.3402 30.4236 16.0154 30.4236C15.6906 30.4236 15.5396 30.3878 15.2662 30.2459C14.6282 29.9147 13.8384 28.9767 13.3038 27.9151L13.078 27.4667L13.3875 27.2308C14.7458 26.1948 15.1869 24.2207 14.406 22.6717C13.8734 21.6152 12.766 20.8142 11.6235 20.6592C11.3447 20.6213 11.3287 20.6083 11.2946 20.3926C11.2574 20.157 11.1348 18.5821 11.1345 18.3356L11.1344 18.1948H16.0214H20.9084L20.8667 18.8675ZM29.4371 18.5546C28.9798 22.5468 26.59 26.2897 23.1273 28.4371C22.5711 28.782 21.2577 29.4368 20.8526 29.5712L20.6524 29.6376L20.9576 29.0631C21.9864 27.1263 22.7618 24.38 23.1427 21.3236C23.2604 20.3791 23.3986 18.7869 23.3992 18.3668L23.3994 18.1948H26.4389H29.4784L29.4371 18.5546ZM11.5912 23.2395C12.0659 23.4793 12.281 23.8186 12.281 24.3273C12.281 24.836 12.0659 25.1753 11.5912 25.4151C11.3621 25.5308 10.9122 25.5474 10.6535 25.4497C10.2579 25.3002 9.88706 24.7657 9.88424 24.3409C9.88142 23.9167 10.2144 23.4003 10.6025 23.227C10.8611 23.1116 11.3503 23.1178 11.5912 23.2395Z" fill="white" fill-opacity="0.4"/></svg>
