<svg width="32" height="32" viewBox="0 0 92 92" fill="none" version="1.1" id="svg6" inkscape:version="1.1.1 (3bf5ae0d25, 2021-09-20)" xmlns:inkscape="http://www.inkscape.org/namespaces/inkscape" xmlns="http://www.w3.org/2000/svg" xmlns:svg="http://www.w3.org/2000/svg"><g id="g4" style="fill:#ffffff;fill-opacity:1" transform="matrix(2.8626885,0,0,2.8626885,-85.683624,-85.683698)"><path fill-rule="evenodd" clip-rule="evenodd" d="m 44.736,30.0618 c -5.3329,0.4335 -10.085,3.4806 -12.7172,8.1541 -2.2108,3.9254 -2.6302,8.7306 -1.1377,13.0344 0.7881,2.2722 1.967,4.1704 3.6829,5.9293 4.8076,4.9287 12.2248,6.2213 18.4277,3.2115 3.347,-1.624 6.1281,-4.4881 7.6103,-7.8372 C 63.0421,47.04 62.2523,40.8002 58.5114,36.0386 57.6332,34.9207 55.8828,33.3394 54.6633,32.5622 53.303,31.6954 51.6186,30.9539 50.1265,30.5653 48.9929,30.2699 48.2394,30.1438 47.0899,30.0571 46.068,29.9799 45.7343,29.9806 44.736,30.0618 Z m 3.3432,3.0237 c 1.3807,0.2456 2.369,0.5595 3.572,1.1342 5.0502,2.4126 7.997,7.7428 7.3471,13.2895 -0.5705,4.8701 -3.8179,9.0237 -8.3946,10.7372 -5.7614,2.157 -12.1941,0.0544 -15.569,-5.0889 -0.9748,-1.4856 -1.6243,-3.1607 -1.9787,-5.1033 -0.1654,-0.9064 -0.1654,-3.1843 0,-4.0907 0.262,-1.4361 0.5673,-2.3977 1.1442,-3.6034 1.9518,-4.0793 5.7803,-6.8013 10.3652,-7.3695 0.7297,-0.0905 2.7838,-0.035 3.5138,0.0949 z m -2.6268,4.3053 c -0.7324,0.3171 -1.0873,1.1893 -0.7813,1.9209 0.434,1.0382 1.8575,1.1717 2.515,0.2359 0.2738,-0.3898 0.3279,-1.0186 0.1219,-1.4188 -0.3664,-0.7121 -1.1736,-1.0331 -1.8556,-0.738 z m 0,4.3634 c -0.3084,0.1335 -0.593,0.4057 -0.7568,0.7237 -0.1249,0.2428 -0.1302,0.4742 -0.1302,5.7126 0,5.2385 0.0053,5.4699 0.1302,5.7126 0.5717,1.1105 2.0877,1.099 2.6061,-0.0198 0.1196,-0.2581 0.1264,-0.563 0.1278,-5.7125 0.0015,-5.2207 -0.0037,-5.4501 -0.1286,-5.6929 -0.3593,-0.6977 -1.1727,-1.0162 -1.8485,-0.7237 z" fill="white" id="path2" style="fill:#ffffff;fill-opacity:1" /></g></svg> 