<svg width="20" height="20" viewBox="0 0 20 20" fill="none" xmlns="http://www.w3.org/2000/svg"><path d="M10.25 6.87531C8.52968 6.87531 7.12577 8.27921 7.12577 9.99953C7.12577 11.7198 8.52968 13.1237 10.25 13.1237C11.9703 13.1237 13.3742 11.7198 13.3742 9.99953C13.3742 8.27921 11.9703 6.87531 10.25 6.87531ZM19.6203 9.99953C19.6203 8.70578 19.632 7.42374 19.5594 6.13234C19.4867 4.63234 19.1445 3.30109 18.0476 2.20421C16.9484 1.10499 15.6195 0.76515 14.1195 0.692494C12.8258 0.619838 11.5437 0.631557 10.2523 0.631557C8.95858 0.631557 7.67655 0.619838 6.38515 0.692494C4.88515 0.76515 3.5539 1.10734 2.45702 2.20421C1.3578 3.30343 1.01796 4.63234 0.945302 6.13234C0.872645 7.42609 0.884364 8.70812 0.884364 9.99953C0.884364 11.2909 0.872645 12.5753 0.945302 13.8667C1.01796 15.3667 1.36015 16.698 2.45702 17.7948C3.55624 18.8941 4.88515 19.2339 6.38515 19.3066C7.6789 19.3792 8.96093 19.3675 10.2523 19.3675C11.5461 19.3675 12.8281 19.3792 14.1195 19.3066C15.6195 19.2339 16.9508 18.8917 18.0476 17.7948C19.1469 16.6956 19.4867 15.3667 19.5594 13.8667C19.6344 12.5753 19.6203 11.2933 19.6203 9.99953ZM10.25 14.8066C7.58983 14.8066 5.44296 12.6597 5.44296 9.99953C5.44296 7.33937 7.58983 5.19249 10.25 5.19249C12.9101 5.19249 15.057 7.33937 15.057 9.99953C15.057 12.6597 12.9101 14.8066 10.25 14.8066ZM15.2539 6.11828C14.6328 6.11828 14.1312 5.61671 14.1312 4.99562C14.1312 4.37453 14.6328 3.87296 15.2539 3.87296C15.875 3.87296 16.3766 4.37453 16.3766 4.99562C16.3767 5.1431 16.3478 5.28917 16.2915 5.42546C16.2351 5.56175 16.1524 5.68559 16.0481 5.78987C15.9439 5.89416 15.82 5.97684 15.6837 6.0332C15.5474 6.08955 15.4014 6.11846 15.2539 6.11828Z" fill="white"/></svg>
