<svg width="32" height="33" viewBox="0 0 32 33" fill="none" xmlns="http://www.w3.org/2000/svg"><path fill-rule="evenodd" clip-rule="evenodd" d="M18.3891 1.01013C18.0859 1.11832 17.73 1.45409 17.5772 1.77598C17.5144 1.90845 17.4694 2.14898 17.4702 2.34853C17.4726 2.95957 17.7682 3.43439 18.3031 3.68638C18.579 3.81641 18.6688 3.81966 22.7929 3.85032L27.0012 3.88161L19.4567 11.4218C14.9334 15.9425 11.8586 19.0623 11.7783 19.2124C11.5132 19.7085 11.6207 20.3805 12.0371 20.8294C12.4517 21.2763 13.1895 21.4129 13.7038 21.1379C13.8539 21.0576 16.9737 17.9828 21.4944 13.4595L29.0346 5.91497L29.0659 10.1233C29.0947 14.004 29.1059 14.351 29.21 14.5819C29.4552 15.1258 29.9588 15.4468 30.5677 15.4472C30.9764 15.4475 31.2836 15.3156 31.5915 15.0076C32.0295 14.5697 32.0112 14.8866 31.9924 8.06503L31.9756 1.93191L31.7863 1.62567C31.6689 1.43588 31.4803 1.24735 31.2905 1.12996L30.9843 0.940606L24.8158 0.92928C19.522 0.919581 18.6106 0.931032 18.3891 1.01013ZM0.957829 6.82199C0.61054 6.95039 0.350668 7.16628 0.165948 7.47965L0 7.76124V19.843V31.9248L0.189351 32.2312C0.306741 32.421 0.495215 32.6095 0.685066 32.7269L0.991369 32.9162H13.0732H25.155L25.4409 32.7481C25.763 32.5588 26.0178 32.224 26.1228 31.8524C26.1741 31.6709 26.1883 29.5298 26.1748 24.0619L26.1562 16.5217L26.0214 16.2714C25.8484 15.9497 25.6617 15.7784 25.3114 15.6196C24.4605 15.2338 23.4846 15.7523 23.308 16.6839C23.2702 16.8831 23.2465 19.5131 23.2465 23.5073V30.0065H13.0781H2.90972V19.8381V9.66976H9.40896C13.4031 9.66976 16.0331 9.64604 16.2323 9.60825C17.164 9.4316 17.6824 8.45569 17.2966 7.6048C17.1378 7.25451 16.9665 7.06785 16.6448 6.89476L16.3945 6.76004L8.79173 6.74828C2.49885 6.73858 1.14912 6.75128 0.957829 6.82199Z" fill="white" fill-opacity="0.4"/></svg>
