<svg width="82" height="36" viewBox="0 0 103.61953 45.640625" fill="none" version="1.1" id="svg14" inkscape:version="1.1.1 (3bf5ae0d25, 2021-09-20)" xmlns:inkscape="http://www.inkscape.org/namespaces/inkscape" xmlns="http://www.w3.org/2000/svg" xmlns:svg="http://www.w3.org/2000/svg"><g id="g2148" transform="translate(-70.575096,-21.863563)"> <path id="path2-0" style="fill:#ffffff;fill-opacity:1" d="M 3.7593814,0 C 1.9873414,0 0.49180328,1.4621256 0.49180328,3.1972656 V 20.617188 c 0,1.7692 1.46078802,3.199218 3.26757812,3.199218 h 1.4941407 c 1.80679,0 3.265625,-1.430019 3.265625,-3.199218 V 12.009766 H 4.7320377 v 2.076172 h 1.4941406 v 6.53125 c 0,0.544298 -0.4514662,0.953124 -0.9726562,0.953124 H 3.7593814 c -0.52118,0 -0.9726562,-0.408826 -0.9726562,-0.953124 V 3.1972656 c 0,-0.51034 0.4514762,-0.9511718 0.9726562,-0.9511718 h 1.4941407 c 0.55593,0 1.0041158,0.4418024 0.9726562,0.9511718 V 5.8515625 H 8.5191471 V 3.1972656 C 8.5191471,1.4280756 7.060312,0 5.2535221,0 Z M 21.066406,0 17.765625,23.816406 h 2.328125 l 1.007812,-7.009765 h 4.064454 l 1.042968,7.009765 h 2.292969 L 25.201172,0 Z m 17.199219,0 v 23.816406 h 6.601563 V 21.570312 H 40.558594 V 0 Z m 19.271484,0 -3.300781,23.816406 h 2.328125 l 1.007813,-7.009765 h 4.064453 l 1.042969,7.009765 h 2.292968 L 61.671875,0 Z m 16.78711,0 3.335937,11.056641 -3.71875,12.759765 h 2.398438 l 3.300781,-11.363281 3.335937,11.363281 h 2.363282 L 81.585938,11.056641 84.992188,0 H 82.59375 L 79.640625,9.6621094 76.6875,0 Z m 19.548828,0 3.890625,12.962891 v 8.607421 h -1.980469 v 2.246094 h 6.253907 v -2.246094 h -1.97852 V 12.929688 L 104.05273,0 h -2.36132 L 98.910156,9.4921875 96.234375,0 Z M 23.046875,2.2109375 h 0.173828 L 24.923828,14.732422 H 21.34375 Z m 36.470703,0 h 0.173828 L 61.394531,14.732422 H 57.814453 Z M 2.90625,28.40625 c -1.28202,0 -2.36328125,1.034253 -2.36328125,2.314453 v 12.605469 c 0,1.2802 1.08126125,2.314453 2.36328125,2.314453 h 1.6601562 c 1.30716,0 2.3613282,-1.034253 2.3613282,-2.314453 V 30.720703 c 0,-1.2802 -1.0541681,-2.314453 -2.3613282,-2.314453 z m 11.337891,0 v 17.234375 h 1.658203 v -7.830078 l -0.476563,-6.375 0.175781,-0.05078 3.494141,14.255859 h 2.236328 V 28.40625 h -1.658203 v 7.830078 l 0.478516,6.128906 -0.175782,0.04883 -3.470703,-14.007812 z m 14.388671,0 v 17.234375 h 4.775391 v -1.625 H 30.291016 V 28.40625 Z m 11.833985,0 v 1.625 h 1.433594 v 13.984375 h -1.433594 v 1.625 h 4.525391 v -1.625 H 43.558594 V 30.03125 h 1.433594 v -1.625 z m 11.835937,0 v 17.234375 h 1.658204 v -7.830078 l -0.478516,-6.375 0.177734,-0.05078 3.494141,14.255859 h 2.236328 V 28.40625 h -1.658203 v 7.830078 l 0.476562,6.128906 -0.175781,0.04883 -3.46875,-14.007812 z m 14.386719,0 v 17.234375 h 4.775391 v -1.625 h -3.117188 v -6.917969 h 2.740235 V 35.595703 H 68.347656 V 30.03125 h 3.142578 v -1.625 z m 19.771485,0 v 1.625 h 1.433593 v 13.984375 h -1.433593 v 1.625 h 4.52539 v -1.625 H 89.552734 V 30.03125 h 1.433594 v -1.625 z m 13.626952,0 c -1.281998,0 -2.361327,1.034253 -2.361328,2.314453 v 12.605469 c 0,1.2803 1.07933,2.314453 2.361328,2.314453 h 1.66016 c 1.307,0 2.36328,-1.034153 2.36328,-2.314453 V 30.720703 c 0,-1.2802 -1.05628,-2.314453 -2.36328,-2.314453 z m -97.18164,1.625 h 1.6601562 c 0.3770702,0 0.703125,0.320143 0.703125,0.689453 v 12.605469 c 0,0.3939 -0.3260548,0.689453 -0.703125,0.689453 H 2.90625 c -0.37707,0 -0.703125,-0.295553 -0.703125,-0.689453 V 30.720703 c 0,-0.36931 0.326055,-0.689453 0.703125,-0.689453 z m 97.18164,0 h 1.66016 c 0.377,0 0.70312,0.320143 0.70312,0.689453 v 12.605469 c 0,0.394 -0.32612,0.689453 -0.70312,0.689453 h -1.66016 c -0.376998,0 -0.703124,-0.295453 -0.703124,-0.689453 V 30.720703 c 0,-0.36931 0.326126,-0.689453 0.703124,-0.689453 z M 78.322266,43.892578 v 1.748047 h 1.785156 v -1.748047 z" transform="translate(70.083293,21.863563)" /></g></svg> 