<svg width="32" height="33" viewBox="0 0 32 33" fill="none" xmlns="http://www.w3.org/2000/svg"><path fill-rule="evenodd" clip-rule="evenodd" d="M17.9352 1.04507C17.6961 1.16452 16.4748 2.35313 12.5781 6.25938C8.208 10.6399 7.52084 11.3535 7.4577 11.5767C7.35911 11.925 7.36594 12.1856 7.48088 12.464C7.60019 12.753 15.1281 20.3169 15.4777 20.499C15.7825 20.6578 16.2739 20.6579 16.5788 20.4991C16.7066 20.4325 17.741 19.4462 18.8774 18.3072L20.9437 16.2363L25.548 20.8347C29.7536 25.0348 30.1766 25.4394 30.433 25.507C30.9918 25.6541 31.5368 25.4599 31.8206 25.0124C31.9696 24.7775 32 24.6619 32 24.3315C32 24.0918 31.9601 23.8538 31.8997 23.733C31.8445 23.6228 29.7589 21.489 27.2649 18.9912L22.7304 14.4497L24.8036 12.3833C26.1575 11.0337 26.9176 10.2298 26.9943 10.0662C27.1376 9.76064 27.1471 9.35815 27.0184 9.04642C26.8853 8.72416 19.3574 1.17667 19.0034 1.01056C18.6579 0.848527 18.306 0.859864 17.9352 1.04507ZM21.2896 6.74667L24.0763 9.5339L20.0369 13.5737L15.9974 17.6136L13.1942 14.811L10.3911 12.0083L14.4152 7.98389C16.6285 5.77039 18.4536 3.95938 18.4711 3.95938C18.4885 3.95938 19.7569 5.21364 21.2896 6.74667ZM5.43518 25.5693C3.77399 25.7681 2.12527 26.7461 1.14486 28.1142C0.497029 29.0182 0.067421 30.2506 0.0128039 31.3619C-0.0155067 31.9374 -0.00567316 32.0111 0.133688 32.2701C0.217117 32.4251 0.405396 32.6365 0.552148 32.7398L0.818907 32.9277L12.166 32.9462C20.4844 32.9598 23.5784 32.9458 23.7579 32.8938C24.1165 32.7898 24.3395 32.5991 24.5156 32.2457C24.6999 31.876 24.713 31.5566 24.5782 30.7253C24.2327 28.5948 22.7886 26.7906 20.7774 25.9763C19.6569 25.5226 20.0725 25.5451 12.5834 25.5317C8.88013 25.5251 5.66342 25.542 5.43518 25.5693ZM19.4731 28.1587C20.0598 28.3543 20.6579 28.7054 21.0323 29.0741C21.3774 29.4139 21.7921 30.0188 21.8815 30.3128L21.9243 30.4537H12.337C5.78167 30.4537 2.7498 30.4332 2.7498 30.389C2.7498 30.2456 3.078 29.6906 3.37075 29.3387C3.88836 28.7168 4.76906 28.2185 5.60084 28.0768C5.77246 28.0477 8.88639 28.0283 12.5207 28.0338C18.747 28.0432 19.1486 28.0505 19.4731 28.1587Z" fill="white" fill-opacity="0.4"/></svg>
