<svg width="28" height="25" viewBox="0 0 28 25" fill="none" xmlns="http://www.w3.org/2000/svg"><path fill-rule="evenodd" clip-rule="evenodd" d="M7.51607 0.567343C7.26755 0.677719 0.626255 7.18344 0.555802 7.3855C0.475121 7.61701 0.481905 7.83092 0.576312 8.02986C0.66764 8.22228 7.20869 14.6157 7.45564 14.7539C7.82669 14.9615 8.30827 14.8226 8.57161 14.4318C8.68809 14.2589 8.69028 14.2286 8.69028 12.7774V11.2991L12.5483 11.2847C16.37 11.2705 16.4078 11.2693 16.5537 11.1612C16.6348 11.1011 16.7544 10.9736 16.8197 10.8777L16.9383 10.7034L16.924 7.64691L16.9098 4.59041L16.7934 4.42722C16.5464 4.08095 16.7223 4.09463 12.5074 4.09463H8.69472L8.67948 2.55881C8.6621 0.815285 8.66805 0.840282 8.21955 0.611128C7.96034 0.478677 7.74569 0.465317 7.51607 0.567343ZM19.4368 10.267C19.3399 10.3323 19.2073 10.4649 19.142 10.5618C19.0256 10.7346 19.0234 10.7649 19.0234 12.2162V13.6945L15.1653 13.7088C11.3436 13.723 11.3059 13.7242 11.1599 13.8324C11.0789 13.8924 10.9592 14.02 10.894 14.1158L10.7754 14.2901L10.7896 17.3466L10.8039 20.4031L10.9202 20.5663C11.1672 20.9126 10.9911 20.8989 15.2085 20.8989H19.0234L19.0235 22.3732C19.0235 23.6727 19.0343 23.8691 19.1148 24.0291C19.2221 24.2428 19.4835 24.4314 19.7387 24.4792C20.1523 24.5568 20.1074 24.5951 23.66 21.1319C25.5017 19.3364 27.0466 17.8094 27.0931 17.7385C27.2204 17.5443 27.2438 17.1883 27.1434 16.9764C27.0465 16.7724 20.5185 10.3849 20.2584 10.2397C20.0238 10.1087 19.6534 10.1211 19.4368 10.267Z" fill="white" fill-opacity="0.3"/></svg>
