<?xml version="1.0" encoding="UTF-8" standalone="no"?>
<svg
   width="406"
   height="367"
   viewBox="0 0 406 367"
   fill="none"
   version="1.1"
   id="svg41"
   sodipodi:docname="market-card.svg"
   inkscape:version="1.1.1 (3bf5ae0d25, 2021-09-20)"
   xmlns:inkscape="http://www.inkscape.org/namespaces/inkscape"
   xmlns:sodipodi="http://sodipodi.sourceforge.net/DTD/sodipodi-0.dtd"
   xmlns="http://www.w3.org/2000/svg"
   xmlns:svg="http://www.w3.org/2000/svg">
  <sodipodi:namedview
     id="namedview43"
     pagecolor="#ffffff"
     bordercolor="#666666"
     borderopacity="1.0"
     inkscape:pageshadow="2"
     inkscape:pageopacity="0.0"
     inkscape:pagecheckerboard="0"
     showgrid="false"
     inkscape:zoom="17.700272"
     inkscape:cx="-8.6439347"
     inkscape:cy="370.87"
     inkscape:window-width="1920"
     inkscape:window-height="1001"
     inkscape:window-x="-9"
     inkscape:window-y="-9"
     inkscape:window-maximized="1"
     inkscape:current-layer="svg41" />
  <g
     filter="url(#filter0_bd_1829_5556)"
     id="g9">
    <mask
       id="path-1-inside-1_1829_5556"
       fill="white">
      <path
         fill-rule="evenodd"
         clip-rule="evenodd"
         d="M43 19C31.9543 19 23 27.9543 23 39V320C23 331.046 31.9543 340 43 340H100.691C128.327 315.133 164.896 300 205 300C245.104 300 281.673 315.133 309.309 340H363C374.046 340 383 331.046 383 320V39C383 27.9543 374.046 19 363 19H43Z"
         id="path2" />
    </mask>
    <path
       fill-rule="evenodd"
       clip-rule="evenodd"
       d="m 22.601469,0.7619861 c -12.442594,0 -22.52929914,10.0333019 -22.52929914,22.4100209 V 338.03279 c 0,12.37706 10.08670514,22.41002 22.52929914,22.41002 h 64.986889 c 31.130992,-27.8635 72.324682,-44.82004 117.500422,-44.82004 45.17575,0 86.36946,16.95654 117.50045,44.82004 h 60.48102 c 12.44293,0 22.5293,-10.03296 22.5293,-22.41002 V 23.172007 c 0,-12.376719 -10.08637,-22.4100209 -22.5293,-22.4100209 z"
       fill="#ffffff"
       fill-opacity="0.05"
       shape-rendering="crispEdges"
       id="path5"
       style="stroke-width:1.12348" />
    <path
       d="m 100.691,340 v 2 h 0.767 l 0.571,-0.513 z m 208.618,0 -1.338,1.487 0.571,0.513 h 0.767 z M 25,39 C 25,29.0589 33.0589,21 43,21 V 17 C 30.8497,17 21,26.8497 21,39 Z m 0,281 V 39 h -4 v 281 z m 18,18 c -9.9411,0 -18,-8.059 -18,-18 h -4 c 0,12.15 9.8497,22 22,22 z m 57.691,0 H 43 v 4 h 57.691 z m 1.338,3.487 C 129.312,316.937 165.409,302 205,302 v -4 c -40.617,0 -77.658,15.329 -105.647,40.513 z M 205,302 c 39.591,0 75.688,14.937 102.971,39.487 l 2.676,-2.974 C 282.658,313.329 245.617,298 205,298 Z m 158,36 h -53.691 v 4 H 363 Z m 18,-18 c 0,9.941 -8.059,18 -18,18 v 4 c 12.15,0 22,-9.85 22,-22 z m 0,-281 v 281 h 4 V 39 Z M 363,21 c 9.941,0 18,8.0589 18,18 h 4 C 385,26.8497 375.15,17 363,17 Z M 43,21 H 363 V 17 H 43 Z"
       fill="url(#paint0_linear_1829_5556)"
       fill-opacity="0.3"
       mask="url(#path-1-inside-1_1829_5556)"
       id="path7"
       style="fill:url(#paint0_linear_1829_5556)"
       transform="matrix(1.126465,0,0,1.120501,-25.836524,-20.527533)" />
  </g>
  <defs
     id="defs39">
    <filter
       id="filter0_bd_1829_5556"
       x="-17"
       y="-21"
       width="440"
       height="401"
       filterUnits="userSpaceOnUse"
       color-interpolation-filters="sRGB">
      <feFlood
         flood-opacity="0"
         result="BackgroundImageFix"
         id="feFlood11" />
      <feGaussianBlur
         in="BackgroundImage"
         stdDeviation="20"
         id="feGaussianBlur13" />
      <feComposite
         in2="SourceAlpha"
         operator="in"
         result="effect1_backgroundBlur_1829_5556"
         id="feComposite15" />
      <feColorMatrix
         in="SourceAlpha"
         type="matrix"
         values="0 0 0 0 0 0 0 0 0 0 0 0 0 0 0 0 0 0 127 0"
         result="hardAlpha"
         id="feColorMatrix17" />
      <feMorphology
         radius="1"
         operator="erode"
         in="SourceAlpha"
         result="effect2_dropShadow_1829_5556"
         id="feMorphology19" />
      <feOffset
         dy="4"
         id="feOffset21" />
      <feGaussianBlur
         stdDeviation="12"
         id="feGaussianBlur23" />
      <feComposite
         in2="hardAlpha"
         operator="out"
         id="feComposite25" />
      <feColorMatrix
         type="matrix"
         values="0 0 0 0 0 0 0 0 0 0 0 0 0 0 0 0 0 0 0.2 0"
         id="feColorMatrix27" />
      <feBlend
         mode="normal"
         in2="effect1_backgroundBlur_1829_5556"
         result="effect2_dropShadow_1829_5556"
         id="feBlend29" />
      <feBlend
         mode="normal"
         in="SourceGraphic"
         in2="effect2_dropShadow_1829_5556"
         result="shape"
         id="feBlend31" />
    </filter>
    <linearGradient
       id="paint0_linear_1829_5556"
       x1="23"
       y1="19"
       x2="395.195"
       y2="33.8246"
       gradientUnits="userSpaceOnUse">
      <stop
         stop-color="white"
         stop-opacity="0.3"
         id="stop34" />
      <stop
         offset="1"
         stop-color="white"
         stop-opacity="0.1"
         id="stop36" />
    </linearGradient>
  </defs>
</svg>
