<svg width="34" height="25" viewBox="0 0 34 25" fill="none" xmlns="http://www.w3.org/2000/svg"><path fill-rule="evenodd" clip-rule="evenodd" d="M0.563842 14.3619C0.638943 14.1695 14.0576 0.721685 14.3066 0.589263C14.5129 0.479564 14.889 0.469229 15.0843 0.567952C15.2835 0.6686 24.2962 9.67187 24.4076 9.88152C24.5163 10.086 24.5269 10.4298 24.4323 10.6829C24.3486 10.9068 11.228 24.0603 10.831 24.3183C10.5139 24.5244 10.2319 24.5536 9.91079 24.4138C9.64241 24.297 0.650112 15.2898 0.560248 15.0478C0.478664 14.8282 0.480012 14.5768 0.563842 14.3619ZM20.9124 17.0254C23.8451 14.0971 25.8281 12.0677 25.9754 11.8444C26.4988 11.0507 26.5732 9.99436 26.1688 9.09822C25.9592 8.63368 25.8569 8.52174 23.2213 5.87208L20.4911 3.12717L21.6128 1.99757C22.2298 1.37635 22.863 0.78459 23.02 0.682529C23.3369 0.476547 23.6189 0.447213 23.9402 0.586888C24.0598 0.638817 26.0704 2.6048 28.716 5.25664C32.7183 9.26838 33.2905 9.86585 33.3277 10.0723C33.4265 10.6198 33.7526 10.2636 26.4998 17.5296C22.5273 21.5094 19.6321 24.3613 19.5111 24.4139C19.2464 24.5291 18.9552 24.5283 18.7356 24.4118C18.6403 24.3612 18.0064 23.7617 17.3269 23.0795L16.0915 21.8392L20.9124 17.0254Z" fill="white" fill-opacity="0.3"/></svg>
