<svg width="24" height="25" viewBox="0 0 24 25" fill="none" xmlns="http://www.w3.org/2000/svg"><path fill-rule="evenodd" clip-rule="evenodd" d="M13.4514 0.610843C13.2721 0.700274 12.3561 1.59023 9.43354 4.51498C6.156 7.79482 5.64063 8.32911 5.59328 8.49625C5.51934 8.75704 5.52446 8.95213 5.61066 9.16059C5.70015 9.37697 11.3461 15.0403 11.6083 15.1767C11.8369 15.2956 12.2054 15.2956 12.4341 15.1768C12.5299 15.1269 13.3057 14.3884 14.1581 13.5356L15.7078 11.9851L19.161 15.428C22.3152 18.5728 22.6324 18.8758 22.8247 18.9263C23.2439 19.0365 23.6526 18.8911 23.8654 18.556C23.9772 18.3801 24 18.2936 24 18.0462C24 17.8667 23.9701 17.6885 23.9248 17.5981C23.8834 17.5156 22.3192 15.9179 20.4487 14.0477L17.0478 10.6473L18.6027 9.10014C19.6182 8.08966 20.1882 7.48779 20.2457 7.3653C20.3532 7.13649 20.3603 6.83513 20.2638 6.60173C20.164 6.36045 14.518 0.709372 14.2525 0.585003C13.9934 0.463682 13.7295 0.47217 13.4514 0.610843ZM15.9672 4.87983L18.0572 6.96672L15.0276 9.9915L11.998 13.0163L9.89569 10.9178L7.79334 8.81942L10.8114 5.80618C12.4714 4.14885 13.8402 2.79289 13.8533 2.79289C13.8664 2.79289 14.8177 3.73199 15.9672 4.87983ZM4.07638 18.973C2.83049 19.1219 1.59395 19.8541 0.858642 20.8784C0.372772 21.5553 0.0505658 22.4781 0.00960295 23.3101C-0.0116301 23.741 -0.00425487 23.7962 0.100266 23.9901C0.162838 24.1062 0.304047 24.2644 0.414111 24.3418L0.61418 24.4825L9.12449 24.4964C15.3633 24.5065 17.6838 24.496 17.8184 24.4571C18.0874 24.3792 18.2546 24.2364 18.3867 23.9719C18.5249 23.695 18.5348 23.4559 18.4337 22.8335C18.1745 21.2383 17.0915 19.8874 15.583 19.2777C14.7427 18.938 15.0544 18.9549 9.43753 18.9448C6.66009 18.9399 4.24756 18.9526 4.07638 18.973ZM14.6049 20.9118C15.0449 21.0582 15.4934 21.3211 15.7742 21.5972C16.0331 21.8516 16.344 22.3045 16.4111 22.5246L16.4433 22.6301H9.25278C4.33625 22.6301 2.06235 22.6148 2.06235 22.5817C2.06235 22.4743 2.3085 22.0587 2.52806 21.7953C2.91627 21.3296 3.5768 20.9565 4.20063 20.8505C4.32935 20.8286 6.66479 20.8141 9.39056 20.8183C14.0602 20.8253 14.3614 20.8307 14.6049 20.9118Z" fill="white" fill-opacity="0.3"/><path d="M15.9672 4.87983L18.0572 6.96672L15.0276 9.9915L11.998 13.0163L9.89569 10.9178L7.79334 8.81942L10.8114 5.80618C12.4714 4.14885 13.8402 2.79289 13.8533 2.79289C13.8664 2.79289 14.8177 3.73199 15.9672 4.87983Z" fill="white" fill-opacity="0.3"/><path d="M14.6049 20.9118C15.0449 21.0582 15.4934 21.3211 15.7742 21.5972C16.0331 21.8516 16.344 22.3045 16.4111 22.5246L16.4433 22.6301H9.25278C4.33625 22.6301 2.06235 22.6148 2.06235 22.5817C2.06235 22.4743 2.3085 22.0587 2.52806 21.7953C2.91627 21.3296 3.5768 20.9565 4.20063 20.8505C4.32935 20.8286 6.66479 20.8141 9.39056 20.8183C14.0602 20.8253 14.3614 20.8307 14.6049 20.9118Z" fill="white" fill-opacity="0.3"/></svg>
