<svg width="24" height="25" viewBox="0 0 24 25" fill="none" xmlns="http://www.w3.org/2000/svg"><path fill-rule="evenodd" clip-rule="evenodd" d="M0.804587 0.568361C0.559282 0.645681 0.140895 1.07891 0.0656744 1.33351C-0.0218915 1.6299 -0.0218915 10.5718 0.0656744 10.8682C0.146793 11.1427 0.560832 11.5568 0.835375 11.6379C0.990314 11.6837 2.1693 11.6987 5.61211 11.6987C10.8016 11.6987 10.4851 11.7227 10.8656 11.2994C10.9845 11.1672 11.1084 10.9699 11.1411 10.8608C11.2263 10.5766 11.2263 1.62515 11.1411 1.34091C11.1084 1.23185 10.9845 1.03448 10.8656 0.902281C10.4845 0.478296 10.8067 0.502337 5.58133 0.508135C2.37892 0.511683 0.926339 0.530026 0.804587 0.568361ZM13.5996 0.568361C13.3543 0.645681 12.9359 1.07891 12.8607 1.33351C12.7731 1.6299 12.7731 10.5718 12.8607 10.8682C12.9418 11.1427 13.3558 11.5568 13.6304 11.6379C13.7853 11.6837 14.9643 11.6987 18.4071 11.6987C23.5966 11.6987 23.2801 11.7227 23.6606 11.2994C23.7795 11.1672 23.9034 10.9699 23.9361 10.8608C24.0213 10.5766 24.0213 1.62515 23.9361 1.34091C23.9034 1.23185 23.7795 1.03448 23.6606 0.902281C23.2795 0.478296 23.6017 0.502337 18.3763 0.508135C15.1739 0.511683 13.7214 0.530026 13.5996 0.568361ZM0.804587 13.3634C0.559282 13.4407 0.140895 13.8739 0.0656744 14.1285C-0.0218915 14.4249 -0.0218915 23.3668 0.0656744 23.6632C0.146793 23.9378 0.560832 24.3518 0.835375 24.4329C0.990314 24.4787 2.1693 24.4937 5.61211 24.4937C10.8016 24.4937 10.4851 24.5177 10.8656 24.0944C10.9845 23.9622 11.1084 23.7649 11.1411 23.6558C11.2263 23.3716 11.2263 14.4202 11.1411 14.1359C11.1084 14.0269 10.9845 13.8295 10.8656 13.6973C10.4845 13.2733 10.8067 13.2973 5.58133 13.3031C2.37892 13.3067 0.926339 13.325 0.804587 13.3634ZM13.5996 13.3634C13.3543 13.4407 12.9359 13.8739 12.8607 14.1285C12.7731 14.4249 12.7731 23.3668 12.8607 23.6632C12.9418 23.9378 13.3558 24.3518 13.6304 24.4329C13.7853 24.4787 14.9643 24.4937 18.4071 24.4937C23.5966 24.4937 23.2801 24.5177 23.6606 24.0944C23.7795 23.9622 23.9034 23.7649 23.9361 23.6558C24.0213 23.3716 24.0213 14.4202 23.9361 14.1359C23.9034 14.0269 23.7795 13.8295 23.6606 13.6973C23.2795 13.2733 23.6017 13.2973 18.3763 13.3031C15.1739 13.3067 13.7214 13.325 13.5996 13.3634Z" fill="white" fill-opacity="0.3"/></svg>
