<svg width="32" height="30" viewBox="0 0 32 30" fill="none" xmlns="http://www.w3.org/2000/svg"><path fill-rule="evenodd" clip-rule="evenodd" d="M7.88789 0.0740972C7.54093 0.16581 7.14092 0.583399 7.04852 0.950376C6.99534 1.16145 6.97545 2.87454 6.97545 7.24348V13.2465L5.42709 13.276C3.81047 13.3069 3.62686 13.3331 2.90904 13.6364C2.13374 13.964 1.30025 14.6289 0.859513 15.2714C0.579431 15.6797 0.310298 16.2435 0.146641 16.7647L0 17.2317V21.5483V25.865L0.144764 26.3655C0.390813 27.2158 0.735206 27.7884 1.4076 28.4648C1.91659 28.9769 2.08725 29.1046 2.59624 29.3547C3.67171 29.8831 2.63234 29.8438 15.4157 29.8391C21.8743 29.8367 26.9335 29.8104 27.1311 29.7782C28.378 29.5753 29.3758 29.0792 30.2686 28.2182C30.8304 27.6766 31.3678 26.8665 31.6107 26.1952C32.0221 25.0584 31.9995 25.8336 31.9995 12.8435C31.9995 -0.170513 32.0308 0.823567 31.607 0.385709C31.2067 -0.0279383 31.9571 -0.00429056 19.4604 0.00284129C11.8738 0.00722049 8.05192 0.0306805 7.88789 0.0740972ZM29.4345 13.6317V24.7019L29.2888 25.1033C28.9084 26.1514 28.204 26.8399 27.1824 27.1622C26.8625 27.2631 26.21 27.2708 17.9324 27.2717C9.47466 27.2725 9.02886 27.2671 9.07234 27.1631C9.25207 26.7335 9.41686 26.1497 9.4736 25.7419C9.51895 25.4159 9.54041 21.6168 9.54041 13.9115V2.56136H19.4875H29.4345V13.6317ZM13.7015 8.01247C13.128 8.14666 12.7791 8.56287 12.7451 9.15325C12.7168 9.6426 12.8943 10.0161 13.2838 10.2867L13.555 10.4752H17.9547H22.3545L22.6209 10.2875C23.536 9.64297 23.2661 8.24338 22.1817 8.01084C21.779 7.92445 14.0712 7.92595 13.7015 8.01247ZM13.7383 14.1392C13.1747 14.2518 12.7902 14.6724 12.7442 15.2268C12.6954 15.8158 12.9572 16.2969 13.4479 16.5198C13.6872 16.6285 14.0078 16.6347 19.4647 16.636L25.2287 16.6374L25.5621 16.4632C25.8321 16.3222 25.9288 16.2255 26.0698 15.9555C26.4213 15.2826 26.2062 14.6052 25.5245 14.2384L25.2743 14.1037L19.6439 14.0939C16.5471 14.0886 13.8896 14.1089 13.7383 14.1392ZM6.96125 20.7521L6.94417 25.6801L6.73822 26.0983C6.50518 26.5716 6.16886 26.8993 5.68371 27.1256C5.42677 27.2455 5.24328 27.2788 4.77659 27.2899C4.25753 27.3023 4.15268 27.2854 3.84744 27.1397C3.33708 26.896 3.00589 26.5757 2.77091 26.0983L2.56496 25.6799V21.5497V17.4194L2.71755 17.1093C2.98649 16.5628 3.47202 16.1208 4.02824 15.9161C4.18877 15.8569 4.64809 15.8317 5.61621 15.8285L6.97839 15.8241L6.96125 20.7521ZM13.7383 19.8957C13.1719 20.0069 12.7903 20.4271 12.7436 20.9909C12.6914 21.6192 13.0399 22.1706 13.5901 22.3307C13.7536 22.3783 15.1311 22.3935 18.0901 22.3805L22.3545 22.3616L22.6257 22.1731C23.0168 21.9013 23.1926 21.5294 23.1641 21.0345C23.1456 20.7147 23.1083 20.6046 22.9531 20.413C22.6788 20.074 22.5004 19.962 22.1221 19.8911C21.708 19.8135 14.1358 19.8176 13.7383 19.8957Z" fill="white" fill-opacity="0.4"/></svg>
