<svg width="32" height="37" viewBox="0 0 32 37" fill="none" xmlns="http://www.w3.org/2000/svg"><path fill-rule="evenodd" clip-rule="evenodd" d="M16.1085 3.54606L29.2161 11.1137C29.2832 11.1525 29.3245 11.2241 29.3245 11.3016V26.4369C29.3245 26.5144 29.2832 26.5861 29.2161 26.6248L16.1085 34.1925C16.0413 34.2312 15.9587 34.2312 15.8915 34.1925L2.78394 26.6248C2.71682 26.5861 2.67547 26.5144 2.67547 26.4369V11.3016C2.67547 11.2241 2.71682 11.1525 2.78394 11.1137L15.8915 3.54606C15.9587 3.5073 16.0413 3.5073 16.1085 3.54606ZM14.5538 1.22903C15.4487 0.712353 16.5513 0.712353 17.4462 1.22903L30.5538 8.7967C31.4487 9.31338 32 10.2682 32 11.3016V26.4369C32 27.4703 31.4487 28.4252 30.5538 28.9418L17.4462 36.5095C16.5513 37.0262 15.4487 37.0262 14.5538 36.5095L1.4462 28.9418C0.551289 28.4252 0 27.4703 0 26.4369V11.3016C0 10.2682 0.551288 9.31338 1.4462 8.7967L14.5538 1.22903ZM12.6279 15.0401H10.7886V19.4336H10.7253L7.72429 15.0401H6.13814V22.6655H7.9812V18.2645H8.0296L11.0641 22.6655H12.6279V15.0401ZM13.7868 22.6655H15.6299V19.6012H18.6607V18.1007H15.6299V16.5369H18.9921V15.0401H13.7868V22.6655ZM21.9866 16.5369H19.6707V15.0401H26.1158V16.5369H23.8036V22.6655H21.9866V16.5369Z" fill="white" fill-opacity="0.4"/></svg>
