<svg width="24" height="25" viewBox="0 0 24 25" fill="none" xmlns="http://www.w3.org/2000/svg"><path fill-rule="evenodd" clip-rule="evenodd" d="M10.9236 0.528399C8.60448 0.755454 6.46107 1.60982 4.58176 3.05625C3.66658 3.76061 2.47809 5.08435 1.79127 6.16418C1.49465 6.63054 0.917244 7.8123 0.710401 8.37628C0.479128 9.00693 0.232635 9.97065 0.111338 10.7184C-0.0371126 11.6337 -0.0371126 13.3715 0.111338 14.2867C0.321235 15.5806 0.653275 16.6266 1.22161 17.7846C1.84257 19.0497 2.48823 19.9464 3.52217 20.9798C4.55616 22.0132 5.45343 22.6585 6.71926 23.2791C7.87792 23.8471 8.92449 24.1789 10.2191 24.3887C11.1349 24.5371 12.8736 24.5371 13.7894 24.3887C15.0841 24.1789 16.1306 23.8471 17.2893 23.2791C18.5551 22.6585 19.4524 22.0132 20.4864 20.9798C21.5203 19.9464 22.166 19.0497 22.7869 17.7846C23.1994 16.9443 23.4068 16.3935 23.629 15.549C23.9249 14.4243 24 13.8078 24 12.5026C24 11.1973 23.9249 10.5808 23.629 9.45616C23.4068 8.61165 23.1994 8.06091 22.7869 7.22058C22.166 5.95548 21.5203 5.05871 20.4864 4.02532C19.4524 2.99197 18.5551 2.34668 17.2893 1.72608C16.1318 1.15858 15.0645 0.820012 13.8129 0.62324C13.1224 0.514689 11.5805 0.464076 10.9236 0.528399ZM13.039 2.26723C13.8136 2.35855 13.8138 2.35865 13.4136 2.46002C12.1756 2.77355 11.5594 3.60182 11.6422 4.84105C11.7079 5.82486 12.1725 6.71379 13.1066 7.64314C13.7816 8.31468 14.2489 8.63226 15.7209 9.41996C16.5058 9.83998 16.7006 10.2025 16.9357 11.6809C16.9891 12.0166 17.066 12.4075 17.1066 12.5495C17.2201 12.9473 17.4759 13.3947 17.7476 13.6705C18.1558 14.0852 18.5081 14.2481 19.1848 14.3351C20.0407 14.4452 20.2033 14.5846 20.5796 15.5309C20.6515 15.7117 20.7634 15.9401 20.8282 16.0384C20.9482 16.2202 21.2739 16.4465 21.4157 16.4465C21.4587 16.4465 21.4938 16.4599 21.4938 16.4762C21.4938 16.5496 21.0527 17.4262 20.8325 17.7906C19.6545 19.7396 17.8219 21.2804 15.7078 22.099C14.865 22.4254 14.9163 22.4341 15.1503 22.0039C15.4475 21.4574 15.6811 21.1768 16.2064 20.7356C16.7841 20.2501 16.984 19.988 16.9837 19.7162C16.9835 19.4195 16.8434 19.2335 16.5013 19.0756C16.0168 18.8519 15.7066 18.8039 13.7894 18.6561C13.0451 18.5988 12.757 18.5135 12.5251 18.2817C12.2971 18.0538 12.2003 17.7687 12.141 17.1507C12.0157 15.8455 11.9013 15.489 11.4878 15.1176C11.0664 14.7389 10.5576 14.6103 9.13862 14.5241C8.57023 14.4896 8.10938 14.4307 7.64533 14.3335C6.51105 14.0958 6.11441 14.1523 5.65826 14.6166C5.44146 14.8373 5.3118 15.0498 4.91126 15.8411C4.32465 17.0001 4.01051 17.5667 3.78177 17.8785C3.49159 18.2741 3.48224 18.2762 3.29823 17.9882C2.51529 16.7629 1.91308 15.064 1.78643 13.7233C1.77055 13.5555 1.74814 13.3717 1.73659 13.3151C1.71925 13.23 1.75777 13.1909 1.95766 13.0905C2.0908 13.0237 2.27951 12.9059 2.37699 12.8287C2.72435 12.5538 2.95125 12.487 3.4277 12.5199C4.75295 12.6113 4.93607 12.612 5.20741 12.5267C5.90945 12.306 6.18864 11.7114 6.16882 10.479C6.15965 9.90703 6.23266 9.69753 6.50344 9.51869C6.71465 9.37925 7.06962 9.32629 8.19906 9.26558C9.48001 9.19675 10.002 9.03834 10.372 8.60634C10.8909 8.00058 10.6646 7.29833 9.8198 6.89248C9.17691 6.58359 8.78229 6.49687 7.4709 6.37611C5.95901 6.2369 5.54011 6.0992 4.92832 5.54038L4.67027 5.30469L4.87265 5.09656C6.06988 3.86531 8.02355 2.82656 9.89027 2.42879C10.7822 2.23873 12.1863 2.16666 13.039 2.26723Z" fill="white"/></svg>
