<svg width="277" height="275" viewBox="0 0 277 275" fill="none" xmlns="http://www.w3.org/2000/svg"><g filter="url(#filter0_bd_2331_7197)"><rect x="23" y="19" width="231" height="229" rx="114.5" fill="black" fill-opacity="0.3" shape-rendering="crispEdges"/><g clip-path="url(#clip0_2331_7197)"><path fill-rule="evenodd" clip-rule="evenodd" d="M68.6763 72.3173C80.2903 60.7409 94.7569 52.4157 110.622 48.1785C126.487 43.9412 143.192 43.9412 159.057 48.1784C174.922 52.4156 189.389 60.7408 201.003 72.3172C212.617 83.8935 220.969 98.3132 225.22 114.127L213.832 117.168C210.117 103.347 202.817 90.7445 192.666 80.6267C182.516 70.509 169.872 63.2328 156.006 59.5294C142.139 55.8261 127.54 55.8261 113.673 59.5295C99.8074 63.2329 87.1635 70.5091 77.0128 80.6269L68.6763 72.3173ZM218.847 138.266C218.847 152.964 214.965 167.404 207.592 180.133C200.219 192.863 189.614 203.433 176.843 210.782C164.072 218.132 149.586 222.001 134.84 222.001C120.093 222.001 105.607 218.132 92.8359 210.782L98.4644 201.065C109.524 207.43 122.069 210.78 134.84 210.78C147.61 210.78 160.155 207.43 171.215 201.065C182.274 194.701 191.458 185.547 197.843 174.523C204.228 163.499 207.59 150.995 207.59 138.266H218.847ZM74.6176 101.96C66.5994 115.174 63.1795 130.656 64.8885 146.004L75.8709 144.79C74.4302 131.851 77.3131 118.799 84.0725 107.66C90.8319 96.5207 101.09 87.9157 113.256 83.1798L109.236 72.9205C94.8045 78.5385 82.6359 88.746 74.6176 101.96Z" fill="white" fill-opacity="0.3"/><path d="M173.193 136.886C173.861 137.27 173.861 138.235 173.193 138.619L118.598 170.037C117.932 170.421 117.099 169.939 117.099 169.17L117.099 106.335C117.099 105.565 117.932 105.084 118.598 105.468L173.193 136.886Z" fill="white"/></g><rect x="24" y="20" width="229" height="227" rx="113.5" stroke="url(#paint0_linear_2331_7197)" stroke-opacity="0.6" stroke-width="2" shape-rendering="crispEdges"/></g><defs><filter id="filter0_bd_2331_7197" x="-17" y="-21" width="311" height="309" filterUnits="userSpaceOnUse" color-interpolation-filters="sRGB"><feFlood flood-opacity="0" result="BackgroundImageFix"/><feGaussianBlur in="BackgroundImage" stdDeviation="20"/><feComposite in2="SourceAlpha" operator="in" result="effect1_backgroundBlur_2331_7197"/>
<feColorMatrix in="SourceAlpha" type="matrix" values="0 0 0 0 0 0 0 0 0 0 0 0 0 0 0 0 0 0 127 0" result="hardAlpha"/><feMorphology radius="1" operator="erode" in="SourceAlpha" result="effect2_dropShadow_2331_7197"/><feOffset dy="4"/><feGaussianBlur stdDeviation="12"/><feComposite in2="hardAlpha" operator="out"/><feColorMatrix type="matrix" values="0 0 0 0 0 0 0 0 0 0 0 0 0 0 0 0 0 0 0.2 0"/><feBlend mode="normal" in2="effect1_backgroundBlur_2331_7197" result="effect2_dropShadow_2331_7197"/><feBlend mode="normal" in="SourceGraphic" in2="effect2_dropShadow_2331_7197" result="shape"/></filter><linearGradient id="paint0_linear_2331_7197" x1="23" y1="19" x2="261.897" y2="27.5586" gradientUnits="userSpaceOnUse"><stop stop-color="white" stop-opacity="0.3"/><stop offset="1" stop-color="white" stop-opacity="0.1"/></linearGradient><clipPath id="clip0_2331_7197"><rect width="203" height="177" fill="white" transform="translate(41.5 45)"/></clipPath></defs></svg>
