<svg width="40" height="43" viewBox="0 0 40 43" fill="none" xmlns="http://www.w3.org/2000/svg"><g clip-path="url(#clip0_2258_6732)"><path fill-rule="evenodd" clip-rule="evenodd" d="M3.09966 6.21923C5.97871 3.66373 9.47972 1.9111 13.2508 1.1375C17.0219 0.363901 20.9302 0.596585 24.5828 1.81217C28.2355 3.02775 31.5038 5.1834 34.0593 8.06245C36.6148 10.9415 38.3674 14.4425 39.141 18.2136L36.4342 18.7689C35.758 15.473 34.2262 12.4131 31.9927 9.89678C29.7592 7.38049 26.9027 5.49646 23.7103 4.43404C20.5179 3.37162 17.102 3.16825 13.8061 3.84438C10.5102 4.52051 7.45029 6.05231 4.934 8.28581L3.09966 6.21923ZM37.3473 22.6206C37.3473 26.0768 36.4375 29.4722 34.7094 32.4653C32.9813 35.4585 30.4957 37.9441 27.5026 39.6722C24.5094 41.4003 21.114 42.3101 17.6578 42.3101C14.2016 42.3101 10.8063 41.4003 7.81309 39.6722L9.13228 37.3873C11.7244 38.8838 14.6647 39.6717 17.6578 39.6717C20.6509 39.6717 23.5913 38.8838 26.1834 37.3873C28.7755 35.8907 30.9279 33.7382 32.4245 31.1461C33.921 28.5541 34.7089 25.6137 34.7089 22.6206H37.3473ZM3.54308 14.0836C1.66377 17.1907 0.862241 20.8312 1.26279 24.4403L3.83682 24.1546C3.49915 21.1121 4.17484 18.0432 5.7591 15.4239C7.34335 12.8046 9.74763 10.7812 12.599 9.66762L11.6569 7.25524C8.27444 8.57625 5.42239 10.9765 3.54308 14.0836Z" fill="#121212" fill-opacity="0.4"/><path d="M25.5 21.6339C26.1667 22.0188 26.1667 22.9811 25.5 23.366L15 29.4281C14.3333 29.813 13.5 29.3319 13.5 28.5621L13.5 16.4378C13.5 15.668 14.3333 15.1868 15 15.5717L25.5 21.6339Z" fill="#121212"/></g><defs><clipPath id="clip0_2258_6732"><rect width="39.1411" height="41.6199" fill="#121212" transform="translate(0 0.690002)"/></clipPath></defs></svg>
