<svg width="73" height="80" viewBox="0 0 73 80" fill="none" xmlns="http://www.w3.org/2000/svg">
<path fill-rule="evenodd" clip-rule="evenodd" d="M17.8761 0.262035C13.9717 0.919469 10.9705 2.90939 8.60314 6.41013C8.07738 7.18811 7.05584 8.46681 6.33319 9.25159C4.01131 11.7744 2.73786 15.0687 3.91116 15.5187C4.94816 15.9165 5.29928 15.6436 6.15391 13.7745C6.63949 12.7122 7.54976 11.3559 8.17629 10.7609C8.80281 10.1659 9.75882 8.85781 10.301 7.8542C11.7991 5.0795 13.7093 3.86015 18.154 2.842C26.4979 0.930287 36.8369 4.0558 42.5374 10.2129C44.812 12.6698 45.7603 14.6733 45.7643 17.0298C45.7681 19.2222 45.2701 20.466 43.4718 22.7545C42.1066 24.4922 41.1311 26.6138 41.1311 27.8449C41.1311 28.4321 40.9957 28.4581 38.8809 28.2794C30.8863 27.6038 21.9119 22.2219 16.3996 14.7982C14.9905 12.9007 13.9229 12.277 13.0333 12.8321C12.7622 13.0012 11.5101 15.6297 10.2512 18.6729C8.99228 21.7162 7.91758 24.261 7.86318 24.3277C7.66938 24.5654 6.75231 23.6001 6.43828 22.828C6.26271 22.3959 5.95579 21.3571 5.75673 20.5191C5.34781 18.7997 4.65576 18.1447 3.80854 18.6757C3.03706 19.1595 2.99718 20.0215 3.65647 21.974L4.23261 23.6811L3.17646 24.524C1.61555 25.7693 0.964304 27.4635 0.956268 30.299C0.947613 33.3164 1.77504 35.6815 3.31091 37.0301C4.27929 37.8801 4.58961 37.9805 6.0003 37.8986L7.59489 37.8062L8.91316 40.5586C10.6178 44.1181 13.6558 47.2365 16.9526 48.8107L19.1508 49.8607L19.1684 51.4834L19.1857 53.1061H17.7021C16.8861 53.1061 16.0516 53.273 15.8476 53.477C15.6377 53.6869 15.4767 54.6927 15.4767 55.7952V57.7425L14.163 57.7462C9.35392 57.7595 4.38221 61.1171 1.98059 65.9735L0.794922 68.3708V74.1066V79.8424L5.61888 79.9274C10.7967 80.0182 11.4369 79.8445 10.9995 78.4663C10.8107 77.871 10.5587 77.8333 6.76622 77.8333H2.73384L2.85408 73.5833C2.96689 69.5899 3.03273 69.2088 3.94454 67.2686C6.4559 61.9254 10.6821 59.7463 18.1039 59.9682L21.1948 60.0606L21.4582 62.3204C21.6581 64.0389 21.5626 65.9275 21.0582 70.2022C20.6935 73.2943 20.3161 76.2761 20.2196 76.8287L20.0441 77.8333H17.3346C14.3179 77.8333 13.6017 78.1856 14.2307 79.3605L14.5729 80L43.6928 79.9212L72.8128 79.8424L72.7874 75.9787C72.7664 72.7682 72.6468 71.819 72.0793 70.3635C71.1835 68.0651 70.2974 66.9555 69.4545 67.0757C68.4923 67.2127 68.4691 68.3037 69.3884 70.1852C70.2853 72.0215 70.8856 74.8311 70.7443 76.532L70.6491 77.6787L60.2511 77.76L49.8533 77.8413L49.734 73.2782C49.6187 68.8545 49.5828 68.6462 48.5644 66.4563C47.4473 64.0541 46.661 63.311 45.9022 63.9406C45.2676 64.4673 45.3508 65.2778 46.2147 66.9827C47.2001 68.9272 47.6767 71.7847 47.5608 75.0515L47.4674 77.6787L38.9879 77.761C34.3243 77.8064 30.4116 77.7368 30.2929 77.6064C30.1739 77.4763 29.7557 74.4488 29.3634 70.8788C28.8012 65.7636 28.7116 63.9292 28.9406 62.2243L29.2311 60.0606L32.1675 59.9679C36.8647 59.8199 40.4319 60.6918 42.6045 62.5201C43.4854 63.2613 43.504 63.2628 52.449 63.3617L61.4111 63.4606L63.7549 64.6197C66.3883 65.9219 66.5605 65.9587 67.0822 65.33C67.7199 64.5616 67.1462 63.7286 65.3087 62.7547C63.448 61.7684 62.0252 61.3307 59.5992 60.9972L58.131 60.7953V59.1145C58.131 56.9293 57.4717 56.197 55.5037 56.197H54.1128V54.6927V53.1887L55.692 52.5325C57.8661 51.6287 60.8989 49.406 62.3785 47.6322C65.1532 44.3048 66.1374 41.1679 66.3815 34.8699C66.5713 29.9757 66.6996 29.539 68.5937 27.3506C70.6207 25.0087 71.2685 23.3436 71.2599 20.4972C71.2488 16.934 70.1119 14.6214 66.7039 11.231C62.8323 7.37944 58.42 5.086 52.394 3.79246C49.4595 3.16253 43.0379 3.12173 40.5503 3.71735C38.9301 4.10525 38.8361 4.09011 36.8412 3.11555C34.1274 1.78925 31.4479 0.910505 28.5323 0.390926C25.9545 -0.0686904 20.2502 -0.137617 17.8761 0.262035ZM53.4669 6.40241C56.4183 7.19275 60.8627 9.35761 63.2672 11.176C66.8792 13.908 68.9408 17.2564 68.946 20.3998C68.9501 22.6296 68.6215 23.4777 66.9076 25.6655C64.6899 28.4961 64.3273 29.6005 64.3326 33.5065C64.3456 43.3726 58.9887 50.4137 50.5583 51.6111C46.1461 52.2379 41.2572 50.8108 38.0909 47.9715L36.7507 46.7698L38.056 45.3789C39.7553 43.5682 41.5017 40.8835 42.0392 39.2555C42.4664 37.9611 42.4667 37.9607 44.0396 37.9595C46.2604 37.958 47.4659 37.1398 48.4658 34.9558C49.4246 32.8617 49.7534 29.3996 49.1671 27.5713C48.688 26.0775 47.4739 24.4208 46.5494 23.9998L45.8497 23.6808L46.8715 21.9839C48.1218 19.9074 48.4819 17.5967 47.9394 15.1265C47.3914 12.6296 46.2169 10.6323 43.8356 8.14814C42.688 6.95104 41.7493 5.94557 41.7493 5.91312C41.7493 5.68779 44.3292 5.58116 47.4674 5.67636C49.8644 5.74899 51.9866 6.00585 53.4669 6.40241ZM17.8987 20.0969C23.5708 25.9841 31.248 29.8332 39.0447 30.699L40.822 30.8962L40.8155 33.2694C40.7973 39.8709 35.9557 46.0947 29.4302 47.9042C25.7153 48.9343 21.3886 48.5127 17.9874 46.789C16.0253 45.7946 13.156 43.1522 11.8875 41.1713C10.1072 38.391 9.54277 36.1649 9.4281 31.4699L9.3261 27.2972L11.6789 21.4773L14.032 15.6575L14.818 16.6864C15.2504 17.2524 16.6367 18.787 17.8987 20.0969ZM6.56593 26.4178C7.0614 26.8663 7.13126 27.4548 7.13126 31.188C7.13126 35.0884 7.08242 35.4621 6.54862 35.6314C5.64299 35.9186 4.48545 35.2241 3.93063 34.0607C2.03962 30.0953 4.08271 24.1704 6.56593 26.4178ZM46.1587 26.8774C47.5846 28.7959 47.3521 33.3324 45.7461 34.9388C44.8633 35.8212 43.8019 36.0586 43.4295 35.4562C43.1086 34.9369 43.2836 28.7119 43.6616 27.2032C43.9546 26.033 44.0882 25.8843 44.7731 25.9668C45.2015 26.0185 45.8249 26.4283 46.1587 26.8774ZM21.9818 40.2338C21.3855 40.83 21.6362 41.6766 22.5085 42.0126C23.8261 42.5204 27.7178 42.2339 28.3706 41.5811C28.7898 41.162 28.8355 40.9194 28.574 40.5049C28.2946 40.0619 27.7265 39.9649 25.2708 39.9402C23.5782 39.9235 22.166 40.0496 21.9818 40.2338ZM51.6401 46.1473C51.2151 46.3881 50.2415 46.6789 49.4765 46.7936C47.8649 47.0353 47.3129 47.3911 47.3129 48.1876C47.3129 49.0966 48.2983 49.4286 50.0233 49.1016C53.07 48.5239 54.7048 47.2374 53.7914 46.1368C53.3275 45.5776 52.6403 45.581 51.6401 46.1473ZM36.5893 49.7185C37.6424 50.575 39.3733 51.7069 40.4356 52.2336L42.3675 53.1911V54.6939V56.197H41.2C39.9028 56.197 38.6584 56.9027 38.6584 57.6386C38.6584 57.9486 38.4856 58.0516 38.1694 57.9301C37.9005 57.8269 37.0659 57.7425 36.3149 57.7425H34.9493L34.9447 55.9652C34.9419 54.9879 34.8108 53.9839 34.6532 53.7345C34.4866 53.4715 33.6777 53.2118 32.726 53.1163L31.0857 52.9516L30.992 51.4967L30.8984 50.0418L32.692 49.1161C33.6786 48.607 34.5283 48.1839 34.5802 48.1755C34.6322 48.1675 35.5363 48.8617 36.5893 49.7185ZM28.7675 51.9075C28.7675 52.8545 28.6423 53.0706 28.0004 53.2316C27.5784 53.3376 26.7646 53.8356 26.1919 54.3385L25.1506 55.2531L24.4332 54.4893C24.0388 54.0696 23.2531 53.5586 22.6871 53.354C21.7833 53.027 21.6585 52.848 21.6585 51.879V50.7762H25.213H28.7675V51.9075ZM51.9492 55.0457C51.9492 56.0335 51.8191 56.2616 51.1005 56.5349C50.6337 56.7123 49.7949 57.2062 49.236 57.6324L48.2204 58.4073L47.1376 57.4566C46.5423 56.9339 45.7817 56.5061 45.4475 56.5061C44.9391 56.5061 44.8402 56.2922 44.8402 55.1925V53.8789H48.3947H51.9492V55.0457ZM22.7251 56.1828C24.1364 57.5088 23.8147 57.7425 20.5766 57.7425H17.6403V56.4712V55.1999L19.7888 55.3214C21.5286 55.4197 22.0875 55.5838 22.7251 56.1828ZM32.4766 56.5061V57.7425H29.5402C27.9252 57.7425 26.6039 57.6293 26.6039 57.4912C26.6039 57.1592 28.1775 55.7019 28.7675 55.4874C29.0225 55.3946 29.9615 55.3075 30.8539 55.2942L32.4766 55.2698V56.5061ZM45.7436 59.47C46.9917 60.5203 46.9435 60.8349 45.5356 60.8253C44.7518 60.8201 43.831 60.4699 42.6908 59.7435L41.0053 58.6697H42.8991C44.4853 58.6697 44.9471 58.7996 45.7436 59.47ZM55.6583 59.7516V60.8334H52.7148H49.7714L50.2823 60.0535C51.0322 58.909 51.5823 58.6895 53.7265 58.679L55.6583 58.6697V59.7516ZM26.645 60.0501C26.7244 60.1296 26.7127 60.8596 26.6193 61.6729L26.4493 63.1515L25.1357 63.2464C23.9244 63.3342 23.8221 63.2832 23.8221 62.5896C23.8221 62.1764 23.7352 61.4033 23.6289 60.872L23.4357 59.9061H24.9682C25.8111 59.9061 26.5659 59.971 26.645 60.0501ZM26.9597 70.2606C27.2477 72.8106 27.5686 75.5575 27.6724 76.3651L27.8616 77.8333H25.2235C22.9168 77.8333 22.586 77.7653 22.5879 77.2924C22.591 76.4022 23.8221 66.2755 23.98 65.8372C24.0743 65.576 24.5361 65.4663 25.281 65.5281L26.4354 65.6243L26.9597 70.2606Z" fill="#30B2E6"/>
</svg>
