<svg width="50" height="90" viewBox="0 0 50 90" fill="none" xmlns="http://www.w3.org/2000/svg">
<path fill-rule="evenodd" clip-rule="evenodd" d="M2.45507 0.309978C0.720689 1.09608 -0.0630404 3.08665 0.662482 4.86338C0.855728 5.3368 6.5023 10.9644 21.1243 25.2566L41.3191 44.996L21.1236 64.7375C6.48188 79.05 0.854833 84.6587 0.661766 85.1328C0.515264 85.4925 0.395449 86.1083 0.395449 86.5014C0.395449 89.0382 3.01779 90.733 5.32062 89.6848C6.34613 89.2181 49.0398 47.4723 49.4926 46.4935C49.9083 45.5952 49.9083 44.4011 49.4926 43.5028C49.0398 42.5239 6.34613 0.778121 5.32062 0.311385C4.40955 -0.103296 3.3681 -0.103824 2.45507 0.309978Z" fill="white" fill-opacity="0.1"/>
</svg>
