<svg width="80" height="79" viewBox="0 0 80 79" fill="none" xmlns="http://www.w3.org/2000/svg">
<path fill-rule="evenodd" clip-rule="evenodd" d="M27.022 0.0656989C26.4408 0.287833 25.8685 0.834419 25.6013 1.42303C25.3409 1.99664 25.3102 2.50698 25.3071 6.32512C25.3034 10.9649 25.349 11.2617 26.1846 12.0439C26.4304 12.274 26.9391 12.5406 27.3149 12.6366L27.9985 12.8109L27.918 13.6969C27.7981 15.0199 27.3237 15.7824 25.388 17.7627C22.3886 20.8311 22.3357 20.9981 22.3357 27.3841C22.3357 31.5501 22.3699 32.2163 22.6264 33.0404L22.9171 33.9745L21.8979 34.226C21.3375 34.3644 20.5564 34.6656 20.1623 34.8954C19.307 35.3942 14.001 40.5804 13.0373 41.8595C11.858 43.4247 11.6834 44.1077 11.57 47.5992C11.4734 50.568 11.4595 50.6659 11.0248 51.4575C10.7795 51.9041 10.4184 52.4204 10.2222 52.6045L9.86555 52.9396L9.39972 52.5952C8.7705 52.13 7.6931 52.0209 6.99562 52.3519C6.69631 52.4939 5.04078 54.0315 3.31651 55.7689C0.672615 58.4331 0.164613 59.0191 0.0721353 59.5119C-0.147343 60.6815 0.0763529 61.1565 1.55428 62.6584C2.69822 63.821 3.00799 64.0535 3.41273 64.0535C4.09069 64.0535 4.52746 63.612 4.52746 62.9266C4.52746 62.4429 4.37672 62.2167 3.39711 61.2307L2.26692 60.0927L5.1156 57.2439L7.96444 54.3952L15.8136 62.2442L23.6627 70.0934L20.8135 72.9426L17.9642 75.7919L12.6074 70.4435C7.91899 65.7623 7.19135 65.095 6.77551 65.095C6.17222 65.095 5.62095 65.6595 5.62095 66.2775C5.62095 66.6733 6.38233 67.4958 11.1274 72.226C14.1561 75.2451 16.7875 77.793 16.9751 77.8879C17.452 78.1291 18.5213 78.1032 19.024 77.8381C19.2559 77.7158 20.8637 76.1868 22.5965 74.4405C25.2781 71.7383 25.7637 71.1772 25.8564 70.6741C25.9945 69.9249 25.8607 69.2507 25.4633 68.6927L25.1517 68.2551L25.8642 67.5984C26.7502 66.7817 27.5603 66.422 29.0101 66.2019C31.366 65.8443 31.622 65.6795 34.9888 62.3559C37.1179 60.2542 38.2766 59.2281 38.8376 58.9477C39.7361 58.4986 40.6723 57.5027 40.9299 56.7224C41.0846 56.2537 41.1366 56.2196 41.4915 56.3546C42.0717 56.5753 43.6716 56.5347 44.2713 56.2841C45.065 55.9525 46.0926 54.9474 46.4412 54.1617C46.673 53.6393 46.7718 52.9944 46.8277 51.6351L46.9028 49.8099L47.2826 49.9542C47.8606 50.1739 49.0653 50.127 49.8681 49.8533C50.857 49.5164 51.9151 48.3667 52.2386 47.2777C52.436 46.6127 52.4846 45.615 52.4846 42.2286V38.0081L54.4121 39.9137C56.1395 41.6214 56.3965 41.8193 56.8873 41.8193C57.5592 41.8193 58.0041 41.3788 58.0041 40.7135C58.0041 40.3172 57.7293 39.9599 56.3769 38.5984C54.8512 37.0622 54.7681 36.9463 55.0441 36.7406C55.7309 36.2285 57.3444 36.2672 58.4133 36.8213C59.2553 37.2578 65.3785 43.4889 65.7044 44.2408C65.9154 44.7275 65.9981 45.5384 66.0787 47.9116C66.2047 51.6184 66.4398 52.3957 67.9356 54.0536L68.4737 54.6498L62.4786 60.6465L56.4835 66.6432L55.657 65.8615C54.5957 64.8577 53.1697 64.1944 51.4884 63.9221C50.7585 63.804 49.9283 63.59 49.6436 63.4466C49.359 63.3034 48.0665 62.1393 46.7715 60.86C44.6139 58.7285 44.3698 58.534 43.8539 58.534C43.2092 58.534 42.6432 59.0948 42.6432 59.7337C42.6432 60.1624 44.689 62.3687 46.8324 64.2514C48.2725 65.5166 49.1365 65.9243 50.9651 66.2019C52.4149 66.422 53.225 66.7817 54.1111 67.5984L54.8236 68.2551L54.5119 68.6927C54.1145 69.2507 53.9808 69.9249 54.1189 70.6741C54.2115 71.1772 54.6972 71.7383 57.3787 74.4405C59.1116 76.1868 60.7193 77.7158 60.9513 77.8381C61.4934 78.1238 62.5356 78.1234 63.0758 77.8369C63.3078 77.7139 67.1657 73.9356 71.649 69.4405C80.4878 60.5785 80.174 60.956 79.9031 59.5119C79.8106 59.0191 79.3026 58.4331 76.6588 55.7689C74.9345 54.0315 73.2789 52.4939 72.9796 52.3519C72.2822 52.0209 71.2048 52.13 70.5755 52.5952L70.1097 52.9396L69.7531 52.6045C69.5569 52.4204 69.197 51.9041 68.953 51.4575C68.5782 50.7709 68.4996 50.4205 68.445 49.1926L68.3803 47.7399L68.7858 47.8418C69.1067 47.9222 69.2902 47.8448 69.664 47.4709C70.2194 46.9154 70.2566 46.5441 69.8128 45.9801C69.5762 45.6792 69.3458 45.5684 68.9566 45.5684C68.5009 45.5684 68.4117 45.5066 68.3375 45.1388C68.1163 44.0429 67.7597 43.0762 67.3135 42.3628C67.0459 41.9351 65.3749 40.1374 63.6002 38.368C60.0743 34.8529 59.5071 34.4525 57.5867 34.1235C56.3418 33.9103 55.0084 34.1198 53.7774 34.722C53.1227 35.0422 52.894 35.0913 52.7214 34.948C52.539 34.7967 52.4923 33.4884 52.4485 27.3185C52.387 18.6135 52.4593 19.06 50.7353 16.7376C49.984 15.7255 49.6728 14.8315 49.6728 13.6844C49.6728 12.8153 49.6942 12.7648 50.1024 12.6687C50.8556 12.4913 51.5476 11.9698 51.8713 11.3355C52.1684 10.7531 52.183 10.4697 52.1397 6.12923C52.0964 1.77482 52.0775 1.51675 51.772 1.10779C51.5948 0.87066 51.2558 0.531836 51.0186 0.354691C50.5929 0.0366435 50.4381 0.0322695 38.9218 0.00430749C32.5058 -0.0111575 27.1509 0.0163358 27.022 0.0656989ZM49.7926 6.32012L49.7509 10.3426L43.7448 10.3835C37.8313 10.4238 37.7332 10.4296 37.3792 10.7622C36.7898 11.3159 36.9207 12.1553 37.6557 12.5353C38.0142 12.7208 38.9655 12.7639 42.6945 12.7639H47.2913L47.3579 14.1307C47.4341 15.6974 47.8538 16.7968 48.9103 18.1958C50.1528 19.8415 50.0582 18.6543 50.1067 33.2239C50.1388 42.8681 50.1028 46.3781 49.9683 46.7025C49.5319 47.7563 48.2161 48.0997 47.3774 47.3786L46.9391 47.0017L46.861 39.8184C46.7872 33.0347 46.7663 32.617 46.4853 32.3066C46.1202 31.9035 45.2132 31.8657 44.8035 32.2365C44.5325 32.4818 44.5178 33.0041 44.5168 42.4293C44.5164 48.7563 44.4576 52.5738 44.3553 52.9424C44.0293 54.1162 42.6568 54.5598 41.7538 53.7832L41.3154 53.4062L41.2373 43.0087L41.1592 32.6113L40.8165 32.2687C40.3671 31.8194 39.6079 31.8196 39.1588 32.269L38.816 32.612L38.791 43.9719C38.7775 50.2198 38.7598 55.4952 38.752 55.6952C38.7443 55.8951 38.5325 56.2641 38.2813 56.5153C37.7494 57.0472 36.8553 57.1364 36.2568 56.7171C35.4492 56.1515 35.4575 56.2836 35.4575 43.9574C35.4575 33.2389 35.4397 32.4791 35.1841 32.2487C34.67 31.7854 34.1361 31.7641 33.644 32.1873L33.1924 32.5756L33.1143 42.9909L33.0362 53.4062L32.5979 53.7832C31.9624 54.3297 31.0867 54.298 30.4221 53.7043L29.9119 53.2486L29.8699 41.8L29.8277 30.3515L29.4911 29.9931C29.0439 29.517 28.3647 29.5276 27.8742 30.0183C27.5035 30.3888 27.4907 30.4751 27.4907 32.5866C27.4907 33.9006 27.4272 34.8106 27.3316 34.8696C26.9152 35.1271 25.4914 33.8361 25.0039 32.759C24.7066 32.1023 24.6856 31.7479 24.6838 27.3697C24.6815 21.597 24.5726 21.9393 27.3055 19.1266C28.3275 18.0748 29.3068 16.9333 29.4816 16.5903C29.9541 15.6625 30.3025 14.3647 30.3025 13.5321V12.795L31.722 12.7403C33.0521 12.6892 33.1652 12.6581 33.5184 12.2474C33.9794 11.7113 33.9931 11.3681 33.5743 10.8359L33.2535 10.4279L30.4891 10.3852L27.725 10.3426L27.6833 6.32012L27.6416 2.29766H38.7379H49.8343L49.7926 6.32012ZM30.686 5.49298C29.9908 6.18797 30.3033 7.32503 31.2463 7.53217C32.0738 7.714 32.9304 6.89248 32.7331 6.10627C32.4862 5.12229 31.3861 4.79268 30.686 5.49298ZM23.3078 12.5385C22.8683 12.8462 22.8243 13.8425 23.2339 14.2115C24.053 14.9497 25.1475 14.4778 25.1475 13.3862C25.1475 12.7037 24.738 12.2952 24.054 12.2952C23.8345 12.2952 23.4987 12.4047 23.3078 12.5385ZM52.5838 12.6191C51.7667 13.2619 52.2197 14.6384 53.2483 14.6384C54.3587 14.6384 54.8265 13.384 53.986 12.6611C53.4619 12.2103 53.1166 12.1999 52.5838 12.6191ZM19.2825 15.1781C19.0716 15.389 18.899 15.7436 18.899 15.9662C18.899 16.487 19.5498 17.1378 20.0706 17.1378C20.6151 17.1378 21.2422 16.4873 21.2422 15.9225C21.2422 15.3598 20.6661 14.7946 20.0924 14.7946C19.8478 14.7946 19.5023 14.9582 19.2825 15.1781ZM56.9078 15.1081C56.185 15.3993 56.0142 16.4085 56.5952 16.9544C57.1068 17.4349 57.8436 17.4031 58.2531 16.8824C58.7789 16.2141 58.6233 15.5469 57.8452 15.1325C57.452 14.9232 57.372 14.9212 56.9078 15.1081ZM15.6948 18.2333C15.2596 18.7142 15.3281 19.4599 15.8488 19.9076C16.3277 20.3195 16.8668 20.2939 17.3759 19.8351C17.7504 19.4977 17.7291 18.6235 17.3369 18.2313C16.9229 17.8173 16.0703 17.8184 15.6948 18.2333ZM60.5083 18.4106C60.1752 18.5753 59.8266 19.1558 59.8266 19.5454C59.8266 19.6586 59.9723 19.9365 60.1504 20.1629C60.7932 20.98 62.1698 20.527 62.1698 19.4983C62.1698 18.6401 61.2551 18.0413 60.5083 18.4106ZM12.6777 21.8732C11.7726 22.8369 12.8595 24.2395 14.0388 23.6297C14.7811 23.2459 14.9132 22.409 14.3198 21.8514C13.8394 21.4002 13.113 21.4099 12.6777 21.8732ZM63.2904 22.4981C63.1036 22.6969 62.9508 23.0517 62.9508 23.2863C62.9508 23.829 63.5897 24.4798 64.1224 24.4798C64.6314 24.4798 65.294 23.8331 65.294 23.3363C65.294 22.2902 63.996 21.7472 63.2904 22.4981ZM10.5204 25.5998C10.1878 25.7609 9.83868 26.3403 9.83868 26.7311C9.83868 26.8444 9.98442 27.1223 10.1625 27.3486C10.5682 27.8644 11.4042 27.913 11.8694 27.4478C12.3346 26.9826 12.2861 26.1466 11.7702 25.7409C11.3197 25.3864 11.0289 25.3536 10.5204 25.5998ZM65.7922 26.6728C65.3326 27.101 65.3326 27.9508 65.7922 28.379C66.686 29.2118 68.0229 28.3089 67.6175 27.1462C67.3309 26.3239 66.4201 26.0877 65.7922 26.6728ZM8.45995 30.1525C7.57016 31.0997 8.53477 32.5049 9.75354 32.0372C9.89273 31.9837 10.1149 31.7305 10.2473 31.4743C10.8503 30.3082 9.35364 29.2013 8.45995 30.1525ZM67.9496 30.9952C67.1456 31.2909 66.8927 32.3269 67.481 32.9152C67.8732 33.3075 68.7474 33.3287 69.0848 32.9543C69.2202 32.8039 69.3789 32.4894 69.4374 32.2552C69.5234 31.9108 69.4536 31.7396 69.0711 31.357C68.6043 30.8903 68.4078 30.8268 67.9496 30.9952ZM7.54564 34.5069C7.06872 34.7375 6.81628 35.4078 7.01233 35.9231C7.19244 36.3969 7.61671 36.6643 8.18814 36.6643C9.17181 36.6643 9.59592 35.2692 8.80221 34.645C8.35029 34.2894 8.06114 34.2576 7.54564 34.5069ZM68.4893 36.1106C68.2784 36.3214 68.1058 36.6761 68.1058 36.8987C68.1058 37.4195 68.7566 38.0702 69.2774 38.0702C69.7982 38.0702 70.449 37.4195 70.449 36.8987C70.449 36.3778 69.7982 35.7271 69.2774 35.7271C69.0548 35.7271 68.7002 35.8997 68.4893 36.1106ZM24.8819 36.6764L25.3193 36.8779L23.6452 38.5572C22.2494 39.9573 21.9712 40.3158 21.9712 40.7135C21.9712 41.3788 22.4161 41.8193 23.088 41.8193C23.5786 41.8193 23.8354 41.6219 25.5563 39.9206L27.4769 38.0218L27.5228 45.8176L27.5688 53.6134L28.0235 54.4341C28.833 55.895 30.0678 56.5767 31.7021 56.465C32.264 56.4266 32.8359 56.3458 32.9731 56.2855C33.1644 56.2013 33.2844 56.3383 33.4889 56.874C33.6434 57.2782 34.0553 57.8484 34.4679 58.2286L35.1802 58.8852L33.0927 60.9858C31.9447 62.1411 30.7363 63.2263 30.4071 63.3972C30.0782 63.5683 29.2127 63.8046 28.4842 63.9226C26.8057 64.1942 25.379 64.8583 24.3183 65.8615L23.4918 66.6432L17.4967 60.6465L11.5016 54.6498L12.0397 54.0536C13.5354 52.3957 13.7705 51.6184 13.8966 47.9116C13.9772 45.5384 14.0598 44.7275 14.2709 44.2408C14.449 43.8296 15.6465 42.5043 17.7747 40.3628C21.5905 36.5231 21.9106 36.3057 23.5853 36.4175C24.0579 36.4491 24.6413 36.5656 24.8819 36.6764ZM6.96984 39.3313C6.17613 39.9556 6.60024 41.3507 7.58391 41.3507C8.49572 41.3507 9.02122 40.6477 8.73129 39.8159C8.58226 39.3884 8.04333 39.0075 7.58735 39.0075C7.47409 39.0075 7.19619 39.1533 6.96984 39.3313ZM69.0989 40.726C68.7046 40.8833 68.262 41.4688 68.262 41.8331C68.262 41.9741 68.4078 42.2749 68.5859 42.5012C69.2287 43.3183 70.6052 42.8653 70.6052 41.8367C70.6052 41.025 69.8131 40.4409 69.0989 40.726ZM7.38943 43.8796C6.91251 44.1102 6.66007 44.7805 6.85612 45.2958C7.03623 45.7696 7.4605 46.0371 8.03193 46.0371C9.01559 46.0371 9.43971 44.6419 8.646 44.0177C8.19408 43.6622 7.90493 43.6303 7.38943 43.8796ZM8.12034 48.6927C7.65514 49.1579 7.70372 49.9939 8.21954 50.3996C8.78362 50.8434 9.15494 50.8062 9.71043 50.2509C10.093 49.8683 10.1628 49.6971 10.0767 49.3527C10.0183 49.1185 9.85961 48.8039 9.72417 48.6536C9.38675 48.2792 8.51259 48.3004 8.12034 48.6927ZM74.9018 57.2851L77.711 60.0976L69.8624 67.9461L62.0139 75.7947L59.1635 72.9443L56.3129 70.0937L64.1224 62.2831C68.4176 57.9873 71.968 54.4725 72.0122 54.4725C72.0563 54.4725 73.3567 55.7382 74.9018 57.2851ZM71.6575 58.7293C71.278 59.0174 71.0584 59.7228 71.2177 60.1416C71.4217 60.6782 71.8209 60.9397 72.4363 60.9397C73.1127 60.9397 73.5732 60.4439 73.5732 59.7156C73.5732 58.7896 72.3842 58.1774 71.6575 58.7293ZM50.1686 68.2682C49.6881 68.7798 49.72 69.5167 50.2406 69.9261C50.9184 70.4594 51.5726 70.3312 51.956 69.5901C52.559 68.424 51.0623 67.3171 50.1686 68.2682ZM27.3344 69.0003C26.8692 69.4655 26.9178 70.3015 27.4336 70.7072C27.9665 71.1263 28.3117 71.116 28.8358 70.6652C29.6764 69.9422 29.2085 68.6878 28.0982 68.6878C27.8499 68.6878 27.5063 68.8284 27.3344 69.0003ZM17.7061 69.3392C17.34 69.5165 17.0244 70.0892 17.0244 70.5769C17.0244 71.0585 17.7163 71.6559 18.2741 71.6559C18.832 71.6559 19.5238 71.0585 19.5238 70.5769C19.5238 70.0656 19.2025 69.515 18.7964 69.3299C18.3424 69.123 18.149 69.1248 17.7061 69.3392ZM45.876 69.6424C45.155 70.0619 45.2429 71.2816 46.0198 71.6356C46.562 71.8827 46.7596 71.8586 47.2304 71.4882C48.0383 70.8529 47.5947 69.4625 46.5876 69.4736C46.3514 69.4762 46.0312 69.5522 45.876 69.6424ZM31.8885 70.2109C31.7109 70.3612 31.5201 70.6758 31.4648 70.9099C31.3841 71.2511 31.4578 71.4294 31.8366 71.8082C32.3921 72.3635 32.7634 72.4007 33.3275 71.9569C34.1447 71.3141 33.6917 69.9375 32.663 69.9375C32.4148 69.9375 32.0663 70.0606 31.8885 70.2109ZM41.4427 70.4038C40.3119 70.8707 40.7329 72.5931 41.9781 72.5931C42.5347 72.5931 43.1119 71.9947 43.1119 71.4178C43.1119 70.6619 42.1838 70.0981 41.4427 70.4038ZM36.7564 70.5635C35.6652 71.0032 36.0498 72.7493 37.238 72.7493C38.2943 72.7493 38.791 71.5385 38.042 70.7897C37.641 70.3885 37.3275 70.3334 36.7564 70.5635Z" fill="#30B2E6"/>
</svg>
