<svg width="50" height="80" viewBox="0 0 50 80" fill="none" xmlns="http://www.w3.org/2000/svg">
<path fill-rule="evenodd" clip-rule="evenodd" d="M19.1084 0.157649C16.7896 0.496188 14.7791 1.04063 13.5427 1.66453C12.1246 2.37995 9.48862 4.93244 8.43776 6.60782C8.11746 7.11795 7.20202 8.24239 6.40251 9.10682C4.66406 10.9869 3.26816 13.6095 3.40018 14.7488C3.47407 15.3882 3.68554 15.5956 4.34067 15.6711C5.10338 15.7589 5.26323 15.5929 5.97833 13.9707C6.41426 12.9819 7.3835 11.5468 8.1323 10.7816C8.88111 10.0164 9.88312 8.66874 10.3592 7.78668C12.4446 3.92301 17.0734 2.20805 24.5995 2.51073C27.7329 2.63656 29.075 2.84123 31.1659 3.51119C35.5809 4.92564 38.9604 6.85948 41.6644 9.51802C44.7876 12.589 45.5422 14.1286 45.5422 17.4287C45.5422 20.1206 45.8004 19.545 42.6073 23.9741C42.0959 24.6836 41.4869 26.0053 41.2544 26.9112L40.8315 28.5587L39.3221 28.4641C35.3981 28.218 29.0945 25.9429 25.3913 23.4361C22.4425 21.4398 18.9167 18.1667 16.9442 15.5935C14.9278 12.9631 13.9054 12.2606 12.9544 12.8524C12.5874 13.0812 9.19584 20.692 7.88435 24.2304C7.71987 24.6744 6.73857 23.7883 6.35768 22.8518C6.18207 22.4196 5.87507 21.3805 5.67596 20.5423C5.26693 18.8224 4.57471 18.1673 3.72728 18.6985C2.9556 19.1823 2.91571 20.0446 3.57517 21.9976L4.15146 23.7051L3.09503 24.5482C1.53373 25.7939 0.882316 27.4884 0.874277 30.3247C0.865621 33.3289 1.69419 35.7095 3.2122 37.0423C4.26523 37.9667 4.56853 38.0604 6.69715 38.1157C7.64351 38.1405 7.78758 38.2762 8.33172 39.6535C9.79037 43.3453 13.0923 46.9184 16.8892 48.9134L19.1084 50.0796V51.6088V53.1376H17.6244C16.8082 53.1376 15.9734 53.3046 15.7694 53.5086C15.5594 53.7185 15.3984 54.7246 15.3984 55.8274V57.7751H14.2266C12.5679 57.7751 9.6732 58.583 7.92795 59.5327C5.74924 60.7187 2.8882 63.8487 1.71058 66.3354L0.712891 68.4414V74.161V79.8806L5.71368 79.9653C10.5382 80.0473 10.7216 80.0278 10.9176 79.4095C11.3313 78.1069 10.6557 77.871 6.50948 77.871H2.64334L2.77937 73.6045C2.90675 69.6156 2.97848 69.2032 3.88341 67.2694C5.07773 64.7178 7.21222 62.5249 9.68278 61.312C11.4515 60.4436 11.7483 60.3984 16.3642 60.2992L21.195 60.1956L21.4114 62.5045C21.6012 64.5317 20.9445 72.1443 20.1722 76.8662L20.0078 77.871H17.2503C14.7807 77.871 14.457 77.9378 14.1512 78.5092C13.3217 80.059 13.1677 80.0467 32.056 79.9604L49.5614 79.8806L49.6588 75.3977C49.7686 70.3502 49.4582 68.3783 48.1433 65.7653C47.2037 63.8988 46.7879 63.5692 45.9287 64.011C45.1883 64.3919 45.2498 65.253 46.1442 67.0177C47.1298 68.9627 47.6066 71.8209 47.4906 75.0885L47.3973 77.7165L38.9155 77.7987C34.2508 77.8441 30.3371 77.7746 30.2183 77.6441C29.7404 77.1198 28.5869 64.4429 28.8231 62.3088L29.0568 60.195L33.8987 60.3044C38.6568 60.412 38.7739 60.4312 40.6639 61.4131C41.7219 61.9628 42.8602 62.4126 43.1938 62.4126C43.9506 62.4126 44.3396 61.3117 43.8084 60.672C42.782 59.435 38.1865 57.7751 35.7883 57.7751C34.8821 57.7751 34.876 57.7631 34.876 55.968C34.876 53.7813 34.398 53.2236 32.402 53.082L31.0114 52.983L30.9186 51.5509L30.8258 50.1186L32.7736 49.2019C36.7118 47.3481 40.2731 43.6171 41.7296 39.819C42.4329 37.9837 42.4747 37.942 43.443 38.0963C47.0123 38.6655 49.6727 34.9412 49.3398 29.8415C49.1651 27.1666 48.2611 25.2185 46.7925 24.3519L45.7571 23.7413L46.7904 22.0254C52.5025 12.5392 38.6806 -0.215207 22.9244 0.00275639C21.2506 0.025944 19.5335 0.0958158 19.1084 0.157649ZM22.7182 24.4511C25.4708 26.4298 29.1322 28.3457 31.9862 29.3001C33.9076 29.9429 38.667 30.8775 40.0177 30.8775C40.722 30.8775 40.7501 30.965 40.7501 33.1638C40.7501 40.0094 35.8344 46.284 29.0967 48.0388C26.8923 48.6129 23.1705 48.6278 21.0772 48.0703C16.098 46.7443 11.8408 42.6921 10.1246 37.6443C9.58199 36.0486 9.43947 34.8389 9.38165 31.3413L9.31023 27.0129L11.3068 22.2208C12.4053 19.5851 13.4299 17.0997 13.5839 16.6978C13.8501 16.0034 14.0257 16.1364 17.0626 19.3258C18.8218 21.173 21.3665 23.4794 22.7182 24.4511ZM6.36355 26.4122C7.01806 26.8704 7.05083 27.0998 7.05083 31.2139C7.05083 35.8904 6.97014 36.1037 5.3535 35.6981C4.07849 35.3781 3.21932 33.3165 3.21561 30.5683C3.21282 28.2375 3.57919 27.0729 4.55059 26.3272C5.20603 25.8242 5.54704 25.8399 6.36355 26.4122ZM46.185 27.0732C47.0566 28.3698 47.3119 30.1148 46.9289 32.1581C46.4592 34.6648 45.2223 36.082 43.8125 35.729L43.0689 35.5429L43.2457 31.4325C43.3468 29.0853 43.588 27.0157 43.8078 26.6076C44.3331 25.6331 45.3509 25.8325 46.185 27.0732ZM21.8881 40.279C21.3069 40.8602 21.5691 41.7089 22.4319 42.0394C22.8994 42.2184 23.9809 42.3721 24.8348 42.3807C27.8594 42.4119 29.1041 41.7605 28.4057 40.5124C28.1692 40.0898 27.5882 39.9958 25.156 39.9853C23.5273 39.9785 22.0566 40.1105 21.8881 40.279ZM28.6926 51.9541C28.6926 52.9682 28.5816 53.1262 27.656 53.4316C27.0858 53.6199 26.3033 54.1102 25.9169 54.5214L25.2148 55.269L24.0937 54.3891C23.4772 53.9053 22.6601 53.4165 22.2774 53.3027C21.7193 53.137 21.5817 52.8708 21.5817 51.9575V50.8188H25.1372H28.6926V51.9541ZM21.6797 55.5896C22.0962 55.7476 22.7405 56.3041 23.1124 56.8263L23.788 57.7751H20.6752H17.5625V56.7447C17.5625 56.1777 17.6553 55.6212 17.7688 55.508C18.0751 55.2016 20.8094 55.2585 21.6797 55.5896ZM32.4026 56.5384V57.7751H29.4547C26.7356 57.7751 26.5293 57.7328 26.798 57.2307C27.5428 55.8391 28.5448 55.3599 30.7795 55.3262L32.4026 55.3018V56.5384ZM26.5426 61.717L26.3738 63.1856L25.0599 63.2805C23.8043 63.3714 23.7456 63.3371 23.7416 62.5076C23.7394 62.0302 23.6535 61.3268 23.5511 60.9441C23.3746 60.2856 23.4534 60.2485 25.0379 60.2485H26.7114L26.5426 61.717ZM26.9594 70.9921C27.2679 73.8401 27.5929 76.5534 27.6813 77.0208L27.8424 77.871H25.1758C22.84 77.871 22.5099 77.8039 22.5154 77.33C22.5188 77.0326 22.7964 74.4934 23.1322 71.6877C23.468 68.882 23.7437 66.4127 23.7444 66.2C23.7453 65.9511 24.218 65.8135 25.0722 65.8135H26.3983L26.9594 70.9921Z" fill="#30B2E6"/>
</svg>
