<svg width="70" height="80" viewBox="0 0 70 80" fill="none" xmlns="http://www.w3.org/2000/svg">
<path fill-rule="evenodd" clip-rule="evenodd" d="M49.2767 0.437286C42.2365 1.96676 36.4366 9.04968 36.4366 16.1173V18.1321H22.1103H7.78379L6.80857 18.953C5.43759 20.1065 4.9755 21.8002 5.61459 23.3297C6.0534 24.3798 6.05564 24.6356 5.63468 25.6433C4.97805 27.2143 5.32789 28.7555 6.59331 29.8663L7.61349 30.7624L3.85231 47.0098C1.78356 55.9462 0.0888935 63.9195 0.0860234 64.7288C0.0640188 71.3426 4.27327 77.229 10.5324 79.3376C12.3856 79.9621 13.1934 80 24.5934 80C35.7385 80 36.8486 79.9506 38.7286 79.3698C43.4516 77.9112 47.4666 73.7389 48.6979 69.0105C49.6444 65.3753 49.4496 64.0282 45.5155 46.9986C43.493 38.244 41.91 30.8941 41.9977 30.6658C42.2397 30.035 43.0179 30.1648 44.3745 31.0625C46.6926 32.5968 48.806 33.2005 52.4329 33.365C55.2709 33.4939 56.1951 33.409 58.0272 32.8525C64.928 30.7564 69.9333 24.0284 69.917 16.8693C69.9049 11.4102 67.5676 6.71847 63.2247 3.43405C59.1351 0.341296 54.4006 -0.676016 49.2767 0.437286ZM55.9262 2.82909C62.8567 4.13373 67.8266 10.7619 67.2806 17.9727C66.4942 28.3585 54.8085 34.2844 45.7646 28.8834C44.4488 28.0976 44.09 27.7102 44.0884 27.074C44.0872 26.6284 43.8805 25.8694 43.6289 25.3873C43.2315 24.6254 43.2315 24.3951 43.6289 23.6333C44.9648 21.0725 43.0727 18.1321 40.089 18.1321H38.8966L39.0714 15.5812C39.2994 12.255 40.5342 9.55578 43.0185 6.95095C46.4381 3.36612 51.0148 1.90458 55.9262 2.82909ZM51.9568 5.26968C51.8398 5.3864 51.7441 5.96043 51.7441 6.5453V7.60822H49.8307H47.9172V10.6965C47.9172 15.4919 49.1957 17.4159 52.8338 18.0958C55.0486 18.5094 55.571 19.1345 55.571 21.3706V23.2346H54.0195C52.3472 23.2346 50.9915 22.467 50.6254 21.3129C50.471 20.8269 50.14 20.6834 49.1715 20.6834C47.7335 20.6834 47.6672 20.8996 48.5247 22.7878C49.0863 24.0246 50.6318 25.467 51.3946 25.467C51.5961 25.467 51.7441 26.0745 51.7441 26.9021V28.3371H53.0006C54.222 28.3371 54.2596 28.304 54.3559 27.1412L54.4548 25.9453L56.4837 25.8494L58.5123 25.7537L58.3917 22.4999C58.2179 17.8037 57.1323 16.2397 53.5785 15.5659C51.3496 15.1433 50.7195 14.4564 50.5364 12.2512L50.3894 10.4784H52.204C54.4012 10.4784 55.0808 10.8037 55.5209 12.0662C55.8082 12.8903 56.0178 13.0296 56.9707 13.0296C58.3703 13.0296 58.481 12.8392 57.9599 11.3244C57.4554 9.85587 56.4789 8.75405 55.2205 8.23296C54.3987 7.89268 54.2954 7.69368 54.2954 6.45346C54.2954 5.08344 54.2753 5.05697 53.2324 5.05697C52.6476 5.05697 52.0735 5.15264 51.9568 5.26968ZM44.0903 16.8565V18.1321H45.366H46.6416V16.8565V15.5809H45.366H44.0903V16.8565ZM59.7168 16.8565V18.1321H60.9924H62.268V16.8565V15.5809H60.9924H59.7168V16.8565ZM41.3433 21.4009C41.6 21.8078 41.6 22.1102 41.3433 22.5171C41.0167 23.035 39.816 23.0812 24.6948 23.1578C8.65727 23.2391 8.3929 23.2302 8.0555 22.5997C7.8109 22.1427 7.8109 21.7753 8.0555 21.3183C8.3929 20.6879 8.65727 20.6789 24.6948 20.7602C39.816 20.8368 41.0167 20.883 41.3433 21.4009ZM40.9223 26.116C41.6175 26.4881 41.7311 27.3798 41.1564 27.9545C40.8688 28.2421 36.751 28.3371 24.5844 28.3371C9.48803 28.3371 8.376 28.2995 8.10812 27.7791C7.78985 27.1601 7.9627 26.3889 8.50037 26.0299C9.06675 25.6516 40.2089 25.7342 40.9223 26.116ZM39.0959 31.1276C39.176 31.259 40.8621 38.2551 42.8431 46.6743C46.066 60.3723 46.4467 62.301 46.4633 65.0184C46.4805 67.8123 46.4002 68.2212 45.4575 70.1362C44.3072 72.4722 42.0525 74.9415 40.2128 75.88L38.9878 76.5051V73.1499V69.795H32.4503H25.9127V67.2437V64.6925H28.3969C35.853 64.6925 40.885 60.4686 41.453 53.7333L41.6376 51.544L37.0441 51.6849C31.7796 51.8466 30.6379 52.1764 27.7464 54.3708L25.9127 55.7625V51.1747V46.5872L29.1815 46.4539C31.7503 46.3493 32.7389 46.1704 33.797 45.6184C36.657 44.1268 38.5608 41.3106 38.8947 38.0781L39.0771 36.3098L34.6475 36.3168C29.6483 36.3248 28.5653 36.6313 26.2982 38.6793C24.5162 40.2891 23.6465 42.3027 23.4415 45.2928L23.2728 47.7554L22.2153 46.9485C20.5362 45.6681 18.5616 45.2392 14.3443 45.2392H10.5309L10.6654 47.2324C10.8242 49.5846 11.5912 51.3278 13.1564 52.8929C15.0367 54.7732 16.3943 55.2621 20.0926 55.3897L23.3614 55.5022V62.6486V69.795H16.9833H10.6052V73.1435C10.6052 74.9852 10.4897 76.492 10.3488 76.492C9.76069 76.492 7.16926 74.5885 6.02502 73.316C5.34766 72.5628 4.35331 71.0059 3.81532 69.8562C2.1181 66.2296 2.24789 65.0631 6.25208 47.9499C8.13969 39.8816 9.82543 32.7422 9.99764 32.0843L10.3108 30.8884H24.6307C32.5064 30.8884 39.0156 30.9962 39.0959 31.1276ZM46.6416 40.1367V43.9636H47.9172H49.1928V40.1367V36.3098H47.9172H46.6416V40.1367ZM51.7441 43.9636V51.6173H53.0197H54.2954V43.9636V36.3098H53.0197H51.7441V43.9636ZM57.1655 40.1367V43.9636H58.4411H59.7168V40.1367V36.3098H58.4411H57.1655V40.1367ZM35.948 39.5786C35.6269 40.6632 34.1082 42.4516 32.9152 43.1507C32.1498 43.5991 31.0675 43.8105 29.0424 43.9071C25.7912 44.0627 25.7051 43.962 27.1472 41.6878C28.4719 39.599 30.1312 38.8617 33.5081 38.8614C36.1094 38.8611 36.1566 38.8751 35.948 39.5786ZM46.6416 47.7904V49.0661H47.9172H49.1928V47.7904V46.5148H47.9172H46.6416V47.7904ZM57.1655 47.7904V49.0661H58.4411H59.7168V47.7904V46.5148H58.4411H57.1655V47.7904ZM19.7954 48.6186C20.9821 49.2099 21.684 49.8334 22.25 50.7993C22.686 51.543 23.0425 52.3186 23.0425 52.5224C23.0425 52.773 22.2137 52.8929 20.4785 52.8929C16.805 52.8929 14.8004 51.7455 13.6456 48.9819L13.1478 47.7904H15.6407C17.6855 47.7904 18.4324 47.9394 19.7954 48.6186ZM7.59691 54.0069C7.33381 55.4091 7.34179 55.4206 8.76953 55.6521C9.8468 55.8269 9.89049 55.794 10.1054 54.6492C10.3685 53.2469 10.3606 53.2354 8.93281 53.0039C7.85554 52.8292 7.81185 52.862 7.59691 54.0069ZM38.6689 54.8909C38.6689 55.8604 37.5575 57.9132 36.325 59.2197C34.57 61.0802 32.5271 61.8963 29.1815 62.0727C26.2367 62.228 26.2316 62.2267 26.2316 61.4623C26.2316 59.664 28.6007 56.5374 30.8557 55.3603C32.4585 54.5235 33.7913 54.2518 36.5163 54.2052C38.5509 54.1705 38.6689 54.2081 38.6689 54.8909ZM51.9568 54.3813C51.8398 54.498 51.7441 55.072 51.7441 55.6569C51.7441 56.6844 51.7865 56.7198 53.0197 56.7198H54.2954V55.4442C54.2954 54.211 54.26 54.1686 53.2324 54.1686C52.6476 54.1686 52.0735 54.2642 51.9568 54.3813ZM6.65645 57.9393C6.58502 58.058 6.21636 59.6547 5.83782 61.4881C5.15249 64.807 5.16046 66.413 5.87163 68.2604C6.19978 69.1132 6.20743 69.1151 7.28725 68.6C8.47582 68.033 8.49208 67.981 8.0606 66.1276C7.83545 65.161 7.9206 64.0917 8.41204 61.7145C8.76889 59.9889 8.99723 58.5134 8.91941 58.4359C8.62187 58.1383 6.78051 57.7339 6.65645 57.9393ZM15.7077 74.8975V77.4487H14.432H13.1564V74.8975V72.3462H14.432H15.7077V74.8975ZM20.8102 74.8975V77.4487H19.5345H18.2589V74.8975V72.3462H19.5345H20.8102V74.8975ZM25.9127 74.8975V77.4487H24.637H23.3614V74.8975V72.3462H24.637H25.9127V74.8975ZM31.0152 74.8975V77.4487H29.7395H28.4639V74.8975V72.3462H29.7395H31.0152V74.8975ZM36.3703 74.8178L36.2771 77.2893L35.0812 77.3882L33.8853 77.4873V74.9166V72.3462H35.1744H36.4634L36.3703 74.8178Z" fill="#30B2E6"/>
</svg>
