<svg width="81" height="80" viewBox="0 0 81 80" fill="none" xmlns="http://www.w3.org/2000/svg">
<path fill-rule="evenodd" clip-rule="evenodd" d="M56.2031 0.0477724C49.8274 0.832712 43.9397 4.31086 40.5584 9.28994L39.8852 10.2812H21.788C8.05089 10.2812 3.53047 10.3285 3.02612 10.4775C2.13931 10.7395 0.801906 12.0769 0.539883 12.9638C0.254935 13.9281 0.254935 66.0457 0.539883 67.01C0.801906 67.8968 2.13931 69.2342 3.02612 69.4962C3.53434 69.6463 9.14484 69.6925 26.8794 69.6925C47.7475 69.6925 50.0682 69.7177 50.0682 69.9436C50.0682 70.0816 50.2834 70.7004 50.5466 71.3186C52.4223 75.7263 56.4764 78.9673 61.1299 79.7787C68.4659 81.058 75.2982 76.6861 77.3919 69.373C77.7221 68.22 77.7424 67.7645 77.798 60.3299C77.8424 54.3873 77.8077 52.3255 77.6536 51.7734C77.3898 50.827 76.0889 49.5003 75.154 49.224C74.2625 48.9607 73.428 48.9767 72.7244 49.2707C72.1436 49.5133 72.1424 49.513 71.4615 48.8853C71.0868 48.5398 70.6242 48.2077 70.4337 48.1472C70.0926 48.039 70.0873 47.9803 70.0873 44.2888V40.5406L71.3289 39.6583C75.6913 36.5586 78.8798 31.5412 80.0459 25.9412C80.4377 24.0596 80.4374 19.799 80.0451 17.8302C79.7158 16.1765 78.8244 13.5375 78.1262 12.1485C75.0651 6.05881 69.2629 1.64284 62.6208 0.347251C61.3235 0.0942683 57.3371 -0.091715 56.2031 0.0477724ZM62.6609 2.99557C68.3463 4.296 73.1673 8.08396 75.8059 13.3238C77.1658 16.0239 77.7558 18.6209 77.7558 21.9052C77.7558 24.4479 77.5668 25.7076 76.8556 27.9034C75.9183 30.798 74.3544 33.3268 72.1197 35.5615C70.4462 37.2349 68.7471 38.4336 66.6301 39.4342C65.3213 40.0529 63.0935 40.7941 62.543 40.7941C62.3909 40.7941 62.338 40.3772 62.338 39.1796C62.338 38.2518 62.4042 37.5652 62.4934 37.5652C62.579 37.5652 63.1223 37.1225 63.7007 36.5814C64.8791 35.479 65.741 33.9739 66.0523 32.4746C66.1726 31.895 66.2188 30.2516 66.1827 27.8311C66.1282 24.1537 66.1188 24.0646 65.6745 22.9949L65.2218 21.9052L65.6745 20.8154C66.1188 19.7457 66.1282 19.6566 66.1827 15.9792C66.2188 13.5587 66.1726 11.9153 66.0523 11.3358C65.3218 7.81677 62.0257 5.11501 58.4633 5.11501C54.9009 5.11501 51.6049 7.81677 50.8743 11.3358C50.7541 11.9153 50.7079 13.5587 50.7439 15.9792C50.7985 19.6566 50.8078 19.7457 51.2521 20.8154L51.7048 21.9052L51.2521 22.9949C50.8078 24.0646 50.7985 24.1537 50.7439 27.8311C50.7079 30.2516 50.7541 31.895 50.8743 32.4746C51.1856 33.9739 52.0475 35.479 53.2259 36.5814C53.8044 37.1225 54.3476 37.5652 54.4332 37.5652C54.5225 37.5652 54.5887 38.2518 54.5887 39.1796C54.5887 40.3173 54.5322 40.7941 54.3972 40.7941C53.8938 40.7941 51.6238 40.0519 50.4331 39.498C44.6791 36.8214 40.6377 31.651 39.3947 25.3762C39.0639 23.7064 39.1085 19.7434 39.4774 18.0305C40.7376 12.1772 44.5435 7.25075 49.8819 4.56255C51.37 3.81312 53.4991 3.11504 55.073 2.86028C55.739 2.75244 56.3928 2.63781 56.526 2.60553C57.2011 2.44182 61.4097 2.70933 62.6609 2.99557ZM60.6848 8.24346C61.8648 8.84145 62.3824 9.34096 62.9971 10.4748L63.5488 11.492V15.4474V19.4028L62.9971 20.42C62.3799 21.5584 61.8677 22.0506 60.6601 22.6662C59.7791 23.1153 58.216 23.2519 56.9745 22.9884L56.3736 22.8609L55.8817 23.946C55.6111 24.5427 55.4456 25.0867 55.5139 25.1549C55.754 25.3946 57.5723 25.7798 58.4633 25.7798C59.684 25.7798 61.0802 25.394 62.317 24.7149C62.8825 24.4043 63.3911 24.1959 63.4471 24.2516C63.5029 24.3074 63.572 25.9458 63.6005 27.8923C63.6583 31.849 63.5485 32.542 62.6494 33.8993C61.8964 35.0362 61.6533 35.1121 60.8813 34.4513C60.1964 33.8651 59.3154 33.5291 58.4633 33.5291C57.6112 33.5291 56.7302 33.8651 56.0454 34.4513C55.2733 35.1121 55.0302 35.0362 54.2772 33.8993C53.3748 32.5369 53.2632 31.8335 53.3275 27.9117C53.382 24.5785 53.4042 24.3681 53.7811 23.6003C54.29 22.5635 55.2619 21.5962 56.2838 21.1092C57.1411 20.7008 58.9854 20.5587 60.0103 20.8224C60.5001 20.9483 60.5145 20.9346 60.9391 19.9344C61.1762 19.3757 61.3699 18.8398 61.3698 18.7438C61.3691 18.4785 60.2984 18.1865 58.9476 18.0831C57.454 17.9688 56.072 18.2911 54.6109 19.0941C54.0446 19.4054 53.5356 19.6143 53.4795 19.5582C53.4237 19.5022 53.3778 17.6644 53.3778 15.4742C53.3778 11.5618 53.3848 11.4778 53.7776 10.6848C54.4656 9.29543 55.7683 8.22813 57.2525 7.83824C58.1324 7.60689 59.8225 7.8066 60.6848 8.24346ZM38.3526 13.1468C37.9543 14.0378 37.1339 16.6879 36.8906 17.8691C36.5866 19.3448 36.4878 23.1662 36.7102 24.8515L36.8326 25.7798H19.8797H2.92667V19.7184V13.6568L3.32301 13.2607L3.71919 12.8643H21.0991C37.5917 12.8643 38.4724 12.8787 38.3526 13.1468ZM8.09287 15.6584C7.78209 15.7564 7.16214 16.2031 6.71511 16.651C5.57418 17.7945 5.25905 19.0009 5.70608 20.5142C5.96811 21.401 7.30551 22.7384 8.19232 23.0004C9.12482 23.2758 19.9764 23.2758 20.9089 23.0004C21.7957 22.7384 23.1331 21.401 23.3952 20.5142C23.8178 19.0838 23.535 17.8775 22.5096 16.737C21.3655 15.4644 21.2418 15.4448 14.4815 15.4639C10.731 15.4745 8.45676 15.5438 8.09287 15.6584ZM10.676 19.3221V20.6136H9.78076C8.70345 20.6136 8.09287 20.1464 8.09287 19.3221C8.09287 18.4977 8.70345 18.0305 9.78076 18.0305H10.676V19.3221ZM15.8422 19.3221V20.6136H14.5506H13.2591V19.3221V18.0305H14.5506H15.8422V19.3221ZM20.612 18.4269C20.8619 18.6766 21.0084 19.0076 21.0084 19.3221C21.0084 20.1464 20.3978 20.6136 19.3205 20.6136H18.4253V19.3221V18.0305H19.3205C20.0558 18.0305 20.2867 18.1014 20.612 18.4269ZM37.8258 29.3316C38.3192 30.7907 39.5436 33.1215 40.5873 34.5888C43.5913 38.8122 48.055 41.8748 53.044 43.1358L54.5079 43.5057L54.5504 48.9305C54.5738 51.9142 54.5606 54.3554 54.5209 54.3554C54.4811 54.3554 54.0987 54.1397 53.671 53.8762C52.7682 53.32 51.2847 52.9009 50.2361 52.9059C48.8279 52.9127 47.4375 53.9199 46.9981 55.2517C46.6668 56.2555 46.897 57.2208 47.9834 59.3838C49.2697 61.9448 49.4183 62.5301 49.4205 65.051L49.4225 67.1094H26.5709H3.71919L3.32301 66.7131L2.92667 66.3169V47.3392V28.3615L20.2262 28.4025L37.5255 28.4436L37.8258 29.3316ZM19.7975 31.1123C17.6271 31.4474 14.6467 32.6297 12.7844 33.8943C11.715 34.6205 9.46046 36.8465 8.6576 37.9688C5.03916 43.0272 4.52318 49.6638 7.31552 55.2336C8.17843 56.9549 8.74042 57.7436 10.1726 59.2426C12.2063 61.3712 14.3293 62.7362 17.053 63.6661C21.8214 65.2943 27.5882 64.4798 31.7975 61.5838C32.8641 60.8499 34.9476 58.8194 35.8074 57.6758C38.4193 54.2017 39.5658 49.456 38.8523 45.0723C37.7761 38.4601 32.8365 33.1066 26.2553 31.4194C24.7666 31.0377 21.3371 30.8746 19.7975 31.1123ZM23.087 33.7608C23.7117 34.084 24.635 35.1448 25.114 36.0901C25.4468 36.747 26.1742 38.5061 26.1744 38.6549C26.1746 38.6771 24.431 38.6953 22.2999 38.6953C20.1689 38.6953 18.4253 38.6771 18.4254 38.6549C18.4256 38.5072 19.1516 36.7497 19.4798 36.1019C20.2016 34.6776 21.4443 33.531 22.2676 33.5298C22.4717 33.5294 22.8404 33.6334 23.087 33.7608ZM16.9529 35.4542C16.6901 35.9801 16.3078 36.9065 16.1035 37.5126L15.7321 38.6146L13.6076 38.6596C12.4391 38.6843 11.4832 38.6451 11.4832 38.5721C11.4832 38.407 12.6023 37.3355 13.6318 36.515C14.4132 35.8923 16.8904 34.5113 17.2419 34.5024C17.3525 34.4997 17.2325 34.8948 16.9529 35.4542ZM28.7276 35.1285C29.4176 35.4753 30.3786 36.0665 30.8632 36.4422C31.931 37.2699 33.1166 38.3907 33.1166 38.5721C33.1166 38.6451 32.1607 38.6843 30.9922 38.6596L28.8678 38.6146L28.4963 37.5126C28.2921 36.9065 27.9098 35.9801 27.6469 35.4542C27.3841 34.9282 27.2375 34.4978 27.3211 34.4978C27.4048 34.4978 28.0378 34.7816 28.7276 35.1285ZM59.3585 36.5085L59.7549 36.9047V50.0698V63.2348H61.0464H62.338V56.5276V49.8202L62.7343 49.424C62.9841 49.1741 63.315 49.0277 63.6295 49.0277C63.944 49.0277 64.275 49.1741 64.5247 49.424L64.9211 49.8202V56.5276V63.2348H66.2126H67.5042V57.1733V51.1118L67.9005 50.7156C68.1503 50.4657 68.4812 50.3193 68.7957 50.3193C69.1102 50.3193 69.4412 50.4657 69.6909 50.7156L70.0873 51.1118V57.1733V63.2348H71.3788H72.6704V57.8191V52.4033L73.0667 52.0071C73.5951 51.4787 74.3327 51.4826 74.867 52.0168L75.2732 52.423L75.2188 60.2101L75.1643 67.9973L74.7288 69.2889C74.0991 71.1555 73.2517 72.5024 71.7829 73.9712C70.3076 75.4465 68.9552 76.2951 67.1006 76.9089C65.9604 77.2862 65.5534 77.3364 63.6295 77.3367C61.7264 77.337 61.2931 77.285 60.2122 76.9265C58.2865 76.2878 56.9172 75.4397 55.4624 73.985C53.9981 72.5207 53.1458 71.1389 52.5328 69.2351C52.1988 68.1982 52.1134 67.5129 52.0062 65.0106C51.8574 61.5412 51.7485 61.0993 50.3619 58.3332C49.6761 56.9651 49.4259 56.3014 49.4935 56.0313C49.7394 55.0521 51.9993 55.504 53.2847 56.7894C54.3191 57.8238 54.4945 58.394 54.5598 60.9342L54.619 63.2348H55.8954H57.1718V50.0698V36.9047L57.5681 36.5085C57.8179 36.2586 58.1488 36.1122 58.4633 36.1122C58.7778 36.1122 59.1088 36.2586 59.3585 36.5085ZM15.0317 41.5609C15.0299 41.7162 14.9639 42.3157 14.885 42.8928C14.8059 43.47 14.6922 44.5053 14.6321 45.1934L14.523 46.4446H11.3324H8.14178L8.28353 45.5163C8.45482 44.3956 8.62805 43.7969 9.19456 42.3686L9.62658 41.2795L12.3308 41.2789C14.7999 41.2784 15.0346 41.3029 15.0317 41.5609ZM26.8804 41.5609C26.9849 41.9219 27.2562 43.9456 27.3891 45.3549L27.4918 46.4446H22.2999H17.108L17.2107 45.3549C17.3436 43.9456 17.615 41.9219 17.7194 41.5609C17.7948 41.3005 18.1542 41.2784 22.2999 41.2784C26.4456 41.2784 26.805 41.3005 26.8804 41.5609ZM35.4053 42.3686C35.9718 43.7969 36.145 44.3956 36.3163 45.5163L36.458 46.4446H33.2665H30.0749L29.975 45.3549C29.9199 44.7556 29.8051 43.6905 29.7199 42.9883C29.6346 42.286 29.5649 41.614 29.5649 41.4949C29.5649 41.3225 30.1152 41.2786 32.2691 41.2789L34.9733 41.2795L35.4053 42.3686ZM67.5042 44.9743C67.5042 48.5665 67.4623 48.6483 66.2055 47.5182C65.2791 46.6855 64.2977 46.3587 63.1357 46.4964L62.3265 46.5922L62.3725 45.0486L62.4187 43.5052L63.8717 43.1348C64.6708 42.9311 65.7969 42.5805 66.3741 42.3556C66.9512 42.1307 67.4417 41.9416 67.4638 41.9355C67.4859 41.9292 67.5042 43.2968 67.5042 44.9743ZM14.6321 50.2789C14.6922 50.967 14.8059 52.0023 14.885 52.5795C15.1297 54.3681 15.4068 54.1939 12.3159 54.1939H9.59688L9.18164 53.1042C8.61207 51.609 8.44853 51.0359 8.28353 49.956L8.14178 49.0277H11.3324H14.523L14.6321 50.2789ZM27.3891 50.1175C27.2562 51.5267 26.9849 53.5504 26.8804 53.9114C26.805 54.1718 26.4456 54.1939 22.2999 54.1939C18.1542 54.1939 17.7948 54.1718 17.7194 53.9114C17.615 53.5504 17.3436 51.5267 17.2107 50.1175L17.108 49.0277H22.2999H27.4918L27.3891 50.1175ZM36.3071 50.0046C36.1734 50.8874 35.7609 52.2437 35.1925 53.6692L34.9833 54.1939H32.2741C29.1944 54.1939 29.4701 54.3678 29.7149 52.5795C29.794 52.0023 29.9076 50.967 29.9677 50.2789L30.0768 49.0277H33.2658H36.455L36.3071 50.0046ZM16.1035 57.9597C16.3078 58.5658 16.6901 59.4922 16.9529 60.0182C17.2157 60.5441 17.3623 60.9745 17.2787 60.9745C16.9392 60.9745 14.5601 59.6685 13.7366 59.0301C12.6688 58.2024 11.4832 57.0816 11.4832 56.9002C11.4832 56.8272 12.4391 56.788 13.6076 56.8127L15.7321 56.8577L16.1035 57.9597ZM26.1746 56.8409C26.1746 57.0408 25.1877 59.2821 24.8341 59.8856C24.3331 60.7403 23.271 61.7345 22.7076 61.8759C21.4073 62.2023 20.01 60.7992 18.8868 58.039C18.6329 57.4154 18.4253 56.8761 18.4253 56.8409C18.4253 56.8057 20.1689 56.777 22.2999 56.777C24.431 56.777 26.1746 56.8057 26.1746 56.8409ZM32.919 57.1403C32.4575 57.8474 30.2727 59.5353 28.8934 60.25C28.1246 60.6486 27.423 60.9745 27.3345 60.9745C27.2459 60.9745 27.4119 60.4841 27.7033 59.8848C27.9947 59.2855 28.3608 58.3955 28.517 57.9071C28.6729 57.4187 28.8316 56.9648 28.8694 56.8981C28.9072 56.8314 29.8871 56.777 31.0471 56.777H33.156L32.919 57.1403Z" fill="#30B2E6"/>
</svg>
