<svg width="78" height="80" viewBox="0 0 78 80" fill="none" xmlns="http://www.w3.org/2000/svg">
<path fill-rule="evenodd" clip-rule="evenodd" d="M22.0284 0.0846229C17.7829 0.660868 13.7206 3.15798 11.3546 6.64578C8.57328 10.7459 7.91152 15.9836 9.60352 20.5057C10.1411 21.9424 11.2344 22.2899 12.1951 21.3292C12.8112 20.7131 12.8467 20.3828 12.4278 19.1656C11.7217 17.1128 11.6216 14.3619 12.1761 12.2463C12.7786 9.94785 14.362 7.4473 16.155 5.96291C17.3375 4.98395 19.5379 3.84835 21.0123 3.45611C22.4132 3.08341 25.5625 3.08513 26.9529 3.45923C31.2219 4.60797 34.5243 7.85736 35.7332 12.0988C36.2358 13.8621 36.2358 16.7274 35.7332 18.4907C34.7397 21.9764 32.4457 24.7115 29.2198 26.2564C26.2102 27.6978 23.2075 27.8591 19.859 26.7598C18.6916 26.3766 18.6003 26.3685 18.1073 26.6036C17.3614 26.9593 17.0195 27.6848 17.2442 28.4349C17.4518 29.1276 17.7719 29.3576 19.1771 29.823C21.5403 30.6057 24.1169 30.8038 26.5025 30.3859C32.5955 29.319 37.196 25.052 38.8672 18.9178C39.3373 17.1923 39.3373 13.3972 38.8672 11.6717C37.196 5.53753 32.5955 1.27057 26.5025 0.203593C25.2897 -0.0088644 23.1384 -0.0660824 22.0284 0.0846229ZM23.2181 5.50767C22.761 5.76093 22.4322 6.32482 22.4247 6.86808C22.4204 7.19326 22.2867 7.33317 21.7548 7.56955C20.9044 7.94756 19.6715 9.08864 19.2399 9.89735C18.7446 10.8253 18.7561 13.0628 19.2612 14.0114C20.0499 15.4935 21.4872 16.4571 23.3185 16.7318C25.0317 16.9889 25.0972 17.0107 25.5659 17.4794C27.0001 18.9136 24.9101 20.9748 22.9602 20.0495C22.3212 19.7462 22.0303 19.32 21.9023 18.4996C21.6889 17.1315 20.2032 16.5487 19.2806 17.4714C17.993 18.759 19.4402 21.9652 21.7347 22.9085C22.224 23.1099 22.4183 23.2796 22.4186 23.5065C22.4196 23.982 22.8642 24.5244 23.4559 24.7715C23.9088 24.9607 24.0564 24.9607 24.5093 24.7715C25.101 24.5244 25.5456 23.982 25.5465 23.5065C25.5469 23.2796 25.7412 23.1099 26.2305 22.9085C27.1924 22.5131 28.0576 21.7227 28.5994 20.7444C29.0118 19.9998 29.0634 19.7587 29.0634 18.5778C29.0634 16.9913 28.6953 16.1127 27.6119 15.114C26.7198 14.2919 25.8051 13.9017 24.4003 13.7441C23.1112 13.5995 22.7411 13.4441 22.2751 12.8514C21.2574 11.5576 22.754 9.89298 24.5688 10.3002C25.268 10.4572 26.0149 11.2254 26.0149 11.7874C26.0149 12.7948 26.9867 13.6448 27.9317 13.4641C28.1692 13.4188 28.5385 13.1736 28.7525 12.9193C29.8513 11.6134 28.4989 8.65138 26.3429 7.64162C25.7263 7.35287 25.5459 7.18747 25.5459 6.91154C25.5459 5.69543 24.2688 4.92517 23.2181 5.50767ZM54.2331 18.2778C53.7172 18.3498 52.6138 18.629 51.781 18.8984C46.7505 20.5255 42.9688 24.5697 41.6287 29.7556C41.1175 31.7332 41.1123 35.0673 41.6171 37.084C42.731 41.5339 45.6867 45.1621 49.8558 47.1969C52.1482 48.3158 53.7097 48.6596 56.4999 48.6596C59.2941 48.6596 60.8483 48.3166 63.1657 47.1883C67.2904 45.1801 70.127 41.6813 71.3833 37.0525C71.8117 35.4746 71.8587 31.699 71.4696 30.1386C71.0061 28.2798 70.586 27.3488 70.0965 27.0957C69.4726 26.7731 68.8094 26.8057 68.33 27.1828C67.7126 27.6684 67.6732 28.3022 68.1604 29.9132C68.7438 31.843 68.7865 34.7575 68.2584 36.6016C67.0928 40.6724 64.2731 43.635 60.2435 45.0233C58.8421 45.506 58.6512 45.532 56.4999 45.532C54.3474 45.532 54.1582 45.5062 52.7479 45.0212C48.9737 43.7235 46.1982 40.9469 44.9111 37.1814C44.4397 35.8027 44.4027 35.5449 44.3944 33.5858C44.3842 31.1532 44.5953 30.1574 45.5375 28.1923C47.0847 24.9654 49.8142 22.6759 53.304 21.6774C55.1576 21.1471 58.077 21.1826 59.9807 21.7587C61.7263 22.2871 62.0435 22.2819 62.609 21.7165C62.959 21.3664 63.0659 21.1157 63.0659 20.645C63.0659 19.754 62.5793 19.3099 61.0856 18.8381C58.937 18.1593 56.5063 17.9606 54.2331 18.2778ZM65.4583 22.3606C65.2693 22.4519 65.0005 22.767 64.8611 23.0608C64.2636 24.3202 65.3976 25.5867 66.7294 25.1472C67.3871 24.9301 67.7559 24.3929 67.7559 23.652C67.7559 22.5357 66.5264 21.8445 65.4583 22.3606ZM13.6013 23.6628C12.9602 23.9972 12.7372 24.3497 12.7316 25.0385C12.7183 26.635 14.9253 27.1301 15.6113 25.6847C15.7443 25.4042 15.8533 25.0939 15.8533 24.9951C15.8533 24.6 15.3531 23.8851 14.9204 23.6613C14.349 23.3658 14.1705 23.3659 13.6013 23.6628ZM55.9337 23.9627C55.3746 24.2045 54.9369 24.7553 54.936 25.2177C54.9356 25.4445 54.7413 25.6143 54.252 25.8157C52.5658 26.509 51.3409 28.297 51.3409 30.0654C51.3409 31.5111 51.7177 32.4222 52.7374 33.443C53.6861 34.3928 54.9463 34.992 55.9978 34.9937C56.9364 34.9951 57.7026 35.2814 58.1314 35.791C59.2528 37.1237 57.8009 38.8475 55.9137 38.424C55.2571 38.2765 54.4676 37.5088 54.4676 37.0176C54.4676 36.4901 54.0453 35.6541 53.6803 35.4586C53.4905 35.3572 53.0825 35.2742 52.7734 35.2742C52.3364 35.2742 52.1101 35.3875 51.7566 35.783C51.3347 36.2555 51.3075 36.3607 51.3789 37.2493C51.5113 38.8997 52.5458 40.3361 54.1393 41.0824C54.7562 41.3713 54.9366 41.5366 54.9366 41.8126C54.9366 42.669 55.6745 43.4348 56.4999 43.4348C57.3254 43.4348 58.0633 42.669 58.0633 41.8126C58.0633 41.5367 58.2437 41.3713 58.8602 41.0826C59.9061 40.5928 61.0845 39.2993 61.4285 38.2633C61.9766 36.6133 61.5071 34.7214 60.2335 33.4479C59.389 32.6032 58.4481 32.1786 56.9208 31.9527C55.0402 31.6746 54.4641 31.2508 54.471 30.1506C54.4751 29.5078 54.8134 29.0307 55.515 28.6781C56.779 28.0431 58.5323 28.8642 58.5323 30.0911C58.5323 30.554 59.0184 31.3547 59.4069 31.5317C60.1014 31.8481 60.7064 31.7484 61.2226 31.232C61.6777 30.7771 61.6966 30.7075 61.6209 29.7647C61.4823 28.0372 60.3537 26.4781 58.7669 25.8218C58.2301 25.5998 58.0761 25.4435 57.9655 25.0085C57.7354 24.1027 56.7649 23.6031 55.9337 23.9627ZM63.9258 48.5534C62.8769 48.933 62.5433 49.1756 58.7117 52.3458C56.8929 53.8505 54.9664 55.3477 54.4305 55.6728C53.2027 56.4181 51.7599 56.868 50.2138 56.9878C49.0538 57.0777 48.9687 57.0603 47.9469 56.5275C45.581 55.2934 35.076 50.6212 33.9098 50.2842C32.8353 49.9737 32.3067 49.9227 30.1578 49.9227C28.021 49.9227 27.4741 49.9748 26.4058 50.2801C25.7179 50.4768 22.6705 51.7675 19.6337 53.1485C16.5969 54.5296 14.0831 55.6305 14.0476 55.5948C14.012 55.5593 13.6052 54.7606 13.1437 53.8203C12.2187 51.9354 12.0573 51.7437 11.2944 51.6219C10.8529 51.5516 10.0001 51.9122 5.76976 53.9588C0.498821 56.5086 0.222736 56.6946 0.220704 57.6977C0.220235 57.9494 0.406272 58.3338 0.672976 58.6321C1.43072 59.4803 1.79342 59.388 6.23219 57.2165C8.37833 56.1665 10.2074 55.3369 10.2969 55.3728C10.5693 55.4818 19.0414 73.1404 18.8872 73.2782C18.8092 73.3479 17.0218 74.2285 14.9153 75.2351C12.8087 76.2418 10.9267 77.2409 10.7333 77.4554C10.1962 78.0512 10.2503 78.9715 10.8581 79.5793C11.2639 79.985 11.4207 80.044 11.9133 79.9758C12.5568 79.8867 21.6731 75.5214 22.2162 75.0422C22.7632 74.5596 22.8245 73.9884 22.4269 73.0781C21.7991 71.6406 21.6238 71.708 24.4774 72.2887C25.8819 72.5747 31.2169 73.6612 36.3329 74.7033L45.6348 76.5981L47.9016 76.5279C51.2889 76.4228 53.7181 75.6663 56.3351 73.9012C57.5547 73.0785 73.8812 59.2183 75.6031 57.5438C78.0402 55.1737 77.4462 51.2369 74.4185 49.6925C73.4926 49.2202 73.209 49.1501 72.2356 49.1542C71.4424 49.1575 70.9045 49.2546 70.3861 49.4877L69.6551 49.8166L69.1354 49.4244C67.7467 48.3757 65.4694 47.995 63.9258 48.5534ZM66.7205 51.614L67.1703 51.8059L61.2489 56.6232C54.7223 61.9327 53.7841 62.5382 51.5621 62.8751L50.9237 62.9719L50.9368 61.506L50.9501 60.0402L51.7596 59.9448C52.9071 59.8099 54.8709 59.0808 56.1291 58.3227C56.7199 57.9667 58.7863 56.3606 60.7209 54.7536C62.6555 53.1467 64.4495 51.7392 64.7074 51.626C65.2941 51.3682 66.1335 51.3632 66.7205 51.614ZM73.4211 52.7805C73.94 53.2675 74.1157 54.0562 73.849 54.7003C73.6351 55.2164 56.2687 70.1906 54.5378 71.3514C52.5217 72.7033 49.9866 73.4495 47.4001 73.4525C45.8922 73.4542 46.6258 73.5935 24.8424 69.1668L20.1524 68.2136L18.7632 65.3996C17.9992 63.8519 16.934 61.6632 16.396 60.5361L15.4179 58.4865L20.8337 56.0274C27.2734 53.1035 27.9433 52.8971 30.6219 53.0124C31.8698 53.0661 32.8186 53.1961 33.4408 53.3988C34.3884 53.7074 46.2801 59.09 46.9168 59.4986C47.106 59.6199 47.4113 60.0299 47.595 60.4096C48.0585 61.3668 47.9066 62.2265 47.1384 62.9949C46.102 64.0311 46.0458 64.0226 39.7679 61.8907C36.7178 60.855 33.9884 60.0073 33.7023 60.0069C33.3352 60.0062 33.0477 60.1405 32.7252 60.4631C31.9618 61.2264 32.1745 62.4352 33.1537 62.9C33.445 63.0382 36.0909 63.9655 39.0337 64.9608C43.9249 66.6149 44.4848 66.771 45.5566 66.7791C46.4149 66.7856 46.9386 66.6993 47.5108 66.4575C48.1203 66.1997 48.74 66.1089 50.3248 66.0448C52.7099 65.9485 53.7286 65.7044 55.6401 64.7719C56.8431 64.1849 58.0668 63.2541 64.0821 58.3511C67.9513 55.1973 71.3281 52.5226 71.5861 52.4074C72.1934 52.1361 72.8843 52.2765 73.4211 52.7805ZM11.1805 69.448C9.8252 70.1992 10.3922 72.3564 11.9449 72.3564C12.4594 72.3564 13.0541 71.9997 13.2855 71.5521C13.6485 70.85 13.5616 70.3461 12.9767 69.7613C12.3984 69.183 11.8355 69.0848 11.1805 69.448Z" fill="#30B2E6"/>
</svg>
