<svg width="26" height="26" viewBox="0 0 34 37" fill="none" xmlns="http://www.w3.org/2000/svg"><path fill-rule="evenodd" clip-rule="evenodd" d="M25.4025 0.992754C23.8993 1.24589 22.5399 2.25646 21.8575 3.62823C21.5145 4.31773 21.4 4.77132 21.3602 5.59847C21.26 7.67842 22.1744 10.02 24.0647 12.5237C24.7403 13.4186 25.432 14.1795 25.6924 14.3142C25.9451 14.4448 26.466 14.4467 26.7151 14.3178C26.9884 14.1766 27.7601 13.3348 28.4091 12.4702C30.1847 10.1049 31.0786 7.90696 31.0837 5.8937C31.0861 4.97586 30.9609 4.42309 30.5729 3.6377C29.6356 1.73993 27.4883 0.641559 25.4025 0.992754ZM26.9308 3.37305C27.5583 3.56075 28.1992 4.07189 28.4745 4.60414C29.2157 6.03766 28.5153 8.45045 26.6248 10.9758L26.2147 11.5235L25.7635 10.9101C24.5903 9.31502 23.9649 7.9864 23.7246 6.57814C23.6305 6.02642 23.6262 5.86167 23.6956 5.45681C23.9648 3.88742 25.4507 2.93031 26.9308 3.37305ZM7.1262 5.77807C4.17057 6.09144 1.74253 8.28695 1.1111 11.2171C0.979235 11.8289 0.960821 13.2478 1.0769 13.8485C1.54398 16.2647 3.3181 18.3327 5.58943 19.1086C6.7312 19.4987 6.04762 19.4744 17.0329 19.5145L27.0952 19.5513L27.5227 19.7048C28.1241 19.9209 28.6415 20.2077 29.0331 20.5419C30.128 21.4765 30.6795 22.6537 30.6795 24.0563C30.6795 26.0666 29.4952 27.699 27.5227 28.4078L27.0952 28.5613L20.7158 28.5942C15.644 28.6257 16.3602 28.6325 16.1185 28.7525C15.8006 28.9103 15.5427 29.2943 15.5 29.6737C15.4549 30.0735 15.672 30.5163 16.0289 30.7524L16.2956 30.929H20.5795C27.456 30.929 27.2854 30.9371 28.4074 30.5533C30.6367 29.7907 32.3821 27.8039 32.8889 25.4521C33.0207 24.8403 33.0391 23.4214 32.9231 22.8207C32.456 20.4045 30.6819 18.3364 28.4105 17.5606C27.2688 17.1705 27.9523 17.1948 16.9671 17.1547L6.90476 17.1179L6.47728 16.9643C5.87584 16.7482 5.35845 16.4615 4.96688 16.1273C3.87199 15.1926 3.32047 14.0154 3.32047 12.6129C3.32047 10.8388 4.27777 9.29989 5.86091 8.52903C6.81355 8.06518 6.61151 8.07754 13.2841 8.07458C16.6343 8.07301 17.4627 8.04551 17.6071 8.01204C18.1543 7.88511 18.5 7.45881 18.5 6.91103C18.5 6.71564 18.4567 6.47204 18.4037 6.36957C18.2705 6.11197 17.9507 5.85692 17.6594 5.77603C17.366 5.69454 7.89653 5.69638 7.1262 5.77807ZM7.12173 22.6973C5.80245 22.8285 4.49803 23.6136 3.66871 24.7757C2.45031 26.4832 2.52121 28.8367 3.87423 31.6001C4.72084 33.3292 6.63762 35.8573 7.2872 36.1014C7.8132 36.2991 8.26167 36.1041 8.88014 35.4087C10.2196 33.9029 11.2788 32.2703 11.8642 30.8094C12.8593 28.3262 12.788 26.2992 11.6494 24.7047C10.6189 23.2614 8.939 22.5166 7.12173 22.6973ZM8.4345 25.1121C9.14386 25.3328 9.73294 25.8573 10.0398 26.5413C10.241 26.9896 10.2805 27.892 10.1294 28.5866C9.8477 29.8813 9.2166 31.1774 8.18945 32.5702C7.92935 32.9229 7.70541 33.2114 7.6918 33.2114C7.67812 33.2114 7.48608 32.9738 7.26497 32.6833C5.77495 30.726 4.94708 28.5519 5.16497 27.1688C5.40962 25.6154 6.94613 24.6489 8.4345 25.1121Z" fill="white" /><path d="M21.7232 3.56142L21.8575 3.62823L25.6924 14.3142C25.9451 14.4448 26.466 14.4467 26.7151 14.3178L26.784 14.4511C26.784 14.4511 26.784 14.4511 26.784 14.4511C26.8722 14.4055 26.9847 14.3136 27.1059 14.2011C27.2307 14.0852 27.376 13.9366 27.5318 13.7666C27.8435 13.4267 28.2018 12.9963 28.5291 12.5602C30.3153 10.1807 31.2284 7.9517 31.2337 5.89408C31.2361 4.95421 31.1061 4.37843 30.7074 3.57127C29.7408 1.61419 27.5288 0.482638 25.3776 0.844837L25.4025 0.992754L25.3776 0.844837C23.8267 1.10599 22.4269 2.14693 21.7232 3.56142ZM26.8878 3.51676L26.9308 3.37305L26.8878 3.51676C27.4804 3.694 28.0865 4.1805 28.3412 4.67304C28.6872 5.3422 28.7057 6.2599 28.3925 7.33872C28.0801 8.41495 27.4423 9.6334 26.5047 10.8859L26.2158 11.2718L25.8843 10.8212C24.7199 9.23811 24.1076 7.93101 23.8724 6.5529C23.8254 6.27743 23.8026 6.10758 23.7987 5.95853C23.7949 5.81196 23.8094 5.68056 23.8435 5.48217L23.6956 5.45681L23.8435 5.48216C24.0983 3.99638 25.4988 3.10128 26.8878 3.51676ZM0.929624 13.8769L0.929626 13.8769C1.40659 16.3443 3.21715 18.4568 5.54094 19.2505C5.599 19.2704 5.65306 19.2894 5.70483 19.3077C5.90025 19.3766 6.06301 19.434 6.28516 19.4781C6.56571 19.5337 6.94064 19.5688 7.61453 19.5927C8.81796 19.6354 11.0024 19.6431 15.363 19.6585C15.8873 19.6604 16.443 19.6624 17.0323 19.6645L27.0688 19.7012L27.472 19.846C28.0603 20.0574 28.5608 20.336 28.9357 20.656C29.9982 21.563 30.5295 22.699 30.5295 24.0563C30.5295 25.9997 29.3884 27.578 27.472 28.2666L27.0687 28.4115L20.715 28.4442H20.7149C18.1809 28.46 17.0881 28.4695 16.5995 28.4903C16.477 28.4955 16.3892 28.5015 16.3248 28.509C16.262 28.5162 16.2122 28.5257 16.171 28.5418C16.1237 28.5603 16.0961 28.5844 16.0798 28.5985L16.0788 28.5994L16.078 28.6002C16.0691 28.6079 16.0649 28.6116 16.0518 28.6181L16.0518 28.6181C15.6842 28.8006 15.3989 29.2315 15.3509 29.6569C15.2991 30.117 15.546 30.6128 15.9461 30.8775L16.2129 31.0541L16.2505 31.079H16.2956H20.5795L21.0073 31.079C24.1564 31.0791 25.7375 31.0791 26.6586 31.0349C27.1409 31.0117 27.4488 30.9762 27.7093 30.9206C27.9469 30.8699 28.1421 30.8029 28.386 30.7192C28.4089 30.7114 28.4322 30.7034 28.456 30.6952C30.7363 29.9152 32.5179 27.8856 33.0355 25.4837C33.1047 25.1628 33.1423 24.643 33.1489 24.1342C33.1555 23.6256 33.1314 23.1082 33.0703 22.7923C32.5934 20.3249 30.7828 18.2124 28.459 17.4186C28.401 17.3988 28.3469 17.3797 28.2951 17.3615C28.0997 17.2926 27.9369 17.2352 27.7148 17.1911C27.4342 17.1354 27.0593 17.1004 26.3854 17.0765C25.182 17.0338 22.9976 17.0261 18.6369 17.0106C18.1127 17.0088 17.5569 17.0068 16.9676 17.0047L6.93115 16.968L6.528 16.8232C5.93966 16.6118 5.43917 16.3332 5.06426 16.0132C4.00175 15.1062 3.47047 13.9702 3.47047 12.6129C3.47047 10.8956 4.39553 9.40939 5.92658 8.6639C5.95107 8.65197 5.97465 8.64044 5.99746 8.62928C6.20058 8.52996 6.34275 8.46043 6.52644 8.40673C6.73009 8.34718 6.9899 8.30605 7.43669 8.27869C8.288 8.22658 9.78292 8.22598 12.7898 8.22479C12.9503 8.22472 13.115 8.22466 13.2842 8.22458C14.9595 8.22379 16.0051 8.21653 16.6504 8.20525C16.9729 8.19961 17.1965 8.19296 17.3491 8.18554C17.4967 8.17836 17.5894 8.17012 17.641 8.15817L17.641 8.15816C18.2536 8.01604 18.65 7.53113 18.65 6.91103C18.65 6.80338 18.6382 6.68479 18.6194 6.57919C18.6013 6.47737 18.5741 6.37264 18.537 6.30072L18.537 6.30066C18.4583 6.14851 18.3292 6.00481 18.1844 5.88926C18.0392 5.77352 17.8687 5.67847 17.6996 5.6315L17.6594 5.77603L17.6996 5.6315C17.6752 5.62473 17.6436 5.62145 17.619 5.61923C17.5898 5.61661 17.5527 5.61419 17.509 5.61193C17.4215 5.60739 17.3028 5.60323 17.1581 5.59942C16.8684 5.5918 16.4705 5.5855 15.9997 5.58049C15.0579 5.57047 13.8221 5.56562 12.5716 5.56586C11.3211 5.5661 10.0555 5.57144 9.05418 5.58184C8.05828 5.59217 7.31211 5.60751 7.11038 5.6289C4.08959 5.94919 1.60938 8.19277 0.964464 11.1855C0.895294 11.5064 0.857643 12.0262 0.851033 12.535C0.844427 13.0436 0.868573 13.561 0.929624 13.8769ZM9.90295 26.6027L9.90296 26.6027C9.99229 26.8018 10.0511 27.1176 10.0669 27.4781C10.0825 27.8356 10.0552 28.2218 9.98281 28.5547C9.70677 29.8235 9.087 31.1004 8.06873 32.4812C7.93919 32.6568 7.81894 32.8161 7.72969 32.9311C7.7154 32.9495 7.70198 32.9667 7.6895 32.9826C7.68411 32.976 7.67855 32.9691 7.67283 32.962C7.59663 32.8677 7.49426 32.7369 7.38433 32.5925L7.26497 32.6833L7.38432 32.5925C6.64697 31.6238 6.07498 30.6035 5.71469 29.6573C5.35322 28.7081 5.20994 27.8472 5.31314 27.1921L5.16497 27.1688L5.31314 27.1921C5.5438 25.7276 6.9904 24.8197 8.38993 25.2553C9.05779 25.4632 9.6135 25.9575 9.90295 26.6027ZM3.54661 24.6886L3.66871 24.7757L3.5466 24.6886C2.28248 26.4601 2.37482 28.8789 3.73951 31.6661C4.16837 32.542 4.86512 33.6146 5.53507 34.4982C5.87032 34.9404 6.20097 35.338 6.49034 35.6417C6.63495 35.7935 6.77092 35.9235 6.89333 36.0245C7.01327 36.1234 7.12964 36.2024 7.23443 36.2418C7.5309 36.3532 7.81506 36.3552 8.10881 36.2275C8.39391 36.1035 8.67809 35.8616 8.99222 35.5084C10.3401 33.9931 11.4101 32.346 12.0035 30.8652C13.0099 28.3538 12.9501 26.268 11.7715 24.6175C10.7086 23.1289 8.97566 22.3623 7.10689 22.548C5.74097 22.6839 4.39887 23.4943 3.54661 24.6886Z" stroke="white" stroke-width="0.3"/></svg>
