<svg width="30" height="30" viewBox="0 0 7.9374998 7.9375002" version="1.1" id="svg2740" inkscape:version="1.1.1 (3bf5ae0d25, 2021-09-20)" xmlns:inkscape="http://www.inkscape.org/namespaces/inkscape" xmlns="http://www.w3.org/2000/svg" xmlns:svg="http://www.w3.org/2000/svg"><g inkscape:label="Слой 1" inkscape:groupmode="layer" id="layer1"> <path id="path2835" style="color:#000000;fill:#ffffff;stroke-width:1.05071;stroke-linecap:round;stroke-linejoin:round;-inkscape-stroke:none;fill-opacity:1" d="M 4.3269642,0.04406017 V 1.9362934 c 0.9351365,0 1.6767945,0.7259652 1.7011093,1.6544144 H 7.9197639 C 7.8942816,1.6390268 6.2842888,0.04406017 4.3269642,0.04406017 Z M 3.6536876,0.71733684 c -1.9730131,0 -3.59279989,1.62032996 -3.59279989,3.59334276 0,1.9730127 1.61978679,3.5933427 3.59279989,3.5933427 1.9730126,0 3.5933426,-1.62033 3.5933426,-3.5933427 0,-0.015688 -3.388e-4,-0.031052 -5.429e-4,-0.046695 H 5.3547969 c 4.101e-4,0.01565 5.429e-4,0.030933 5.429e-4,0.046695 0,0.9508995 -0.7507528,1.7016525 -1.7016522,1.7016525 -0.9508998,0 -1.7011096,-0.750753 -1.7011096,-1.7016525 0,-0.9508995 0.7502098,-1.7011097 1.7011096,-1.7011097 z" /></g></svg>