<svg version="1.1" id="Capa_1" x="0px" y="0px" viewBox="0 0 18.000001 18.000001" xml:space="preserve" width="18" height="18" inkscape:version="1.1.1 (3bf5ae0d25, 2021-09-20)" xmlns:inkscape="http://www.inkscape.org/namespaces/inkscape" xmlns="http://www.w3.org/2000/svg" xmlns:svg="http://www.w3.org/2000/svg"><g id="g6"><path id="path2" d="m 1.4160744,0.26145894 c -0.75752323,0 -1.37168062,0.61409632 -1.37168062,1.37168026 V 16.449728 c 0,0.757523 0.61415739,1.37168 1.37168062,1.37168 H 16.604122 c 0.757524,0 1.371562,-0.614157 1.371563,-1.37168 V 5.0282651 c 0,-0.3637423 -0.144439,-0.7126425 -0.40168,-0.9698836 L 14.17888,0.66325587 C 13.921638,0.40601485 13.572681,0.26145894 13.208878,0.26145894 H 12.885543 12.642806 3.2248724 Z m 1.808798,0.78972646 h 9.4179336 v 4.2853612 c 0,0.3397719 -0.275487,0.6151406 -0.615259,0.6151406 H 3.8401316 c -0.339772,0 -0.6152592,-0.2753687 -0.6152592,-0.6151406 z m 6.7763846,1.185479 c -0.2122743,0 -0.384374,0.119444 -0.384374,0.2669165 v 1.9675019 c 0,0.1474307 0.1721605,0.2669165 0.384374,0.2669165 h 1.051784 c 0.212274,0 0.384374,-0.119486 0.384374,-0.2669165 V 2.5035809 c 0,-0.1474727 -0.1721,-0.2669165 -0.384374,-0.2669165 z" style="fill:#0cb754;fill-opacity:1;stroke-width:0.0606844" /></g><g id="g8" /><g id="g10" /><g id="g12" /><g id="g14" /><g id="g16" /><g id="g18" /><g id="g20" /><g id="g22" /><g id="g24" /><g id="g26" /><g id="g28" /><g id="g30" /><g id="g32" /><g id="g34" /><g id="g36" /></svg>