<svg width="19" height="19" viewBox="0 0 19 19" fill="none" xmlns="http://www.w3.org/2000/svg">
<path d="M7.87207 15.2513C9.38985 15.2513 10.792 14.7888 11.9628 14.0082L16.1982 18.2435C16.5308 18.576 17.0801 18.576 17.4269 18.2435L18.2508 17.4196C18.5833 17.0871 18.5833 16.5378 18.2508 16.1909L14.001 11.9701C14.7814 10.7992 15.2441 9.39705 15.2441 7.87927C15.2441 3.81741 11.9339 0.507202 7.87207 0.507202C3.8102 0.507202 0.5 3.81741 0.5 7.87927C0.5 11.941 3.79575 15.2513 7.87207 15.2513ZM7.87207 3.39821C10.3439 3.39821 12.3531 5.40746 12.3531 7.87927C12.3531 10.3511 10.3439 12.3603 7.87207 12.3603C5.40026 12.3603 3.39101 10.3511 3.39101 7.87927C3.39101 5.40746 5.40026 3.39821 7.87207 3.39821Z" fill="white" fill-opacity="0.4"/>
</svg>
