<svg width="25" height="22" viewBox="0 0 25 22" fill="none" xmlns="http://www.w3.org/2000/svg"><path d="M20.25 2.75C20.25 2.15326 20.4871 1.58097 20.909 1.15901C21.331 0.737053 21.9033 0.5 22.5 0.5C23.0967 0.5 23.669 0.737053 24.091 1.15901C24.5129 1.58097 24.75 2.15326 24.75 2.75V19.25C24.75 19.8467 24.5129 20.419 24.091 20.841C23.669 21.2629 23.0967 21.5 22.5 21.5C21.9033 21.5 21.331 21.2629 20.909 20.841C20.4871 20.419 20.25 19.8467 20.25 19.25V2.75ZM18.75 3.836C15.6495 5.261 11.9415 6.0575 8.25 6.32V15.6755C8.79486 15.7062 9.33898 15.7487 9.882 15.803C12.9615 16.109 15.939 16.805 18.75 18.143V3.836ZM6.75 15.5975V6.401C5.73 6.4415 4.6515 6.4655 3.738 6.4805C2.94351 6.49151 2.18513 6.81416 1.62624 7.37894C1.06735 7.94372 0.752677 8.70544 0.75 9.5L0.75 12.5C0.75 14.159 2.094 15.494 3.741 15.5135C3.98901 15.5166 4.23702 15.5206 4.485 15.5255C5.24026 15.5406 5.99531 15.5646 6.75 15.5975ZM8.835 17.219C9.2625 17.2505 9.6885 17.2895 10.11 17.336L10.4895 19.871C10.5308 20.0879 10.5237 20.3113 10.4687 20.5252C10.4137 20.7391 10.3121 20.9381 10.1712 21.1082C10.0304 21.2783 9.85372 21.4152 9.65385 21.5091C9.45398 21.603 9.23583 21.6516 9.015 21.6515H8.193C7.90143 21.6515 7.61619 21.5665 7.37217 21.4069C7.12815 21.2473 6.93592 21.0201 6.819 20.753L4.848 17.033C5.69438 17.0541 6.54045 17.0861 7.386 17.129C7.8765 17.1545 8.361 17.1845 8.835 17.219Z" fill="white"/></svg>
