<svg width="32" height="33" viewBox="0 0 32 33" fill="none" xmlns="http://www.w3.org/2000/svg"><path fill-rule="evenodd" clip-rule="evenodd" d="M15.2702 0.962908C12.7219 1.32268 10.7252 3.26687 10.2712 5.83067C10.0339 7.17045 10.3978 8.7582 11.2176 9.95913L11.4886 10.3562L10.9861 10.6319C9.31105 11.5513 8.04976 13.1936 7.53138 15.1303C7.43818 15.4786 7.35023 15.6794 7.29103 15.6794C7.07262 15.6794 6.07961 16.1209 5.62084 16.4219C4.62048 17.0783 3.94282 17.8532 3.46165 18.891C2.56088 20.8336 2.79367 22.9592 4.10714 24.7853C4.21015 24.9285 4.20007 24.9395 3.74321 25.1795C1.97601 26.1082 0.571179 28.0132 0.155472 30.0446C-0.111992 31.3517 -0.0405278 32.0125 0.417827 32.4701C1.3624 33.4133 2.90008 32.7632 2.90969 31.4166C2.92093 29.8526 3.89439 28.3022 5.30038 27.6091C6.17751 27.1767 6.53163 27.127 8.73483 27.127C10.9391 27.127 11.2903 27.1764 12.1752 27.611C13.2061 28.1171 14.0615 29.1447 14.3852 30.2658C14.4459 30.476 14.523 30.9638 14.5566 31.3499C14.609 31.9544 14.6444 32.0906 14.8109 32.3304C15.3764 33.1447 16.7233 33.1196 17.2401 32.2852C17.4044 32.02 17.4428 31.8647 17.4914 31.2686C17.5907 30.0506 17.9643 29.1935 18.735 28.4157C19.2229 27.9232 19.7422 27.6019 20.4533 27.3526C20.9964 27.1621 21.0022 27.1617 23.0754 27.1384C25.4682 27.1116 25.8334 27.1574 26.7202 27.596C28.0954 28.276 28.9778 29.6151 29.1042 31.2137C29.1292 31.5314 29.1806 31.8917 29.2182 32.0144C29.5145 32.9805 30.9365 33.2398 31.672 32.4618C31.9375 32.181 32 31.9573 32 31.2885C32 28.8454 30.5195 26.4026 28.2994 25.1822C28.0491 25.0447 27.8443 24.9197 27.8443 24.9045C27.8443 24.8892 27.948 24.7311 28.0748 24.553C28.416 24.074 28.706 23.4594 28.9092 22.7848C29.0647 22.2685 29.0896 22.0628 29.0891 21.2999C29.0881 19.9129 28.7542 18.9194 27.9142 17.8046C27.2228 16.8872 26.1911 16.1402 25.1661 15.8153C24.6509 15.6519 24.6376 15.6421 24.569 15.3743C24.385 14.6568 24.2863 14.3772 24.0309 13.8504C23.637 13.038 23.3256 12.5932 22.6799 11.9208C22.1238 11.3418 21.4209 10.8014 20.8431 10.5088L20.5524 10.3616L20.8338 9.94714C21.6121 8.80119 21.9645 7.33811 21.7834 6.00549C21.454 3.58264 19.6028 1.55397 17.2742 1.06414C16.6539 0.933613 15.7876 0.889876 15.2702 0.962908ZM17.0311 4.01872C18.5856 4.56509 19.3651 6.43448 18.6635 7.93373C17.808 9.76191 15.4881 10.2187 14.0332 8.84547C13.3575 8.2076 13.09 7.51605 13.1451 6.54927C13.1726 6.06762 13.2193 5.87632 13.4038 5.48956C13.7808 4.69937 14.5692 4.07063 15.4088 3.89071C15.8209 3.80235 16.5877 3.86291 17.0311 4.01872ZM18.2725 12.6472C19.3938 12.8464 20.4766 13.5653 21.094 14.5205C21.3739 14.9537 21.6791 15.6679 21.6126 15.7343C21.5923 15.7546 21.3627 15.8542 21.1024 15.9554C19.2997 16.6568 17.8679 18.4503 17.5549 20.3992C17.4529 21.034 17.5012 22.1448 17.6563 22.7305C17.7876 23.2267 18.283 24.2657 18.5648 24.6359L18.7705 24.9061L18.3522 25.138C17.703 25.4978 16.9895 26.065 16.4702 26.6342C16.2097 26.9198 15.9861 27.1393 15.9734 27.1221C15.4677 26.4309 14.69 25.7459 13.812 25.2181L13.2755 24.8957L13.5135 24.5625C13.8464 24.0965 14.1836 23.372 14.3661 22.7305C14.569 22.0176 14.5841 20.6647 14.3974 19.9373C13.94 18.1549 12.6009 16.6299 10.8806 15.932C10.3534 15.7182 10.3415 15.6576 10.6882 14.9611C11.2975 13.7365 12.4169 12.8974 13.7762 12.6461C14.4619 12.5193 17.5569 12.5201 18.2725 12.6472ZM9.93672 18.6567C10.574 18.9567 11.0331 19.4041 11.3396 20.0242C11.5895 20.5297 11.5961 20.5628 11.5961 21.2962C11.5961 22.0014 11.5823 22.0784 11.3792 22.5073C11.0776 23.1438 10.6328 23.597 10.0048 23.9073C9.50568 24.1541 9.47026 24.1612 8.73838 24.1612C8.03722 24.1612 7.95499 24.1467 7.54262 23.9502C6.89345 23.6408 6.43714 23.1967 6.13009 22.5754C5.8802 22.0698 5.87353 22.0367 5.87353 21.3034C5.87353 20.6226 5.89165 20.5118 6.06271 20.1465C6.43305 19.3557 7.05007 18.8022 7.85982 18.5346C8.46935 18.3332 9.36057 18.3856 9.93672 18.6567ZM24.1753 18.539C25.3215 18.8953 26.098 19.8805 26.19 21.0955C26.3121 22.7086 25.1231 24.0782 23.5133 24.1786C22.8803 24.2181 22.4866 24.1418 21.9381 23.8732C21.4749 23.6464 20.8737 23.0167 20.6379 22.5112C20.4705 22.1526 20.454 22.0443 20.4533 21.2999C20.4526 20.5067 20.4594 20.4687 20.6824 20.0244C21.051 19.2899 21.8304 18.6554 22.5813 18.4785C23.0364 18.3712 23.7186 18.3971 24.1753 18.539Z" fill="white" fill-opacity="0.4"/></svg>
