<svg width="21" height="25" viewBox="0 0 21 25" fill="none" xmlns="http://www.w3.org/2000/svg"><path fill-rule="evenodd" clip-rule="evenodd" d="M9.96086 0.559983C8.67997 0.761339 7.53557 1.36818 6.63859 2.32168C5.6546 3.36767 5.14467 4.57553 5.07455 6.02635C4.97661 8.05268 5.97101 9.98974 7.68548 11.1125C8.52876 11.6647 9.34211 11.9451 10.3273 12.0231C12.1533 12.1678 13.7103 11.5938 14.9673 10.3128C15.9624 9.29867 16.4712 8.19526 16.5951 6.78305C16.7606 4.89659 16.0508 3.13968 14.6278 1.9139C13.71 1.12329 12.8632 0.732822 11.6963 0.562093C11.1357 0.480059 10.4745 0.479262 9.96086 0.559983ZM5.70099 12.1281C3.57992 12.3521 2.11011 13.8741 1.4247 16.5562C0.967677 18.3446 0.850136 20.4937 1.14507 21.6687C1.38202 22.6126 2.16343 23.5704 3.06858 24.0265C3.47973 24.2336 4.06711 24.4054 4.55687 24.4617C4.84707 24.4951 7.06227 24.5065 11.2976 24.4965L17.6061 24.4815L18.0048 24.3721C19.4848 23.9659 20.5006 22.9742 20.8703 21.5749C21.0628 20.8459 21.0382 19.1112 20.8157 17.7405C20.3213 14.6935 19.0739 12.8641 17.1007 12.2923C16.6496 12.1616 15.8425 12.0622 15.6032 12.1079C15.3743 12.1516 15.0543 12.3226 14.3321 12.787C13.5627 13.2817 13.456 13.338 12.8799 13.5538C12.2126 13.8038 11.6619 13.9092 11.0227 13.9093C10.3621 13.9093 9.85697 13.8189 9.1907 13.5812C8.56154 13.3568 8.53429 13.3424 7.55171 12.7184C7.03357 12.3893 6.65022 12.1785 6.49788 12.139C6.23752 12.0715 6.23757 12.0715 5.70099 12.1281Z" fill="white"/></svg>
