<svg width="25" height="18" viewBox="0 0 25 18" fill="none" xmlns="http://www.w3.org/2000/svg"><path d="M23.75 3.50708C23.6141 3.02231 23.3494 2.58342 22.984 2.23708C22.6083 1.88008 22.1478 1.62471 21.646 1.49508C19.768 1.00008 12.244 1.00008 12.244 1.00008C9.10734 0.964389 5.97144 1.12135 2.85401 1.47008C2.3522 1.60929 1.89257 1.87036 1.51601 2.23008C1.14601 2.58608 0.878007 3.02508 0.738007 3.50608C0.4017 5.31782 0.238299 7.15742 0.250007 9.00007C0.238007 10.8411 0.401007 12.6801 0.738007 14.4941C0.875007 14.9731 1.14201 15.4101 1.51301 15.7631C1.88401 16.1161 2.34601 16.3711 2.85401 16.5061C4.75701 17.0001 12.244 17.0001 12.244 17.0001C15.3847 17.0358 18.5246 16.8788 21.646 16.5301C22.1478 16.4004 22.6083 16.1451 22.984 15.7881C23.354 15.4351 23.617 14.9961 23.749 14.5181C24.0941 12.707 24.2619 10.8667 24.25 9.02307C24.276 7.17168 24.1084 5.32264 23.75 3.50608V3.50708ZM9.85201 12.4241V5.57707L16.112 9.00107L9.85201 12.4241Z" fill="white"/></svg>
